<svg width="17" height="18" viewBox="0 0 17 18" fill="none" xmlns="http://www.w3.org/2000/svg">
<path fill-rule="evenodd" clip-rule="evenodd" d="M6.62503 0.75C8.31639 0.75 9.68754 2.12111 9.68754 3.81247C9.68754 5.44748 8.40629 6.78324 6.79307 6.87043L6.62503 6.87499C4.93367 6.87499 3.56251 5.50387 3.56251 3.81247C3.56251 2.17751 4.84376 0.841711 6.45699 0.754512L6.62503 0.75ZM0.5 16.5H8.20236C7.88932 15.9591 7.67602 15.3663 7.57261 14.75H2.25001V13.35L2.25457 13.1801C2.33894 11.6065 3.58819 10.375 5.09375 10.375H8.15626L8.31655 10.3796C8.47278 10.3888 8.62581 10.4112 8.77461 10.4458C9.21703 9.93313 9.7541 9.51055 10.3564 9.20115C9.70304 8.83381 8.95336 8.625 8.15626 8.625H5.09375L4.90442 8.62894C2.45517 8.73107 0.5 10.8057 0.5 13.35V16.5ZM5.31253 3.81247C5.31253 3.0876 5.90016 2.49997 6.62503 2.49997C7.3499 2.49997 7.93753 3.0876 7.93753 3.81247C7.93753 4.53734 7.3499 5.12497 6.62503 5.12497C5.90016 5.12497 5.31253 4.53734 5.31253 3.81247ZM10.1785 17.4144L12.75 15.8438L15.3216 17.4144L14.6224 14.4833L16.9109 12.523L13.9072 12.2822L12.75 9.49999L11.5928 12.2822L8.58914 12.523L10.8776 14.4833L10.1785 17.4144Z" fill="#CCA351"/>
</svg>
