<svg width="113" height="34" viewBox="0 0 113 34" fill="none" xmlns="http://www.w3.org/2000/svg">
<path d="M1.37297 12.6201V0.482357H5.7836C6.77513 0.482357 7.6413 0.641914 8.3821 0.961029C9.1343 1.28014 9.76113 1.71323 10.2626 2.26028C10.7641 2.80734 11.1402 3.45126 11.3909 4.19207C11.6416 4.92147 11.767 5.70216 11.767 6.53414C11.767 7.4573 11.6245 8.29497 11.3396 9.04717C11.0661 9.78797 10.6672 10.4262 10.1429 10.9619C9.61867 11.4861 8.98614 11.8964 8.24534 12.1927C7.51593 12.4777 6.69535 12.6201 5.7836 12.6201H1.37297ZM9.39073 6.53414C9.39073 5.9529 9.31095 5.41724 9.1514 4.92717C8.99184 4.4371 8.7582 4.01541 8.45048 3.66211C8.14277 3.3088 7.76097 3.03528 7.30509 2.84153C6.86061 2.64778 6.35344 2.5509 5.7836 2.5509H3.73214V10.5516H5.7836C6.36484 10.5516 6.8777 10.449 7.32218 10.2439C7.77806 10.0387 8.15416 9.75948 8.45048 9.40618C8.7582 9.04147 8.99184 8.61409 9.1514 8.12402C9.31095 7.63395 9.39073 7.10399 9.39073 6.53414ZM13.388 12.6201V3.66211H15.6788V12.6201H13.388ZM13.388 2.41414V0.140449H15.6788V2.41414H13.388ZM21.2499 12.6714C20.6459 12.6714 20.0988 12.5517 19.6087 12.3124C19.1187 12.0731 18.6913 11.7482 18.3266 11.338C17.9733 10.9163 17.6997 10.4319 17.506 9.88485C17.3122 9.33779 17.2154 8.75655 17.2154 8.14111C17.2154 7.49149 17.3179 6.88745 17.5231 6.329C17.7282 5.77055 18.0132 5.28048 18.3779 4.85879C18.7426 4.4371 19.1813 4.10659 19.6942 3.86725C20.2071 3.62792 20.7712 3.50825 21.3867 3.50825C22.0819 3.50825 22.6916 3.66781 23.2159 3.98692C23.7401 4.29464 24.1732 4.71063 24.5151 5.23489V3.66211H26.5153V12.1927C26.5153 12.8538 26.3899 13.4464 26.1392 13.9707C25.8885 14.4949 25.5408 14.9394 25.0964 15.3041C24.6633 15.6688 24.139 15.948 23.5236 16.1418C22.9195 16.3355 22.2585 16.4324 21.5405 16.4324C20.5604 16.4324 19.7341 16.2671 19.0617 15.9366C18.4006 15.6175 17.8308 15.1616 17.3521 14.569L18.6001 13.3552C18.942 13.7769 19.3694 14.1074 19.8823 14.3468C20.4065 14.5861 20.9593 14.7058 21.5405 14.7058C21.8938 14.7058 22.23 14.6545 22.5491 14.5519C22.8797 14.4607 23.1703 14.3126 23.421 14.1074C23.6717 13.9023 23.8655 13.6401 24.0023 13.321C24.1504 13.0019 24.2245 12.6258 24.2245 12.1927V11.0644C23.9282 11.5773 23.5122 11.9762 22.9765 12.2611C22.4409 12.5346 21.8653 12.6714 21.2499 12.6714ZM22.0192 10.8422C22.2699 10.8422 22.5093 10.8023 22.7372 10.7225C22.9651 10.6427 23.176 10.5345 23.3697 10.3977C23.5635 10.2609 23.7344 10.1014 23.8826 9.91904C24.0307 9.73669 24.1447 9.54294 24.2245 9.33779V7.20086C24.0194 6.6766 23.6945 6.25492 23.2501 5.9358C22.817 5.61669 22.3611 5.45713 21.8824 5.45713C21.5291 5.45713 21.21 5.53691 20.9251 5.69647C20.6402 5.84463 20.3951 6.04977 20.19 6.3119C19.9848 6.56263 19.8253 6.85326 19.7113 7.18377C19.6087 7.51428 19.5574 7.85619 19.5574 8.20949C19.5574 8.5742 19.6201 8.91611 19.7455 9.23522C19.8709 9.55434 20.0418 9.83356 20.2584 10.0729C20.4863 10.3122 20.7484 10.5003 21.0447 10.637C21.3411 10.7738 21.6659 10.8422 22.0192 10.8422ZM28.5802 12.6201V3.66211H30.871V12.6201H28.5802ZM28.5802 2.41414V0.140449H30.871V2.41414H28.5802ZM38.3055 12.1585C37.9978 12.2953 37.6217 12.4321 37.1772 12.5688C36.7327 12.7056 36.2655 12.774 35.7754 12.774C35.4563 12.774 35.1543 12.7341 34.8693 12.6543C34.5958 12.5745 34.3508 12.4492 34.1342 12.2782C33.9291 12.0959 33.7638 11.8679 33.6385 11.5944C33.5131 11.3095 33.4504 10.9676 33.4504 10.5687V5.42294H32.2708V3.66211H33.4504V0.755884H35.7412V3.66211H37.6217V5.42294H35.7412V9.79937C35.7412 10.1185 35.821 10.3464 35.9805 10.4832C36.1515 10.6086 36.3566 10.6712 36.596 10.6712C36.8353 10.6712 37.069 10.6313 37.2969 10.5516C37.5248 10.4718 37.7072 10.4034 37.8439 10.3464L38.3055 12.1585ZM41.9432 12.7911C41.5102 12.7911 41.1056 12.7227 40.7295 12.5859C40.3534 12.4378 40.0286 12.2383 39.755 11.9876C39.4815 11.7255 39.265 11.4234 39.1054 11.0815C38.9572 10.7396 38.8832 10.3635 38.8832 9.95323C38.8832 9.53154 38.9743 9.14405 39.1567 8.79074C39.3504 8.42604 39.6126 8.11832 39.9431 7.86759C40.285 7.61685 40.6896 7.4231 41.1569 7.28634C41.6241 7.13818 42.137 7.0641 42.6954 7.0641C43.0943 7.0641 43.4818 7.09829 43.8579 7.16667C44.2454 7.23505 44.5873 7.33193 44.8837 7.4573V6.94443C44.8837 6.35179 44.7127 5.89591 44.3708 5.5768C44.0403 5.25768 43.5445 5.09812 42.8835 5.09812C42.4048 5.09812 41.9376 5.1836 41.4817 5.35456C41.0258 5.52551 40.5585 5.77624 40.0798 6.10676L39.3789 4.65364C40.53 3.89005 41.7723 3.50825 43.1057 3.50825C44.3936 3.50825 45.3908 3.82736 46.0974 4.46559C46.8154 5.09243 47.1745 6.00418 47.1745 7.20086V9.98742C47.1745 10.2268 47.2143 10.3977 47.2941 10.5003C47.3853 10.6029 47.5278 10.6598 47.7215 10.6712V12.6201C47.334 12.6999 46.9978 12.7398 46.7129 12.7398C46.2798 12.7398 45.9436 12.6429 45.7042 12.4492C45.4763 12.2554 45.3338 11.999 45.2769 11.6799L45.2256 11.1841C44.8267 11.7084 44.3423 12.1073 43.7725 12.3808C43.2026 12.6543 42.5929 12.7911 41.9432 12.7911ZM42.5929 11.1157C42.9804 11.1157 43.3451 11.0473 43.687 10.9106C44.0403 10.7738 44.3138 10.5915 44.5076 10.3635C44.7583 10.1698 44.8837 9.95323 44.8837 9.71389V8.68817C44.6101 8.58559 44.3138 8.50582 43.9947 8.44883C43.6756 8.38045 43.3679 8.34626 43.0715 8.34626C42.4789 8.34626 41.9945 8.48302 41.6184 8.75655C41.2423 9.01868 41.0543 9.35489 41.0543 9.76518C41.0543 10.1527 41.2024 10.4775 41.4988 10.7396C41.7951 10.9904 42.1598 11.1157 42.5929 11.1157ZM49.298 0.140449H51.5888V9.74808C51.5888 10.0786 51.6686 10.335 51.8281 10.5174C51.9877 10.6997 52.2156 10.7909 52.512 10.7909C52.6487 10.7909 52.7969 10.7681 52.9564 10.7225C53.1274 10.6769 53.287 10.62 53.4351 10.5516L53.7428 12.2953C53.4351 12.4435 53.0761 12.5574 52.6658 12.6372C52.2555 12.717 51.8851 12.7569 51.5546 12.7569C50.8366 12.7569 50.2782 12.5688 49.8793 12.1927C49.4918 11.8052 49.298 11.2582 49.298 10.5516V0.140449ZM58.5358 12.6201V0.482357H62.9465C63.938 0.482357 64.8042 0.641914 65.545 0.961029C66.2972 1.28014 66.924 1.71323 67.4255 2.26028C67.9269 2.80734 68.303 3.45126 68.5538 4.19207C68.8045 4.92147 68.9299 5.70216 68.9299 6.53414C68.9299 7.4573 68.7874 8.29497 68.5025 9.04717C68.2289 9.78797 67.8301 10.4262 67.3058 10.9619C66.7815 11.4861 66.149 11.8964 65.4082 12.1927C64.6788 12.4777 63.8582 12.6201 62.9465 12.6201H58.5358ZM66.5536 6.53414C66.5536 5.9529 66.4738 5.41724 66.3143 4.92717C66.1547 4.4371 65.9211 4.01541 65.6133 3.66211C65.3056 3.3088 64.9238 3.03528 64.468 2.84153C64.0235 2.64778 63.5163 2.5509 62.9465 2.5509H60.895V10.5516H62.9465C63.5277 10.5516 64.0406 10.449 64.485 10.2439C64.9409 10.0387 65.317 9.75948 65.6133 9.40618C65.9211 9.04147 66.1547 8.61409 66.3143 8.12402C66.4738 7.63395 66.5536 7.10399 66.5536 6.53414ZM74.705 12.7911C73.987 12.7911 73.3374 12.6714 72.7562 12.4321C72.1749 12.1813 71.6792 11.8451 71.2689 11.4234C70.8586 11.0017 70.5395 10.5117 70.3115 9.95323C70.095 9.39478 69.9867 8.80783 69.9867 8.1924C69.9867 7.55417 70.095 6.95583 70.3115 6.39738C70.5281 5.82753 70.8415 5.33176 71.2518 4.91007C71.6621 4.47699 72.1578 4.13508 72.7391 3.88435C73.3317 3.63362 73.9927 3.50825 74.7221 3.50825C75.4515 3.50825 76.1012 3.63362 76.671 3.88435C77.2523 4.13508 77.7423 4.47129 78.1412 4.89298C78.5515 5.31467 78.8592 5.80474 79.0644 6.36319C79.2809 6.92164 79.3892 7.50288 79.3892 8.10692C79.3892 8.25508 79.3835 8.39754 79.3721 8.53431C79.3721 8.67107 79.3607 8.78504 79.3379 8.87622H72.4143C72.4484 9.22952 72.5339 9.54294 72.6707 9.81647C72.8075 10.09 72.9841 10.3236 73.2006 10.5174C73.4172 10.7111 73.6622 10.8593 73.9358 10.9619C74.2093 11.0644 74.4942 11.1157 74.7905 11.1157C75.2464 11.1157 75.6738 11.0074 76.0727 10.7909C76.483 10.563 76.7622 10.2666 76.9104 9.90194L78.8763 10.449C78.5458 11.1328 78.0159 11.697 77.2865 12.1414C76.5684 12.5745 75.708 12.7911 74.705 12.7911ZM77.03 7.38891C76.973 6.71649 76.7223 6.18084 76.2778 5.78194C75.8447 5.37165 75.3148 5.16651 74.688 5.16651C74.3802 5.16651 74.0896 5.22349 73.8161 5.33746C73.554 5.44003 73.3203 5.58819 73.1152 5.78194C72.91 5.97569 72.7391 6.20933 72.6023 6.48286C72.4769 6.75638 72.4029 7.0584 72.3801 7.38891H77.03ZM84.1696 12.7911C83.4174 12.7911 82.6823 12.6714 81.9643 12.4321C81.2463 12.1927 80.6309 11.8508 80.118 11.4063L80.9728 9.97032C81.5199 10.3578 82.0498 10.6541 82.5627 10.8593C83.0869 11.053 83.6055 11.1499 84.1184 11.1499C84.5742 11.1499 84.9332 11.0644 85.1954 10.8935C85.4575 10.7225 85.5886 10.4775 85.5886 10.1584C85.5886 9.83926 85.4347 9.60562 85.127 9.45746C84.8193 9.3093 84.3178 9.13835 83.6226 8.9446C83.0413 8.78504 82.5456 8.63118 82.1353 8.48302C81.725 8.33486 81.3945 8.1696 81.1438 7.98725C80.893 7.79351 80.7107 7.57696 80.5967 7.33763C80.4827 7.08689 80.4257 6.79057 80.4257 6.44866C80.4257 5.99279 80.5112 5.5825 80.6822 5.21779C80.8645 4.85309 81.1153 4.54537 81.4344 4.29464C81.7535 4.03251 82.1239 3.83306 82.5456 3.6963C82.9787 3.55954 83.4459 3.49115 83.9474 3.49115C84.6198 3.49115 85.2467 3.58803 85.8279 3.78178C86.4205 3.97552 86.9619 4.28894 87.452 4.72203L86.5288 6.10676C86.0729 5.76485 85.6285 5.51411 85.1954 5.35456C84.7737 5.195 84.352 5.11522 83.9303 5.11522C83.5428 5.11522 83.218 5.195 82.9559 5.35456C82.6937 5.51411 82.5627 5.77055 82.5627 6.12385C82.5627 6.28341 82.5912 6.41447 82.6482 6.51705C82.7165 6.61962 82.8191 6.71079 82.9559 6.79057C83.0926 6.87035 83.2693 6.95013 83.4858 7.02991C83.7138 7.09829 83.993 7.17237 84.3235 7.25215C84.9389 7.41171 85.4632 7.57126 85.8963 7.73082C86.3408 7.89038 86.6998 8.07273 86.9733 8.27788C87.2582 8.48302 87.4634 8.72236 87.5887 8.99588C87.7255 9.25801 87.7939 9.57713 87.7939 9.95323C87.7939 10.8308 87.4691 11.526 86.8194 12.0389C86.1698 12.5403 85.2865 12.7911 84.1696 12.7911ZM89.2824 12.6201V3.66211H91.5732V12.6201H89.2824ZM89.2824 2.41414V0.140449H91.5732V2.41414H89.2824ZM97.1443 12.6714C96.5402 12.6714 95.9932 12.5517 95.5031 12.3124C95.013 12.0731 94.5857 11.7482 94.221 11.338C93.8677 10.9163 93.5941 10.4319 93.4004 9.88485C93.2066 9.33779 93.1098 8.75655 93.1098 8.14111C93.1098 7.49149 93.2123 6.88745 93.4175 6.329C93.6226 5.77055 93.9075 5.28048 94.2722 4.85879C94.6369 4.4371 95.0757 4.10659 95.5886 3.86725C96.1015 3.62792 96.6656 3.50825 97.281 3.50825C97.9763 3.50825 98.586 3.66781 99.1103 3.98692C99.6345 4.29464 100.068 4.71063 100.41 5.23489V3.66211H102.41V12.1927C102.41 12.8538 102.284 13.4464 102.034 13.9707C101.783 14.4949 101.435 14.9394 100.991 15.3041C100.558 15.6688 100.033 15.948 99.418 16.1418C98.8139 16.3355 98.1529 16.4324 97.4349 16.4324C96.4548 16.4324 95.6285 16.2671 94.9561 15.9366C94.295 15.6175 93.7252 15.1616 93.2465 14.569L94.4945 13.3552C94.8364 13.7769 95.2638 14.1074 95.7766 14.3468C96.3009 14.5861 96.8537 14.7058 97.4349 14.7058C97.7882 14.7058 98.1244 14.6545 98.4435 14.5519C98.774 14.4607 99.0647 14.3126 99.3154 14.1074C99.5661 13.9023 99.7599 13.6401 99.8966 13.321C100.045 13.0019 100.119 12.6258 100.119 12.1927V11.0644C99.8226 11.5773 99.4066 11.9762 98.8709 12.2611C98.3353 12.5346 97.7597 12.6714 97.1443 12.6714ZM97.9136 10.8422C98.1643 10.8422 98.4036 10.8023 98.6316 10.7225C98.8595 10.6427 99.0704 10.5345 99.2641 10.3977C99.4579 10.2609 99.6288 10.1014 99.777 9.91904C99.9251 9.73669 100.039 9.54294 100.119 9.33779V7.20086C99.9137 6.6766 99.5889 6.25492 99.1444 5.9358C98.7114 5.61669 98.2555 5.45713 97.7768 5.45713C97.4235 5.45713 97.1044 5.53691 96.8195 5.69647C96.5345 5.84463 96.2895 6.04977 96.0844 6.3119C95.8792 6.56263 95.7197 6.85326 95.6057 7.18377C95.5031 7.51428 95.4518 7.85619 95.4518 8.20949C95.4518 8.5742 95.5145 8.91611 95.6399 9.23522C95.7652 9.55434 95.9362 9.83356 96.1527 10.0729C96.3807 10.3122 96.6428 10.5003 96.9391 10.637C97.2355 10.7738 97.5603 10.8422 97.9136 10.8422ZM112.8 12.6201H110.509V7.59406C110.509 6.87605 110.384 6.35179 110.133 6.02128C109.882 5.69077 109.535 5.52551 109.09 5.52551C108.862 5.52551 108.629 5.5711 108.389 5.66227C108.15 5.75345 107.922 5.88452 107.706 6.05547C107.501 6.21503 107.312 6.40878 107.142 6.63671C106.971 6.86465 106.845 7.11539 106.765 7.38891V12.6201H104.475V3.66211H106.543V5.32037C106.874 4.75052 107.352 4.30604 107.979 3.98692C108.606 3.66781 109.313 3.50825 110.099 3.50825C110.657 3.50825 111.113 3.61082 111.467 3.81597C111.82 4.02111 112.093 4.28894 112.287 4.61945C112.481 4.94996 112.612 5.32606 112.68 5.74775C112.76 6.16944 112.8 6.59682 112.8 7.02991V12.6201ZM8.60434 24.6621C8.52456 24.5823 8.3764 24.4741 8.15986 24.3373C7.95472 24.2005 7.69828 24.0695 7.39057 23.9441C7.09425 23.8073 6.76943 23.6934 6.41613 23.6022C6.06282 23.511 5.70382 23.4654 5.33911 23.4654C4.68949 23.4654 4.20512 23.5851 3.886 23.8244C3.56689 24.0638 3.40733 24.4 3.40733 24.8331C3.40733 25.0838 3.46431 25.2946 3.57828 25.4656C3.70365 25.6252 3.8803 25.7676 4.10824 25.893C4.33618 26.0183 4.62111 26.1323 4.96301 26.2349C5.31632 26.3375 5.72091 26.4457 6.17679 26.5597C6.76943 26.7193 7.30509 26.8902 7.78376 27.0726C8.27383 27.2549 8.68412 27.4829 9.01463 27.7564C9.35654 28.0299 9.61867 28.3604 9.80102 28.7479C9.98337 29.124 10.0745 29.5913 10.0745 30.1497C10.0745 30.7994 9.94918 31.3578 9.69845 31.8251C9.45911 32.281 9.1286 32.6514 8.70691 32.9363C8.29662 33.2212 7.81795 33.4321 7.2709 33.5688C6.73524 33.6942 6.17109 33.7569 5.57845 33.7569C4.66669 33.7569 3.76633 33.6201 2.87737 33.3466C1.98841 33.0731 1.19062 32.6856 0.48401 32.1841L1.52683 30.1497C1.6294 30.2523 1.81176 30.3891 2.07389 30.56C2.34741 30.7196 2.66653 30.8848 3.03123 31.0558C3.39593 31.2154 3.80052 31.3521 4.24501 31.4661C4.68949 31.5801 5.14537 31.637 5.61264 31.637C6.91189 31.637 7.56152 31.2211 7.56152 30.3891C7.56152 30.1269 7.48744 29.9047 7.33928 29.7224C7.19112 29.54 6.98028 29.3804 6.70675 29.2437C6.43322 29.1069 6.10271 28.9816 5.71521 28.8676C5.32772 28.7536 4.89463 28.6282 4.41596 28.4915C3.83472 28.3319 3.32755 28.161 2.89447 27.9786C2.47278 27.7849 2.11947 27.5626 1.83455 27.3119C1.54963 27.0498 1.33308 26.7534 1.18492 26.4229C1.04816 26.081 0.979777 25.6764 0.979777 25.2092C0.979777 24.5937 1.09375 24.0467 1.32169 23.568C1.54963 23.0893 1.86304 22.6904 2.26194 22.3713C2.67223 22.0522 3.1452 21.8129 3.68086 21.6533C4.21651 21.4824 4.79206 21.3969 5.4075 21.3969C6.26227 21.3969 7.04866 21.5336 7.76667 21.8072C8.48467 22.0693 9.11151 22.3827 9.64716 22.7474L8.60434 24.6621ZM16.9028 33.1585C16.5951 33.2953 16.219 33.4321 15.7745 33.5688C15.3301 33.7056 14.8628 33.774 14.3727 33.774C14.0536 33.774 13.7516 33.7341 13.4667 33.6543C13.1931 33.5745 12.9481 33.4492 12.7316 33.2782C12.5264 33.0959 12.3612 32.8679 12.2358 32.5944C12.1104 32.3095 12.0477 31.9676 12.0477 31.5687V26.4229H10.8682V24.6621H12.0477V21.7559H14.3385V24.6621H16.219V26.4229H14.3385V30.7994C14.3385 31.1185 14.4183 31.3464 14.5779 31.4832C14.7488 31.6086 14.954 31.6712 15.1933 31.6712C15.4326 31.6712 15.6663 31.6313 15.8942 31.5516C16.1221 31.4718 16.3045 31.4034 16.4413 31.3464L16.9028 33.1585ZM20.8312 33.7911C19.908 33.7911 19.2071 33.4948 18.7284 32.9021C18.2498 32.3095 18.0104 31.4319 18.0104 30.2694V24.6621H20.3012V29.7736C20.3012 31.1527 20.797 31.8422 21.7885 31.8422C22.233 31.8422 22.6604 31.7111 23.0707 31.449C23.4924 31.1755 23.8343 30.7652 24.0964 30.2181V24.6621H26.3872V30.9874C26.3872 31.2268 26.4271 31.3977 26.5069 31.5003C26.598 31.6029 26.7405 31.6598 26.9343 31.6712V33.6201C26.7063 33.6657 26.5126 33.6942 26.353 33.7056C26.2049 33.717 26.0681 33.7227 25.9427 33.7227C25.5324 33.7227 25.1962 33.6315 24.9341 33.4492C24.6834 33.2554 24.5352 32.9933 24.4896 32.6628L24.4383 31.9448C24.0394 32.5602 23.5266 33.0218 22.8997 33.3295C22.2729 33.6372 21.5834 33.7911 20.8312 33.7911ZM32.3734 33.7911C31.758 33.7911 31.1881 33.6714 30.6639 33.4321C30.1396 33.1927 29.6894 32.8622 29.3133 32.4405C28.9372 32.0188 28.6409 31.5288 28.4244 30.9703C28.2192 30.4005 28.1166 29.7907 28.1166 29.1411C28.1166 28.4915 28.2135 27.8874 28.4073 27.329C28.6124 26.7705 28.8916 26.2805 29.2449 25.8588C29.5983 25.4371 30.0199 25.1066 30.51 24.8673C31.0001 24.6279 31.5357 24.5082 32.117 24.5082C32.778 24.5082 33.3706 24.6678 33.8949 24.9869C34.4306 25.306 34.8465 25.722 35.1429 26.2349V21.1404H37.4337V30.9874C37.4337 31.2268 37.4735 31.3977 37.5533 31.5003C37.6331 31.6029 37.7699 31.6598 37.9636 31.6712V33.6201C37.5647 33.6999 37.2399 33.7398 36.9892 33.7398C36.5789 33.7398 36.2427 33.6372 35.9805 33.4321C35.7184 33.2269 35.5703 32.9591 35.5361 32.6286L35.4848 32.0644C35.1543 32.6343 34.7041 33.0674 34.1342 33.3637C33.5758 33.6486 32.9888 33.7911 32.3734 33.7911ZM32.9718 31.8422C33.1883 31.8422 33.4105 31.808 33.6385 31.7396C33.8664 31.6598 34.0773 31.5516 34.271 31.4148C34.4648 31.278 34.6357 31.1185 34.7839 30.9361C34.9434 30.7538 35.0631 30.5543 35.1429 30.3378V28.2009C35.0517 27.9501 34.9206 27.7222 34.7497 27.517C34.5901 27.3005 34.4021 27.1182 34.1855 26.97C33.9804 26.8104 33.7581 26.6851 33.5188 26.5939C33.2909 26.5027 33.0629 26.4571 32.835 26.4571C32.4931 26.4571 32.174 26.5312 31.8776 26.6794C31.5927 26.8275 31.3477 27.0327 31.1425 27.2948C30.9374 27.5455 30.7778 27.8362 30.6639 28.1667C30.5499 28.4972 30.4929 28.8391 30.4929 29.1924C30.4929 29.5685 30.5556 29.9161 30.681 30.2352C30.8063 30.5543 30.9773 30.8336 31.1938 31.0729C31.4104 31.3122 31.6668 31.5003 31.9631 31.637C32.2708 31.7738 32.607 31.8422 32.9718 31.8422ZM39.6822 33.6201V24.6621H41.973V33.6201H39.6822ZM39.6822 23.4141V21.1404H41.973V23.4141H39.6822ZM48.1767 33.7911C47.4473 33.7911 46.7919 33.6657 46.2107 33.415C45.6295 33.1642 45.1337 32.828 44.7234 32.4063C44.3245 31.9733 44.0168 31.4775 43.8002 30.919C43.5837 30.3606 43.4754 29.7736 43.4754 29.1582C43.4754 28.5314 43.5837 27.9387 43.8002 27.3803C44.0168 26.8218 44.3245 26.3318 44.7234 25.9101C45.1337 25.477 45.6295 25.1351 46.2107 24.8843C46.7919 24.6336 47.4473 24.5082 48.1767 24.5082C48.9061 24.5082 49.5557 24.6336 50.1256 24.8843C50.7068 25.1351 51.1969 25.477 51.5958 25.9101C52.006 26.3318 52.3195 26.8218 52.536 27.3803C52.7525 27.9387 52.8608 28.5314 52.8608 29.1582C52.8608 29.7736 52.7525 30.3606 52.536 30.919C52.3195 31.4775 52.0117 31.9733 51.6129 32.4063C51.214 32.828 50.7239 33.1642 50.1426 33.415C49.5614 33.6657 48.9061 33.7911 48.1767 33.7911ZM45.8346 29.1582C45.8346 29.5571 45.8916 29.9218 46.0056 30.2523C46.1309 30.5714 46.2962 30.8507 46.5013 31.09C46.7179 31.3293 46.9686 31.5174 47.2535 31.6541C47.5384 31.7795 47.8462 31.8422 48.1767 31.8422C48.5072 31.8422 48.8149 31.7795 49.0998 31.6541C49.3847 31.5174 49.6298 31.3293 49.8349 31.09C50.0515 30.8507 50.2167 30.5657 50.3307 30.2352C50.4561 29.9047 50.5187 29.54 50.5187 29.1411C50.5187 28.7536 50.4561 28.3946 50.3307 28.0641C50.2167 27.7336 50.0515 27.4487 49.8349 27.2093C49.6298 26.97 49.3847 26.7876 49.0998 26.6623C48.8149 26.5255 48.5072 26.4571 48.1767 26.4571C47.8462 26.4571 47.5384 26.5255 47.2535 26.6623C46.9686 26.799 46.7179 26.9871 46.5013 27.2264C46.2962 27.4658 46.1309 27.7507 46.0056 28.0812C45.8916 28.4117 45.8346 28.7707 45.8346 29.1582ZM57.7919 33.7911C57.0397 33.7911 56.3046 33.6714 55.5866 33.4321C54.8686 33.1927 54.2532 32.8508 53.7403 32.4063L54.5951 30.9703C55.1421 31.3578 55.6721 31.6541 56.1849 31.8593C56.7092 32.053 57.2278 32.1499 57.7406 32.1499C58.1965 32.1499 58.5555 32.0644 58.8176 31.8935C59.0798 31.7225 59.2108 31.4775 59.2108 31.1584C59.2108 30.8393 59.057 30.6056 58.7493 30.4575C58.4415 30.3093 57.9401 30.1383 57.2449 29.9446C56.6636 29.785 56.1679 29.6312 55.7576 29.483C55.3473 29.3349 55.0168 29.1696 54.766 28.9873C54.5153 28.7935 54.3329 28.577 54.219 28.3376C54.105 28.0869 54.048 27.7906 54.048 27.4487C54.048 26.9928 54.1335 26.5825 54.3044 26.2178C54.4868 25.8531 54.7375 25.5454 55.0566 25.2946C55.3758 25.0325 55.7462 24.8331 56.1679 24.6963C56.6009 24.5595 57.0682 24.4912 57.5697 24.4912C58.2421 24.4912 58.8689 24.588 59.4502 24.7818C60.0428 24.9755 60.5842 25.2889 61.0742 25.722L60.1511 27.1068C59.6952 26.7648 59.2507 26.5141 58.8176 26.3546C58.396 26.195 57.9743 26.1152 57.5526 26.1152C57.1651 26.1152 56.8403 26.195 56.5781 26.3546C56.316 26.5141 56.1849 26.7705 56.1849 27.1239C56.1849 27.2834 56.2134 27.4145 56.2704 27.517C56.3388 27.6196 56.4414 27.7108 56.5781 27.7906C56.7149 27.8704 56.8916 27.9501 57.1081 28.0299C57.336 28.0983 57.6153 28.1724 57.9458 28.2522C58.5612 28.4117 59.0855 28.5713 59.5186 28.7308C59.963 28.8904 60.322 29.0727 60.5956 29.2779C60.8805 29.483 61.0856 29.7224 61.211 29.9959C61.3478 30.258 61.4162 30.5771 61.4162 30.9532C61.4162 31.8308 61.0913 32.526 60.4417 33.0389C59.7921 33.5403 58.9088 33.7911 57.7919 33.7911Z" fill="#CCA351"/>
</svg>
