<svg width="231" height="81" viewBox="0 0 231 81" fill="none" xmlns="http://www.w3.org/2000/svg">
<path d="M41.3694 34V33.4937H41.9851C42.5233 33.4937 42.9338 33.4117 43.2166 33.2475C43.5084 33.0742 43.7228 32.8416 43.8596 32.5497C43.9417 32.3581 43.9828 31.7834 43.9828 30.8257V18.6209C43.9828 17.6723 43.9326 17.0794 43.8323 16.8422C43.7319 16.6051 43.5267 16.3998 43.2166 16.2265C42.9155 16.0441 42.5051 15.9529 41.9851 15.9529H41.3694V15.4466H49.6747C51.8912 15.4466 53.6745 15.7476 55.0245 16.3497C56.6755 17.0885 57.9252 18.2059 58.7735 19.7019C59.6309 21.1978 60.0596 22.8899 60.0596 24.778C60.0596 26.0824 59.8498 27.2865 59.4302 28.3902C59.0106 29.4848 58.4679 30.3924 57.802 31.113C57.1361 31.8245 56.3654 32.3992 55.4897 32.837C54.6231 33.2657 53.5605 33.5986 52.3017 33.8358C51.7453 33.9453 50.8696 34 49.6747 34H41.3694ZM48.4432 16.5002V30.9762C48.4432 31.7424 48.4797 32.2122 48.5527 32.3855C48.6257 32.5588 48.7488 32.691 48.9221 32.7823C49.1684 32.9191 49.5242 32.9875 49.9894 32.9875C51.5127 32.9875 52.6757 32.4676 53.4784 31.4277C54.573 30.023 55.1203 27.8429 55.1203 24.8875C55.1203 22.5068 54.7463 20.6049 53.9983 19.1819C53.4054 18.0691 52.6438 17.312 51.7133 16.9106C51.0566 16.6279 49.9666 16.491 48.4432 16.5002ZM65.2726 15.0088C65.8655 15.0088 66.3672 15.2186 66.7777 15.6382C67.1882 16.0486 67.3934 16.5458 67.3934 17.1296C67.3934 17.7133 67.1836 18.2105 66.764 18.6209C66.3535 19.0314 65.8564 19.2367 65.2726 19.2367C64.6889 19.2367 64.1917 19.0314 63.7813 18.6209C63.3708 18.2105 63.1655 17.7133 63.1655 17.1296C63.1655 16.5458 63.3708 16.0486 63.7813 15.6382C64.1917 15.2186 64.6889 15.0088 65.2726 15.0088ZM67.1882 21.2069V31.3456C67.1882 32.2486 67.2931 32.8279 67.5029 33.0833C67.7127 33.3296 68.1231 33.4709 68.7343 33.5074V34H61.8247V33.5074C62.3902 33.4892 62.8098 33.325 63.0834 33.0149C63.2659 32.8051 63.3571 32.2486 63.3571 31.3456V23.875C63.3571 22.972 63.2522 22.3973 63.0424 22.151C62.8326 21.8956 62.4267 21.7497 61.8247 21.7132V21.2069H67.1882ZM78.2025 21.3574H82.5125V22.8625H80.0633C80.5103 23.3095 80.8204 23.7154 80.9937 24.0802C81.2127 24.5728 81.3221 25.0882 81.3221 25.6264C81.3221 26.5385 81.0667 27.3321 80.5559 28.0071C80.0542 28.673 79.3655 29.1975 78.4899 29.5806C77.6233 29.9546 76.8525 30.1416 76.1775 30.1416C76.1228 30.1416 75.5755 30.1187 74.5356 30.0731C74.1252 30.0731 73.7785 30.21 73.4958 30.4836C73.2221 30.7481 73.0853 31.0674 73.0853 31.4414C73.0853 31.7698 73.2084 32.0389 73.4547 32.2486C73.7101 32.4584 74.1206 32.5633 74.6861 32.5633L77.0532 32.536C78.9687 32.536 80.2868 32.7458 81.0074 33.1654C82.0382 33.7492 82.5535 34.6476 82.5535 35.8608C82.5535 36.6361 82.3164 37.3385 81.8421 37.9679C81.3677 38.6064 80.7429 39.0762 79.9676 39.3772C78.7909 39.8242 77.4363 40.0476 75.9039 40.0476C74.7546 40.0476 73.7056 39.9336 72.7569 39.7056C71.8083 39.4867 71.1287 39.1765 70.7182 38.7752C70.3078 38.3829 70.1025 37.9679 70.1025 37.5301C70.1025 37.1105 70.2576 36.7319 70.5677 36.3944C70.887 36.066 71.4753 35.7878 72.3328 35.5598C71.147 34.976 70.5541 34.1642 70.5541 33.1243C70.5541 32.4949 70.7958 31.8838 71.2792 31.2909C71.7627 30.698 72.5289 30.1826 73.5779 29.7448C72.3556 29.2978 71.4708 28.7095 70.9235 27.9797C70.3762 27.25 70.1025 26.4062 70.1025 25.4485C70.1025 24.1988 70.6133 23.1179 71.635 22.2057C72.6566 21.2845 73.9701 20.8238 75.5755 20.8238C76.4238 20.8238 77.2995 21.0017 78.2025 21.3574ZM75.8355 21.6721C75.3064 21.6721 74.8595 21.9412 74.4946 22.4794C74.1297 23.0084 73.9473 24.1122 73.9473 25.7905C73.9473 27.1497 74.1252 28.0846 74.4809 28.5954C74.8458 29.0971 75.2745 29.348 75.7671 29.348C76.3144 29.348 76.7704 29.0971 77.1353 28.5954C77.5002 28.0937 77.6826 27.1177 77.6826 25.6674C77.6826 24.0346 77.4774 22.9218 77.0669 22.3289C76.775 21.891 76.3645 21.6721 75.8355 21.6721ZM75.0282 35.8882C74.0978 35.8882 73.4821 35.9657 73.1811 36.1208C72.6611 36.4035 72.4012 36.7867 72.4012 37.2701C72.4012 37.7353 72.6703 38.1549 73.2084 38.5289C73.7466 38.912 74.7591 39.1035 76.2459 39.1035C77.5139 39.1035 78.5081 38.9348 79.2287 38.5973C79.9584 38.2598 80.3233 37.7855 80.3233 37.1743C80.3233 36.9463 80.2549 36.7547 80.1181 36.5997C79.8718 36.326 79.4978 36.139 78.9961 36.0387C78.5035 35.9383 77.1809 35.8882 75.0282 35.8882ZM87.0824 15.0088C87.6753 15.0088 88.177 15.2186 88.5875 15.6382C88.998 16.0486 89.2032 16.5458 89.2032 17.1296C89.2032 17.7133 88.9934 18.2105 88.5738 18.6209C88.1633 19.0314 87.6662 19.2367 87.0824 19.2367C86.4987 19.2367 86.0015 19.0314 85.591 18.6209C85.1806 18.2105 84.9753 17.7133 84.9753 17.1296C84.9753 16.5458 85.1806 16.0486 85.591 15.6382C86.0015 15.2186 86.4987 15.0088 87.0824 15.0088ZM88.998 21.2069V31.3456C88.998 32.2486 89.1029 32.8279 89.3127 33.0833C89.5225 33.3296 89.9329 33.4709 90.5441 33.5074V34H83.6345V33.5074C84.2 33.4892 84.6196 33.325 84.8932 33.0149C85.0757 32.8051 85.1669 32.2486 85.1669 31.3456V23.875C85.1669 22.972 85.062 22.3973 84.8522 22.151C84.6424 21.8956 84.2365 21.7497 83.6345 21.7132V21.2069H88.998ZM96.8791 16.5275V21.2069H99.9166V22.5615H96.8791V30.4562C96.8791 31.1951 96.911 31.674 96.9748 31.8929C97.0478 32.1027 97.1709 32.276 97.3443 32.4128C97.5176 32.5405 97.6772 32.6044 97.8231 32.6044C98.416 32.6044 98.977 32.1529 99.5061 31.2498L99.9166 31.5508C99.1777 33.3022 97.9782 34.1779 96.3181 34.1779C95.5062 34.1779 94.8176 33.9544 94.252 33.5074C93.6956 33.0514 93.3399 32.5451 93.1848 31.9887C93.0936 31.6785 93.048 30.8394 93.048 29.4711V22.5615H91.3787V22.0826C92.528 21.2708 93.5041 20.4179 94.3068 19.524C95.1186 18.6301 95.8255 17.6312 96.4275 16.5275H96.8791ZM108.194 32.1118C106.635 33.4892 105.234 34.1779 103.994 34.1779C103.264 34.1779 102.658 33.9407 102.174 33.4664C101.691 32.9829 101.449 32.3809 101.449 31.6603C101.449 30.6843 101.869 29.8086 102.708 29.0333C103.547 28.2488 105.376 27.209 108.194 25.9137V24.6275C108.194 23.6606 108.14 23.0541 108.03 22.8078C107.93 22.5524 107.734 22.3334 107.442 22.151C107.15 21.9595 106.822 21.8637 106.457 21.8637C105.864 21.8637 105.376 21.9959 104.993 22.2605C104.756 22.4247 104.637 22.6162 104.637 22.8351C104.637 23.0267 104.765 23.2639 105.02 23.5466C105.367 23.9389 105.54 24.3174 105.54 24.6823C105.54 25.1292 105.371 25.5123 105.034 25.8316C104.705 26.1417 104.272 26.2968 103.734 26.2968C103.159 26.2968 102.676 26.1235 102.284 25.7769C101.901 25.4302 101.709 25.0243 101.709 24.5591C101.709 23.9024 101.969 23.2775 102.489 22.6846C103.009 22.0826 103.734 21.622 104.664 21.3027C105.595 20.9834 106.562 20.8238 107.565 20.8238C108.778 20.8238 109.736 21.0838 110.438 21.6037C111.15 22.1145 111.61 22.6709 111.82 23.273C111.948 23.6561 112.012 24.5363 112.012 25.9137V30.8804C112.012 31.4642 112.035 31.8336 112.08 31.9887C112.126 32.1346 112.194 32.2441 112.285 32.3171C112.377 32.39 112.482 32.4265 112.6 32.4265C112.837 32.4265 113.079 32.2578 113.325 31.9203L113.736 32.2486C113.28 32.9236 112.805 33.4162 112.313 33.7264C111.829 34.0274 111.278 34.1779 110.657 34.1779C109.928 34.1779 109.357 34.0091 108.947 33.6716C108.536 33.325 108.286 32.8051 108.194 32.1118ZM108.194 31.113V26.8304C107.091 27.478 106.27 28.1713 105.732 28.9101C105.376 29.4027 105.198 29.8998 105.198 30.4015C105.198 30.8211 105.348 31.1905 105.649 31.5098C105.878 31.7561 106.197 31.8792 106.607 31.8792C107.063 31.8792 107.592 31.6238 108.194 31.113ZM120.153 15.4466V31.3456C120.153 32.2486 120.258 32.8279 120.468 33.0833C120.677 33.3296 121.088 33.4709 121.699 33.5074V34H114.789V33.5074C115.355 33.4892 115.774 33.325 116.048 33.0149C116.231 32.8051 116.322 32.2486 116.322 31.3456V18.101C116.322 17.2071 116.217 16.637 116.007 16.3907C115.797 16.1353 115.391 15.9894 114.789 15.9529V15.4466H120.153ZM129.375 34V33.4937H129.991C130.529 33.4937 130.939 33.4117 131.222 33.2475C131.514 33.0742 131.728 32.8416 131.865 32.5497C131.947 32.3581 131.988 31.7834 131.988 30.8257V18.6209C131.988 17.6723 131.938 17.0794 131.838 16.8422C131.737 16.6051 131.532 16.3998 131.222 16.2265C130.921 16.0441 130.51 15.9529 129.991 15.9529H129.375V15.4466H137.68C139.897 15.4466 141.68 15.7476 143.03 16.3497C144.681 17.0885 145.931 18.2059 146.779 19.7019C147.636 21.1978 148.065 22.8899 148.065 24.778C148.065 26.0824 147.855 27.2865 147.436 28.3902C147.016 29.4848 146.473 30.3924 145.807 31.113C145.142 31.8245 144.371 32.3992 143.495 32.837C142.629 33.2657 141.566 33.5986 140.307 33.8358C139.751 33.9453 138.875 34 137.68 34H129.375ZM136.449 16.5002V30.9762C136.449 31.7424 136.485 32.2122 136.558 32.3855C136.631 32.5588 136.754 32.691 136.928 32.7823C137.174 32.9191 137.53 32.9875 137.995 32.9875C139.518 32.9875 140.681 32.4676 141.484 31.4277C142.578 30.023 143.126 27.8429 143.126 24.8875C143.126 22.5068 142.752 20.6049 142.004 19.1819C141.411 18.0691 140.649 17.312 139.719 16.9106C139.062 16.6279 137.972 16.491 136.449 16.5002ZM161.036 27.1451H154.017C154.099 28.8417 154.551 30.1826 155.371 31.1677C156.001 31.9248 156.758 32.3034 157.643 32.3034C158.19 32.3034 158.687 32.1529 159.134 31.8519C159.581 31.5417 160.06 30.9899 160.571 30.1963L161.036 30.4973C160.343 31.9111 159.577 32.9145 158.737 33.5074C157.898 34.0912 156.927 34.3831 155.823 34.3831C153.926 34.3831 152.489 33.6534 151.513 32.1939C150.729 31.0172 150.336 29.5578 150.336 27.8155C150.336 25.6811 150.911 23.9845 152.06 22.7257C153.219 21.4578 154.573 20.8238 156.124 20.8238C157.419 20.8238 158.541 21.3574 159.49 22.4247C160.448 23.4828 160.963 25.0562 161.036 27.1451ZM157.67 26.2284C157.67 24.7598 157.588 23.7519 157.424 23.2046C157.269 22.6573 157.022 22.2422 156.685 21.9595C156.493 21.7953 156.238 21.7132 155.919 21.7132C155.444 21.7132 155.057 21.9458 154.756 22.411C154.218 23.2228 153.948 24.3356 153.948 25.7495V26.2284H157.67ZM170.737 20.8512L170.942 25.2159H170.477C169.92 23.9206 169.341 23.0358 168.739 22.5615C168.146 22.0872 167.553 21.85 166.96 21.85C166.586 21.85 166.267 21.9777 166.003 22.2331C165.738 22.4794 165.606 22.7667 165.606 23.0951C165.606 23.3414 165.697 23.5785 165.88 23.8066C166.171 24.1806 166.988 24.8236 168.329 25.7358C169.67 26.6389 170.55 27.4096 170.969 28.0481C171.398 28.6775 171.613 29.3845 171.613 30.1689C171.613 30.8804 171.435 31.5782 171.079 32.2623C170.723 32.9465 170.221 33.4709 169.574 33.8358C168.926 34.2007 168.21 34.3831 167.426 34.3831C166.815 34.3831 165.998 34.1916 164.977 33.8084C164.703 33.7081 164.516 33.6579 164.416 33.6579C164.115 33.6579 163.864 33.886 163.663 34.3421H163.211L162.993 29.7448H163.458C163.868 30.9488 164.429 31.8519 165.141 32.4539C165.861 33.0559 166.541 33.3569 167.179 33.3569C167.617 33.3569 167.973 33.2247 168.247 32.9601C168.529 32.6865 168.671 32.3581 168.671 31.975C168.671 31.5372 168.534 31.1586 168.26 30.8394C167.987 30.5201 167.376 30.0367 166.427 29.389C165.031 28.4221 164.128 27.6833 163.718 27.1725C163.116 26.4245 162.815 25.599 162.815 24.6959C162.815 23.7108 163.152 22.8215 163.827 22.0279C164.511 21.2252 165.496 20.8238 166.783 20.8238C167.476 20.8238 168.146 20.9926 168.794 21.3301C169.04 21.4669 169.241 21.5353 169.396 21.5353C169.56 21.5353 169.692 21.5034 169.793 21.4395C169.893 21.3666 170.053 21.1704 170.272 20.8512H170.737ZM176.648 15.0088C177.241 15.0088 177.742 15.2186 178.153 15.6382C178.563 16.0486 178.768 16.5458 178.768 17.1296C178.768 17.7133 178.559 18.2105 178.139 18.6209C177.729 19.0314 177.231 19.2367 176.648 19.2367C176.064 19.2367 175.567 19.0314 175.156 18.6209C174.746 18.2105 174.541 17.7133 174.541 17.1296C174.541 16.5458 174.746 16.0486 175.156 15.6382C175.567 15.2186 176.064 15.0088 176.648 15.0088ZM178.563 21.2069V31.3456C178.563 32.2486 178.668 32.8279 178.878 33.0833C179.088 33.3296 179.498 33.4709 180.109 33.5074V34H173.2V33.5074C173.765 33.4892 174.185 33.325 174.458 33.0149C174.641 32.8051 174.732 32.2486 174.732 31.3456V23.875C174.732 22.972 174.627 22.3973 174.417 22.151C174.208 21.8956 173.802 21.7497 173.2 21.7132V21.2069H178.563ZM189.578 21.3574H193.887V22.8625H191.438C191.885 23.3095 192.195 23.7154 192.369 24.0802C192.588 24.5728 192.697 25.0882 192.697 25.6264C192.697 26.5385 192.442 27.3321 191.931 28.0071C191.429 28.673 190.741 29.1975 189.865 29.5806C188.998 29.9546 188.228 30.1416 187.553 30.1416C187.498 30.1416 186.951 30.1187 185.911 30.0731C185.5 30.0731 185.154 30.21 184.871 30.4836C184.597 30.7481 184.46 31.0674 184.46 31.4414C184.46 31.7698 184.583 32.0389 184.83 32.2486C185.085 32.4584 185.496 32.5633 186.061 32.5633L188.428 32.536C190.344 32.536 191.662 32.7458 192.382 33.1654C193.413 33.7492 193.929 34.6476 193.929 35.8608C193.929 36.6361 193.691 37.3385 193.217 37.9679C192.743 38.6064 192.118 39.0762 191.343 39.3772C190.166 39.8242 188.811 40.0476 187.279 40.0476C186.13 40.0476 185.081 39.9336 184.132 39.7056C183.183 39.4867 182.504 39.1765 182.093 38.7752C181.683 38.3829 181.478 37.9679 181.478 37.5301C181.478 37.1105 181.633 36.7319 181.943 36.3944C182.262 36.066 182.85 35.7878 183.708 35.5598C182.522 34.976 181.929 34.1642 181.929 33.1243C181.929 32.4949 182.171 31.8838 182.654 31.2909C183.138 30.698 183.904 30.1826 184.953 29.7448C183.731 29.2978 182.846 28.7095 182.298 27.9797C181.751 27.25 181.478 26.4062 181.478 25.4485C181.478 24.1988 181.988 23.1179 183.01 22.2057C184.032 21.2845 185.345 20.8238 186.951 20.8238C187.799 20.8238 188.674 21.0017 189.578 21.3574ZM187.21 21.6721C186.681 21.6721 186.234 21.9412 185.87 22.4794C185.505 23.0084 185.322 24.1122 185.322 25.7905C185.322 27.1497 185.5 28.0846 185.856 28.5954C186.221 29.0971 186.649 29.348 187.142 29.348C187.689 29.348 188.145 29.0971 188.51 28.5954C188.875 28.0937 189.058 27.1177 189.058 25.6674C189.058 24.0346 188.852 22.9218 188.442 22.3289C188.15 21.891 187.74 21.6721 187.21 21.6721ZM186.403 35.8882C185.473 35.8882 184.857 35.9657 184.556 36.1208C184.036 36.4035 183.776 36.7867 183.776 37.2701C183.776 37.7353 184.045 38.1549 184.583 38.5289C185.122 38.912 186.134 39.1035 187.621 39.1035C188.889 39.1035 189.883 38.9348 190.604 38.5973C191.333 38.2598 191.698 37.7855 191.698 37.1743C191.698 36.9463 191.63 36.7547 191.493 36.5997C191.247 36.326 190.873 36.139 190.371 36.0387C189.879 35.9383 188.556 35.8882 186.403 35.8882ZM200.606 21.2069V22.8625C201.262 22.151 201.892 21.6356 202.494 21.3164C203.096 20.988 203.743 20.8238 204.437 20.8238C205.267 20.8238 205.955 21.0564 206.503 21.5216C207.05 21.9777 207.415 22.5478 207.597 23.2319C207.743 23.7519 207.816 24.7507 207.816 26.2284V31.2088C207.816 32.1939 207.903 32.8096 208.076 33.0559C208.259 33.2931 208.633 33.4436 209.198 33.5074V34H202.726V33.5074C203.21 33.4436 203.556 33.2429 203.766 32.9054C203.912 32.6774 203.985 32.1118 203.985 31.2088V25.5169C203.985 24.4679 203.944 23.8066 203.862 23.5329C203.78 23.2593 203.639 23.0495 203.438 22.9035C203.246 22.7485 203.032 22.6709 202.795 22.6709C202.01 22.6709 201.281 23.2319 200.606 24.3539V31.2088C200.606 32.1666 200.692 32.7731 200.866 33.0285C201.048 33.284 201.381 33.4436 201.864 33.5074V34H195.393V33.5074C195.931 33.4527 196.314 33.2794 196.542 32.9875C196.697 32.7868 196.774 32.1939 196.774 31.2088V23.9845C196.774 23.0176 196.683 22.4155 196.501 22.1784C196.328 21.9412 195.958 21.7861 195.393 21.7132V21.2069H200.606ZM219.063 20.8512L219.268 25.2159H218.803C218.247 23.9206 217.668 23.0358 217.066 22.5615C216.473 22.0872 215.88 21.85 215.287 21.85C214.913 21.85 214.594 21.9777 214.329 22.2331C214.065 22.4794 213.932 22.7667 213.932 23.0951C213.932 23.3414 214.023 23.5785 214.206 23.8066C214.498 24.1806 215.314 24.8236 216.655 25.7358C217.996 26.6389 218.876 27.4096 219.296 28.0481C219.724 28.6775 219.939 29.3845 219.939 30.1689C219.939 30.8804 219.761 31.5782 219.405 32.2623C219.049 32.9465 218.548 33.4709 217.9 33.8358C217.253 34.2007 216.536 34.3831 215.752 34.3831C215.141 34.3831 214.324 34.1916 213.303 33.8084C213.029 33.7081 212.842 33.6579 212.742 33.6579C212.441 33.6579 212.19 33.886 211.989 34.3421H211.538L211.319 29.7448H211.784C212.195 30.9488 212.756 31.8519 213.467 32.4539C214.188 33.0559 214.867 33.3569 215.506 33.3569C215.944 33.3569 216.299 33.2247 216.573 32.9601C216.856 32.6865 216.997 32.3581 216.997 31.975C216.997 31.5372 216.86 31.1586 216.587 30.8394C216.313 30.5201 215.702 30.0367 214.753 29.389C213.358 28.4221 212.455 27.6833 212.044 27.1725C211.442 26.4245 211.141 25.599 211.141 24.6959C211.141 23.7108 211.479 22.8215 212.154 22.0279C212.838 21.2252 213.823 20.8238 215.109 20.8238C215.802 20.8238 216.473 20.9926 217.12 21.3301C217.367 21.4669 217.567 21.5353 217.722 21.5353C217.886 21.5353 218.019 21.5034 218.119 21.4395C218.219 21.3666 218.379 21.1704 218.598 20.8512H219.063ZM54.1625 47.0225L54.313 53.2069H53.752C53.4875 51.6562 52.8353 50.4111 51.7954 49.4716C50.7647 48.523 49.6473 48.0486 48.4432 48.0486C47.5128 48.0486 46.774 48.2995 46.2267 48.8012C45.6885 49.2937 45.4194 49.8639 45.4194 50.5115C45.4194 50.922 45.5152 51.2868 45.7068 51.6061C45.9713 52.0348 46.3954 52.459 46.9792 52.8785C47.4079 53.1796 48.3976 53.7132 49.9483 54.4794C52.1193 55.5466 53.5833 56.5546 54.3404 57.5032C55.0883 58.4519 55.4623 59.5373 55.4623 60.7596C55.4623 62.3103 54.8557 63.6466 53.6426 64.7686C52.4385 65.8814 50.9061 66.4378 49.0453 66.4378C48.4615 66.4378 47.9096 66.3785 47.3897 66.26C46.8698 66.1414 46.2176 65.9179 45.4331 65.5895C44.9953 65.4071 44.635 65.3159 44.3522 65.3159C44.115 65.3159 43.8642 65.4071 43.5997 65.5895C43.3351 65.772 43.1208 66.0502 42.9566 66.4242H42.4503V59.4187H42.9566C43.3579 61.389 44.1287 62.8941 45.2689 63.934C46.4182 64.9647 47.6542 65.4801 48.9769 65.4801C49.9985 65.4801 50.8103 65.2019 51.4123 64.6454C52.0235 64.089 52.3291 63.4414 52.3291 62.7025C52.3291 62.2647 52.2105 61.8405 51.9733 61.4301C51.7453 61.0196 51.3941 60.6319 50.9198 60.2671C50.4454 59.8931 49.6063 59.4096 48.4022 58.8167C46.7147 57.9867 45.5015 57.2797 44.7627 56.6959C44.0238 56.1122 43.4537 55.46 43.0524 54.7394C42.6601 54.0187 42.464 53.2252 42.464 52.3586C42.464 50.8809 43.0068 49.6221 44.0922 48.5823C45.1777 47.5424 46.5459 47.0225 48.197 47.0225C48.799 47.0225 49.3828 47.0954 49.9483 47.2414C50.377 47.3508 50.897 47.5561 51.5081 47.8571C52.1284 48.149 52.5617 48.2949 52.8079 48.2949C53.0451 48.2949 53.2321 48.222 53.3689 48.076C53.5057 47.9301 53.6334 47.5789 53.752 47.0225H54.1625ZM62.6182 48.5275V53.2069H65.6557V54.5615H62.6182V62.4562C62.6182 63.1951 62.6502 63.674 62.714 63.8929C62.787 64.1027 62.9101 64.276 63.0834 64.4128C63.2568 64.5405 63.4164 64.6044 63.5623 64.6044C64.1552 64.6044 64.7162 64.1529 65.2453 63.2498L65.6557 63.5508C64.9169 65.3022 63.7174 66.1779 62.0573 66.1779C61.2454 66.1779 60.5568 65.9544 59.9912 65.5074C59.4348 65.0514 59.0791 64.5451 58.924 63.9887C58.8328 63.6785 58.7872 62.8394 58.7872 61.4711V54.5615H57.1179V54.0826C58.2672 53.2708 59.2432 52.4179 60.0459 51.524C60.8578 50.6301 61.5647 49.6312 62.1667 48.5275H62.6182ZM79.2287 53.2069V63.2225C79.2287 64.1985 79.3199 64.8096 79.5024 65.0559C79.6848 65.2931 80.0542 65.4436 80.6106 65.5074V66H75.3976V64.2897C74.7865 65.0194 74.1753 65.553 73.5642 65.8905C72.953 66.2189 72.2689 66.3831 71.5118 66.3831C70.7912 66.3831 70.1481 66.1642 69.5826 65.7264C69.0262 65.2794 68.6522 64.7595 68.4606 64.1666C68.2691 63.5736 68.1733 62.5383 68.1733 61.0606V55.9845C68.1733 55.0176 68.0821 54.4155 67.8997 54.1784C67.7264 53.9412 67.3569 53.7861 66.7914 53.7132V53.2069H72.0044V61.95C72.0044 62.8622 72.0454 63.4505 72.1275 63.715C72.2187 63.9796 72.3556 64.1802 72.538 64.3171C72.7296 64.4539 72.9485 64.5223 73.1948 64.5223C73.5231 64.5223 73.8196 64.4356 74.0841 64.2623C74.449 64.0252 74.8868 63.5463 75.3976 62.8257V55.9845C75.3976 55.0176 75.3064 54.4155 75.124 54.1784C74.9507 53.9412 74.5812 53.7861 74.0157 53.7132V53.2069H79.2287ZM94.9088 47.4466V62.1689C94.9088 63.1632 94.9362 63.7515 94.9909 63.934C95.0639 64.235 95.2007 64.4584 95.4014 64.6044C95.6112 64.7503 95.9715 64.8416 96.4823 64.878V65.3296L91.0777 66.3831V64.3581C90.4301 65.1426 89.8508 65.6762 89.34 65.959C88.8383 66.2417 88.2682 66.3831 87.6297 66.3831C85.997 66.3831 84.7063 65.6534 83.7576 64.1939C82.9914 63.0081 82.6083 61.5532 82.6083 59.8292C82.6083 58.4519 82.8454 57.2204 83.3198 56.135C83.7941 55.0404 84.4417 54.2149 85.2627 53.6584C86.0927 53.102 86.9821 52.8238 87.9307 52.8238C88.5419 52.8238 89.0846 52.9424 89.559 53.1796C90.0333 53.4167 90.5395 53.8318 91.0777 54.4247V50.5662C91.0777 49.5902 91.0367 49.0019 90.9546 48.8012C90.8451 48.5367 90.6809 48.3405 90.462 48.2128C90.2431 48.0851 89.8326 48.0213 89.2306 48.0213V47.4466H94.9088ZM91.0777 56.1213C90.4027 54.826 89.5772 54.1784 88.6012 54.1784C88.2637 54.1784 87.9855 54.2696 87.7666 54.452C87.4291 54.7348 87.1508 55.2319 86.9319 55.9434C86.7221 56.6549 86.6172 57.7449 86.6172 59.2135C86.6172 60.828 86.7358 62.023 86.973 62.7983C87.2101 63.5736 87.534 64.1346 87.9444 64.4812C88.1542 64.6546 88.4416 64.7412 88.8064 64.7412C89.6091 64.7412 90.3662 64.1118 91.0777 62.853V56.1213ZM101.148 47.0088C101.741 47.0088 102.243 47.2186 102.653 47.6382C103.064 48.0486 103.269 48.5458 103.269 49.1296C103.269 49.7133 103.059 50.2105 102.639 50.6209C102.229 51.0314 101.732 51.2367 101.148 51.2367C100.564 51.2367 100.067 51.0314 99.6566 50.6209C99.2461 50.2105 99.0409 49.7133 99.0409 49.1296C99.0409 48.5458 99.2461 48.0486 99.6566 47.6382C100.067 47.2186 100.564 47.0088 101.148 47.0088ZM103.064 53.2069V63.3456C103.064 64.2486 103.168 64.8279 103.378 65.0833C103.588 65.3296 103.998 65.4709 104.61 65.5074V66H97.7V65.5074C98.2655 65.4892 98.6851 65.325 98.9588 65.0149C99.1412 64.8051 99.2324 64.2486 99.2324 63.3456V55.875C99.2324 54.972 99.1275 54.3973 98.9177 54.151C98.7079 53.8956 98.302 53.7497 97.7 53.7132V53.2069H103.064ZM111.902 52.8238C113.015 52.8238 114.051 53.1111 115.008 53.6858C115.966 54.2605 116.691 55.0769 117.184 56.135C117.685 57.1931 117.936 58.3515 117.936 59.6103C117.936 61.4255 117.476 62.9443 116.554 64.1666C115.442 65.6443 113.905 66.3831 111.943 66.3831C110.019 66.3831 108.536 65.7081 107.497 64.3581C106.457 63.0081 105.937 61.4437 105.937 59.665C105.937 57.8316 106.466 56.2353 107.524 54.8762C108.591 53.5079 110.051 52.8238 111.902 52.8238ZM111.957 53.7953C111.492 53.7953 111.091 53.9731 110.753 54.3289C110.425 54.6755 110.206 55.3687 110.096 56.4086C109.996 57.4394 109.946 58.876 109.946 60.7186C109.946 61.6946 110.01 62.6068 110.137 63.4551C110.238 64.1027 110.452 64.5953 110.78 64.9328C111.109 65.2703 111.483 65.439 111.902 65.439C112.313 65.439 112.655 65.325 112.929 65.097C113.284 64.7868 113.521 64.3535 113.64 63.7971C113.822 62.9306 113.914 61.1792 113.914 58.5431C113.914 56.9924 113.827 55.9297 113.654 55.3551C113.48 54.7713 113.225 54.3471 112.887 54.0826C112.65 53.891 112.34 53.7953 111.957 53.7953Z" fill="black"/>
<mask id="mask0_197_61" style="mask-type:alpha" maskUnits="userSpaceOnUse" x="0" y="14" width="54" height="54">
<circle cx="27" cy="41" r="27" fill="black"/>
</mask>
<g mask="url(#mask0_197_61)">
<rect y="1.26416" width="27" height="77.434" fill="black"/>
</g>
</svg>
