<svg width="11" height="10" viewBox="0 0 11 10" fill="none" xmlns="http://www.w3.org/2000/svg">
<path d="M2.03745 2.36252L4.17495 4.50002V8.30002M9.16245 2.36252L7.02495 4.50002V8.30002M2.03745 3.07502C2.22642 3.07502 2.40764 2.99996 2.54126 2.86634C2.67488 2.73272 2.74995 2.55149 2.74995 2.36252C2.74995 2.17356 2.67488 1.99233 2.54126 1.85871C2.40764 1.72509 2.22642 1.65002 2.03745 1.65002C1.84848 1.65002 1.66726 1.72509 1.53364 1.85871C1.40002 1.99233 1.32495 2.17356 1.32495 2.36252C1.32495 2.55149 1.40002 2.73272 1.53364 2.86634C1.66726 2.99996 1.84848 3.07502 2.03745 3.07502ZM9.16245 3.07502C8.97348 3.07502 8.79226 2.99996 8.65864 2.86634C8.52502 2.73272 8.44995 2.55149 8.44995 2.36252C8.44995 2.17356 8.52502 1.99233 8.65864 1.85871C8.79226 1.72509 8.97348 1.65002 9.16245 1.65002C9.35142 1.65002 9.53265 1.72509 9.66627 1.85871C9.79989 1.99233 9.87495 2.17356 9.87495 2.36252C9.87495 2.55149 9.79989 2.73272 9.66627 2.86634C9.53265 2.99996 9.35142 3.07502 9.16245 3.07502Z" stroke="#CCA351" stroke-width="1.425" stroke-linecap="round" stroke-linejoin="round"/>
</svg>
