<svg width="50" height="50" viewBox="0 0 50 50" fill="none" xmlns="http://www.w3.org/2000/svg">
<rect width="50" height="50" rx="10" fill="#CCA351"/>
<path d="M25.5 19.6094C28.4531 19.6094 30.8906 22.0469 30.8906 25C30.8906 28 28.4531 30.3906 25.5 30.3906C22.5 30.3906 20.1094 28 20.1094 25C20.1094 22.0469 22.5 19.6094 25.5 19.6094ZM25.5 28.5156C27.4219 28.5156 28.9688 26.9688 28.9688 25C28.9688 23.0781 27.4219 21.5312 25.5 21.5312C23.5312 21.5312 21.9844 23.0781 21.9844 25C21.9844 26.9688 23.5781 28.5156 25.5 28.5156ZM32.3438 19.4219C32.3438 18.7188 31.7812 18.1562 31.0781 18.1562C30.375 18.1562 29.8125 18.7188 29.8125 19.4219C29.8125 20.125 30.375 20.6875 31.0781 20.6875C31.7812 20.6875 32.3438 20.125 32.3438 19.4219ZM35.9062 20.6875C36 22.4219 36 27.625 35.9062 29.3594C35.8125 31.0469 35.4375 32.5 34.2188 33.7656C33 34.9844 31.5 35.3594 29.8125 35.4531C28.0781 35.5469 22.875 35.5469 21.1406 35.4531C19.4531 35.3594 18 34.9844 16.7344 33.7656C15.5156 32.5 15.1406 31.0469 15.0469 29.3594C14.9531 27.625 14.9531 22.4219 15.0469 20.6875C15.1406 19 15.5156 17.5 16.7344 16.2812C18 15.0625 19.4531 14.6875 21.1406 14.5938C22.875 14.5 28.0781 14.5 29.8125 14.5938C31.5 14.6875 33 15.0625 34.2188 16.2812C35.4375 17.5 35.8125 19 35.9062 20.6875ZM33.6562 31.1875C34.2188 29.8281 34.0781 26.5469 34.0781 25C34.0781 23.5 34.2188 20.2188 33.6562 18.8125C33.2812 17.9219 32.5781 17.1719 31.6875 16.8438C30.2812 16.2812 27 16.4219 25.5 16.4219C23.9531 16.4219 20.6719 16.2812 19.3125 16.8438C18.375 17.2188 17.6719 17.9219 17.2969 18.8125C16.7344 20.2188 16.875 23.5 16.875 25C16.875 26.5469 16.7344 29.8281 17.2969 31.1875C17.6719 32.125 18.375 32.8281 19.3125 33.2031C20.6719 33.7656 23.9531 33.625 25.5 33.625C27 33.625 30.2812 33.7656 31.6875 33.2031C32.5781 32.8281 33.3281 32.125 33.6562 31.1875Z" fill="black"/>
</svg>
