<svg width="18" height="22" viewBox="0 0 18 22" fill="none" xmlns="http://www.w3.org/2000/svg">
<path d="M9 0.916748L16.5322 2.59058C16.7358 2.63583 16.9179 2.74913 17.0483 2.91179C17.1788 3.07444 17.25 3.27672 17.25 3.48525V12.64C17.2499 13.5454 17.0263 14.4368 16.5991 15.2351C16.1718 16.0334 15.554 16.7138 14.8007 17.216L9 21.0834L3.19933 17.216C2.44608 16.7139 1.82842 16.0336 1.40115 15.2355C0.973883 14.4374 0.750217 13.5462 0.75 12.6409V3.48525C0.750036 3.27672 0.821168 3.07444 0.951657 2.91179C1.08215 2.74913 1.26419 2.63583 1.46775 2.59058L9 0.916748ZM9 2.795L2.58333 4.22042V12.64C2.58334 13.2436 2.73236 13.8378 3.01716 14.37C3.30195 14.9022 3.71372 15.3558 4.21592 15.6907L9 18.8807L13.7841 15.6907C14.2861 15.3559 14.6978 14.9024 14.9826 14.3704C15.2674 13.8384 15.4165 13.2443 15.4167 12.6409V4.22042L9 2.795ZM13.081 7.53692L14.3781 8.83308L8.54442 14.6667L4.655 10.7773L5.95117 9.48117L8.5435 12.0735L13.081 7.53692Z" fill="#CCA351"/>
</svg>
