<svg width="311" height="27" viewBox="0 0 311 27" fill="none" xmlns="http://www.w3.org/2000/svg">
<path d="M0.215801 26.3652V0.574759H7.2991V10.3824L15.1452 0.574759H23.1366L13.7649 12.126L23.7905 26.3652H15.6538L9.26063 16.8845L7.2991 18.9187V26.3652H0.215801ZM43.6756 20.1901V26.3652H25.2954V0.574759H43.3487V6.74994H32.3787V10.3824H41.7504V16.1217H32.3787V20.1901H43.6756ZM65.3498 20.1901V26.3652H46.9695V0.574759H65.0229V6.74994H54.0528V10.3824H63.4246V16.1217H54.0528V20.1901H65.3498ZM75.727 13.6879V26.3652H68.6437V0.574759H74.165L84.5176 13.6879V0.574759H91.6009V26.3652H85.9705L75.727 13.6879ZM101.006 0.574759L106.055 18.1922L111.031 0.574759H118.478L109.578 26.3652H102.531L93.5227 0.574759H101.006ZM120.435 26.3652V0.574759H127.518V26.3652H120.435ZM147.583 9.00207C147.583 9.00207 147.377 8.88099 146.966 8.63882C146.554 8.39666 146.009 8.13028 145.331 7.83968C144.653 7.52487 143.914 7.24638 143.115 7.00421C142.316 6.76205 141.529 6.64097 140.754 6.64097C140.149 6.64097 139.652 6.73783 139.265 6.93157C138.877 7.1253 138.684 7.45222 138.684 7.91233C138.684 8.34823 138.877 8.69936 139.265 8.96574C139.652 9.23212 140.197 9.47429 140.899 9.69224C141.626 9.91018 142.485 10.1766 143.478 10.4914C145.077 10.9757 146.457 11.5327 147.619 12.1623C148.782 12.7919 149.678 13.6032 150.307 14.5961C150.937 15.5647 151.252 16.8603 151.252 18.4828C151.252 20.0326 150.973 21.3403 150.416 22.4059C149.859 23.4472 149.109 24.2826 148.164 24.9122C147.22 25.5419 146.166 26.002 145.004 26.2926C143.842 26.559 142.655 26.6922 141.444 26.6922C140.209 26.6922 138.914 26.5711 137.557 26.3289C136.226 26.0625 134.93 25.7114 133.671 25.2755C132.411 24.8154 131.261 24.2826 130.22 23.6772L133.271 17.4657C133.271 17.4657 133.513 17.611 133.998 17.9016C134.482 18.1922 135.124 18.5191 135.923 18.8824C136.722 19.2456 137.606 19.5725 138.575 19.8631C139.567 20.1537 140.56 20.299 141.553 20.299C142.328 20.299 142.861 20.2022 143.151 20.0084C143.466 19.7905 143.624 19.512 143.624 19.173C143.624 18.6644 143.357 18.277 142.825 18.0106C142.292 17.72 141.589 17.4536 140.718 17.2114C139.87 16.9451 138.926 16.6423 137.884 16.3033C136.383 15.7948 135.148 15.2257 134.179 14.5961C133.211 13.9422 132.496 13.1794 132.036 12.3076C131.576 11.4116 131.346 10.334 131.346 9.07472C131.346 7.16162 131.794 5.56334 132.69 4.27987C133.586 2.9964 134.76 2.02774 136.213 1.3739C137.691 0.695841 139.277 0.356812 140.972 0.356812C142.231 0.356812 143.442 0.514218 144.604 0.829032C145.791 1.11963 146.893 1.48287 147.91 1.91877C148.951 2.35466 149.859 2.76634 150.634 3.15381L147.583 9.00207ZM154.383 26.3652V0.574759H161.466V26.3652H154.383ZM177.535 26.5832C175.574 26.5832 173.794 26.2199 172.196 25.4934C170.597 24.7427 169.217 23.7499 168.055 22.5148C166.916 21.2556 166.032 19.851 165.403 18.3012C164.797 16.7271 164.495 15.1046 164.495 13.4337C164.495 11.7143 164.822 10.0797 165.475 8.52985C166.129 6.98 167.037 5.59966 168.2 4.38884C169.386 3.15381 170.779 2.18515 172.377 1.48287C174 0.780598 175.767 0.42946 177.681 0.42946C179.642 0.42946 181.422 0.804815 183.02 1.55552C184.619 2.28202 185.987 3.27489 187.125 4.53414C188.263 5.7934 189.135 7.21005 189.74 8.78412C190.37 10.334 190.685 11.9323 190.685 13.579C190.685 15.2741 190.358 16.8966 189.704 18.4465C189.074 19.9963 188.166 21.3888 186.98 22.6238C185.817 23.8346 184.437 24.8033 182.839 25.5298C181.24 26.232 179.473 26.5832 177.535 26.5832ZM171.687 13.5063C171.687 14.3781 171.808 15.2257 172.05 16.049C172.292 16.8482 172.656 17.5747 173.14 18.2285C173.624 18.8581 174.23 19.3667 174.956 19.7542C175.707 20.1174 176.591 20.299 177.608 20.299C178.625 20.299 179.509 20.1053 180.26 19.7178C181.01 19.3304 181.616 18.8097 182.076 18.1559C182.56 17.4778 182.911 16.7392 183.129 15.9401C183.371 15.1167 183.492 14.2812 183.492 13.4337C183.492 12.5619 183.371 11.7264 183.129 10.9273C182.887 10.1281 182.524 9.41375 182.04 8.78412C181.555 8.13028 180.938 7.62173 180.187 7.25849C179.436 6.89524 178.564 6.71362 177.572 6.71362C176.554 6.71362 175.671 6.90735 174.92 7.29481C174.193 7.68228 173.588 8.20293 173.104 8.85677C172.619 9.4864 172.256 10.2129 172.014 11.0362C171.796 11.8354 171.687 12.6587 171.687 13.5063ZM200.77 13.6879V26.3652H193.687V0.574759H199.208L209.561 13.6879V0.574759H216.644V26.3652H211.014L200.77 13.6879ZM221.072 26.3652V0.574759H228.156V20.1901H239.852V26.3652H221.072ZM248.278 0.574759H256.197L264.406 26.3652H257.214L255.652 21.3161H248.787L247.261 26.3652H240.032L248.278 0.574759ZM254.526 16.5939L252.237 7.51276L249.84 16.5939H254.526ZM288.489 19.7542C288.489 21.304 288.065 22.5633 287.218 23.5319C286.394 24.5006 285.28 25.215 283.876 25.6751C282.471 26.1352 280.921 26.3652 279.226 26.3652H266.549V0.574759H281.515C282.726 0.574759 283.767 0.90168 284.639 1.55552C285.535 2.18515 286.213 3.00851 286.673 4.0256C287.157 5.04269 287.399 6.0961 287.399 7.18584C287.399 8.37244 287.085 9.52272 286.455 10.6367C285.849 11.7506 284.929 12.5861 283.694 13.1431C285.171 13.579 286.334 14.3418 287.181 15.4315C288.053 16.5213 288.489 17.9621 288.489 19.7542ZM281.297 18.3012C281.297 17.8653 281.212 17.4899 281.043 17.1751C280.897 16.8361 280.691 16.5697 280.425 16.376C280.159 16.1822 279.844 16.0854 279.481 16.0854H273.632V20.408H279.226C279.614 20.408 279.965 20.3232 280.28 20.1537C280.595 19.9842 280.837 19.742 281.006 19.4272C281.2 19.1124 281.297 18.7371 281.297 18.3012ZM273.632 6.60464V10.564H278.463C278.778 10.564 279.081 10.5156 279.372 10.4187C279.662 10.2976 279.904 10.0918 280.098 9.80121C280.292 9.51061 280.389 9.09893 280.389 8.56617C280.389 8.08185 280.304 7.70649 280.134 7.44011C279.989 7.14951 279.783 6.94367 279.517 6.82259C279.275 6.67729 278.996 6.60464 278.681 6.60464H273.632ZM307.248 9.00207C307.248 9.00207 307.042 8.88099 306.631 8.63882C306.219 8.39666 305.674 8.13028 304.996 7.83968C304.318 7.52487 303.579 7.24638 302.78 7.00421C301.981 6.76205 301.194 6.64097 300.419 6.64097C299.814 6.64097 299.317 6.73783 298.93 6.93157C298.542 7.1253 298.349 7.45222 298.349 7.91233C298.349 8.34823 298.542 8.69936 298.93 8.96574C299.317 9.23212 299.862 9.47429 300.564 9.69224C301.291 9.91018 302.151 10.1766 303.143 10.4914C304.742 10.9757 306.122 11.5327 307.284 12.1623C308.447 12.7919 309.343 13.6032 309.973 14.5961C310.602 15.5647 310.917 16.8603 310.917 18.4828C310.917 20.0326 310.638 21.3403 310.081 22.4059C309.525 23.4472 308.774 24.2826 307.829 24.9122C306.885 25.5419 305.832 26.002 304.669 26.2926C303.507 26.559 302.32 26.6922 301.109 26.6922C299.874 26.6922 298.579 26.5711 297.223 26.3289C295.891 26.0625 294.595 25.7114 293.336 25.2755C292.077 24.8154 290.926 24.2826 289.885 23.6772L292.936 17.4657C292.936 17.4657 293.178 17.611 293.663 17.9016C294.147 18.1922 294.789 18.5191 295.588 18.8824C296.387 19.2456 297.271 19.5725 298.24 19.8631C299.233 20.1537 300.225 20.299 301.218 20.299C301.993 20.299 302.526 20.2022 302.817 20.0084C303.131 19.7905 303.289 19.512 303.289 19.173C303.289 18.6644 303.022 18.277 302.49 18.0106C301.957 17.72 301.255 17.4536 300.383 17.2114C299.535 16.9451 298.591 16.6423 297.549 16.3033C296.048 15.7948 294.813 15.2257 293.844 14.5961C292.876 13.9422 292.161 13.1794 291.701 12.3076C291.241 11.4116 291.011 10.334 291.011 9.07472C291.011 7.16162 291.459 5.56334 292.355 4.27987C293.251 2.9964 294.426 2.02774 295.879 1.3739C297.356 0.695841 298.942 0.356812 300.637 0.356812C301.896 0.356812 303.107 0.514218 304.27 0.829032C305.456 1.11963 306.558 1.48287 307.575 1.91877C308.616 2.35466 309.525 2.76634 310.299 3.15381L307.248 9.00207Z" fill="black"/>
</svg>
