<svg width="137" height="13" viewBox="0 0 137 13" fill="none" xmlns="http://www.w3.org/2000/svg">
<path d="M0.372972 12.5684V0.447694H2.73214V6.20886L7.82658 0.430599H10.4251L5.77513 5.81566L10.7157 12.5684H8.06592L4.28783 7.32006L2.73214 8.94413V12.5684H0.372972ZM15.2901 12.7393C14.5721 12.7393 13.9224 12.6196 13.3412 12.3803C12.76 12.1296 12.2642 11.7934 11.8539 11.3717C11.4436 10.95 11.1245 10.4599 10.8965 9.90147C10.68 9.34302 10.5717 8.75608 10.5717 8.14064C10.5717 7.50241 10.68 6.90407 10.8965 6.34562C11.1131 5.77577 11.4265 5.28 11.8368 4.85832C12.2471 4.42523 12.7429 4.08332 13.3241 3.83259C13.9167 3.58186 14.5778 3.45649 15.3072 3.45649C16.0366 3.45649 16.6862 3.58186 17.2561 3.83259C17.8373 4.08332 18.3274 4.41953 18.7263 4.84122C19.1365 5.26291 19.4443 5.75298 19.6494 6.31143C19.866 6.86988 19.9742 7.45113 19.9742 8.05516C19.9742 8.20332 19.9685 8.34579 19.9571 8.48255C19.9571 8.61931 19.9457 8.73328 19.9229 8.82446H12.9993C13.0335 9.17776 13.119 9.49118 13.2557 9.76471C13.3925 10.0382 13.5691 10.2719 13.7857 10.4656C14.0022 10.6594 14.2473 10.8075 14.5208 10.9101C14.7943 11.0127 15.0792 11.064 15.3756 11.064C15.8314 11.064 16.2588 10.9557 16.6577 10.7391C17.068 10.5112 17.3472 10.2149 17.4954 9.85018L19.4614 10.3972C19.1309 11.0811 18.6009 11.6452 17.8715 12.0897C17.1535 12.5228 16.293 12.7393 15.2901 12.7393ZM17.6151 7.33716C17.5581 6.66474 17.3073 6.12908 16.8629 5.73018C16.4298 5.31989 15.8998 5.11475 15.273 5.11475C14.9653 5.11475 14.6746 5.17173 14.4011 5.2857C14.139 5.38828 13.9053 5.53644 13.7002 5.73018C13.4951 5.92393 13.3241 6.15757 13.1873 6.4311C13.062 6.70462 12.9879 7.00664 12.9651 7.33716H17.6151ZM25.524 12.7393C24.806 12.7393 24.1563 12.6196 23.5751 12.3803C22.9938 12.1296 22.4981 11.7934 22.0878 11.3717C21.6775 10.95 21.3584 10.4599 21.1304 9.90147C20.9139 9.34302 20.8056 8.75608 20.8056 8.14064C20.8056 7.50241 20.9139 6.90407 21.1304 6.34562C21.347 5.77577 21.6604 5.28 22.0707 4.85832C22.481 4.42523 22.9767 4.08332 23.558 3.83259C24.1506 3.58186 24.8117 3.45649 25.5411 3.45649C26.2705 3.45649 26.9201 3.58186 27.4899 3.83259C28.0712 4.08332 28.5613 4.41953 28.9601 4.84122C29.3704 5.26291 29.6782 5.75298 29.8833 6.31143C30.0998 6.86988 30.2081 7.45113 30.2081 8.05516C30.2081 8.20332 30.2024 8.34579 30.191 8.48255C30.191 8.61931 30.1796 8.73328 30.1568 8.82446H23.2332C23.2674 9.17776 23.3528 9.49118 23.4896 9.76471C23.6264 10.0382 23.803 10.2719 24.0196 10.4656C24.2361 10.6594 24.4811 10.8075 24.7547 10.9101C25.0282 11.0127 25.3131 11.064 25.6094 11.064C26.0653 11.064 26.4927 10.9557 26.8916 10.7391C27.3019 10.5112 27.5811 10.2149 27.7293 9.85018L29.6953 10.3972C29.3647 11.0811 28.8348 11.6452 28.1054 12.0897C27.3874 12.5228 26.5269 12.7393 25.524 12.7393ZM27.8489 7.33716C27.792 6.66474 27.5412 6.12908 27.0967 5.73018C26.6637 5.31989 26.1337 5.11475 25.5069 5.11475C25.1992 5.11475 24.9085 5.17173 24.635 5.2857C24.3729 5.38828 24.1392 5.53644 23.9341 5.73018C23.7289 5.92393 23.558 6.15757 23.4212 6.4311C23.2959 6.70462 23.2218 7.00664 23.199 7.33716H27.8489ZM39.9291 12.5684H37.6384V7.5423C37.6384 6.82429 37.513 6.30003 37.2623 5.96952C37.0115 5.63901 36.6639 5.47375 36.2194 5.47375C35.9915 5.47375 35.7579 5.51934 35.5185 5.61052C35.2792 5.70169 35.0512 5.83276 34.8347 6.00371C34.6296 6.16327 34.4415 6.35702 34.2706 6.58496C34.0996 6.8129 33.9742 7.06363 33.8945 7.33716V12.5684H31.6037V3.61035H33.6722V5.26861C34.0027 4.69876 34.4814 4.25428 35.1082 3.93516C35.7351 3.61605 36.4417 3.45649 37.2281 3.45649C37.7865 3.45649 38.2424 3.55906 38.5957 3.76421C38.949 3.96935 39.2225 4.23718 39.4163 4.56769C39.61 4.89821 39.7411 5.27431 39.8095 5.69599C39.8893 6.11768 39.9291 6.54507 39.9291 6.97815V12.5684ZM46.9138 0.430599L50.1962 9.61085L53.4443 0.430599H55.9231L51.1877 12.5684H49.2046L44.435 0.430599H46.9138ZM56.9964 12.5684V3.61035H59.2872V12.5684H56.9964ZM56.9964 2.36238V0.0886907H59.2872V2.36238H56.9964ZM64.7386 12.7393C63.9864 12.7393 63.2513 12.6196 62.5333 12.3803C61.8153 12.141 61.1999 11.7991 60.687 11.3546L61.5418 9.91857C62.0888 10.3061 62.6188 10.6024 63.1317 10.8075C63.6559 11.0013 64.1745 11.0982 64.6873 11.0982C65.1432 11.0982 65.5022 11.0127 65.7643 10.8417C66.0265 10.6708 66.1575 10.4257 66.1575 10.1066C66.1575 9.7875 66.0037 9.55386 65.696 9.4057C65.3883 9.25754 64.8868 9.08659 64.1916 8.89284C63.6103 8.73328 63.1146 8.57942 62.7043 8.43126C62.294 8.2831 61.9635 8.11785 61.7127 7.9355C61.462 7.74175 61.2796 7.52521 61.1657 7.28587C61.0517 7.03514 60.9947 6.73882 60.9947 6.39691C60.9947 5.94103 61.0802 5.53074 61.2512 5.16604C61.4335 4.80133 61.6842 4.49361 62.0034 4.24288C62.3225 3.98075 62.6929 3.7813 63.1146 3.64454C63.5476 3.50778 64.0149 3.4394 64.5164 3.4394C65.1888 3.4394 65.8156 3.53627 66.3969 3.73002C66.9895 3.92377 67.5309 4.23718 68.0209 4.67027L67.0978 6.055C66.6419 5.71309 66.1974 5.46236 65.7643 5.3028C65.3427 5.14324 64.921 5.06346 64.4993 5.06346C64.1118 5.06346 63.787 5.14324 63.5248 5.3028C63.2627 5.46236 63.1317 5.71879 63.1317 6.07209C63.1317 6.23165 63.1601 6.36272 63.2171 6.46529C63.2855 6.56786 63.3881 6.65904 63.5248 6.73882C63.6616 6.81859 63.8383 6.89837 64.0548 6.97815C64.2827 7.04653 64.562 7.12061 64.8925 7.20039C65.5079 7.35995 66.0322 7.51951 66.4653 7.67906C66.9097 7.83862 67.2687 8.02097 67.5423 8.22612C67.8272 8.43126 68.0323 8.6706 68.1577 8.94413C68.2945 9.20626 68.3629 9.52537 68.3629 9.90147C68.3629 10.779 68.038 11.4743 67.3884 11.9871C66.7388 12.4886 65.8555 12.7393 64.7386 12.7393ZM69.8514 12.5684V3.61035H72.1422V12.5684H69.8514ZM69.8514 2.36238V0.0886907H72.1422V2.36238H69.8514ZM78.3458 12.7393C77.6164 12.7393 76.9611 12.6139 76.3798 12.3632C75.7986 12.1125 75.3028 11.7763 74.8925 11.3546C74.4936 10.9215 74.1859 10.4257 73.9694 9.86728C73.7528 9.30883 73.6445 8.72189 73.6445 8.10645C73.6445 7.47962 73.7528 6.88698 73.9694 6.32853C74.1859 5.77007 74.4936 5.28 74.8925 4.85832C75.3028 4.42523 75.7986 4.08332 76.3798 3.83259C76.9611 3.58186 77.6164 3.45649 78.3458 3.45649C79.0752 3.45649 79.7248 3.58186 80.2947 3.83259C80.8759 4.08332 81.366 4.42523 81.7649 4.85832C82.1752 5.28 82.4886 5.77007 82.7051 6.32853C82.9217 6.88698 83.0299 7.47962 83.0299 8.10645C83.0299 8.72189 82.9217 9.30883 82.7051 9.86728C82.4886 10.4257 82.1809 10.9215 81.782 11.3546C81.3831 11.7763 80.893 12.1125 80.3118 12.3632C79.7305 12.6139 79.0752 12.7393 78.3458 12.7393ZM76.0037 8.10645C76.0037 8.50534 76.0607 8.87005 76.1747 9.20056C76.3 9.51967 76.4653 9.7989 76.6704 10.0382C76.887 10.2776 77.1377 10.4656 77.4226 10.6024C77.7076 10.7278 78.0153 10.7904 78.3458 10.7904C78.6763 10.7904 78.984 10.7278 79.2689 10.6024C79.5539 10.4656 79.7989 10.2776 80.004 10.0382C80.2206 9.7989 80.3858 9.51397 80.4998 9.18346C80.6252 8.85295 80.6879 8.48825 80.6879 8.08935C80.6879 7.70186 80.6252 7.34285 80.4998 7.01234C80.3858 6.68183 80.2206 6.39691 80.004 6.15757C79.7989 5.91823 79.5539 5.73588 79.2689 5.61052C78.984 5.47375 78.6763 5.40537 78.3458 5.40537C78.0153 5.40537 77.7076 5.47375 77.4226 5.61052C77.1377 5.74728 76.887 5.93533 76.6704 6.17467C76.4653 6.414 76.3 6.69893 76.1747 7.02944C76.0607 7.35995 76.0037 7.71895 76.0037 8.10645ZM92.9016 12.5684H90.6108V7.5423C90.6108 6.82429 90.4855 6.30003 90.2347 5.96952C89.984 5.63901 89.6364 5.47375 89.1919 5.47375C88.964 5.47375 88.7303 5.51934 88.491 5.61052C88.2517 5.70169 88.0237 5.83276 87.8072 6.00371C87.602 6.16327 87.414 6.35702 87.243 6.58496C87.0721 6.8129 86.9467 7.06363 86.8669 7.33716V12.5684H84.5761V3.61035H86.6447V5.26861C86.9752 4.69876 87.4539 4.25428 88.0807 3.93516C88.7075 3.61605 89.4141 3.45649 90.2005 3.45649C90.759 3.45649 91.2149 3.55906 91.5682 3.76421C91.9215 3.96935 92.195 4.23718 92.3888 4.56769C92.5825 4.89821 92.7136 5.27431 92.7819 5.69599C92.8617 6.11768 92.9016 6.54507 92.9016 6.97815V12.5684ZM99.2227 12.5684V0.430599H101.582V10.4998H107.77V12.5684H99.2227ZM111.429 12.7393C110.995 12.7393 110.591 12.6709 110.215 12.5342C109.839 12.386 109.514 12.1866 109.24 11.9358C108.967 11.6737 108.75 11.3717 108.591 11.0298C108.443 10.6879 108.368 10.3118 108.368 9.90147C108.368 9.47978 108.46 9.09229 108.642 8.73898C108.836 8.37428 109.098 8.06656 109.428 7.81583C109.77 7.56509 110.175 7.37135 110.642 7.23458C111.109 7.08642 111.622 7.01234 112.181 7.01234C112.58 7.01234 112.967 7.04653 113.343 7.11492C113.731 7.1833 114.073 7.28017 114.369 7.40554V6.89267C114.369 6.30003 114.198 5.84415 113.856 5.52504C113.526 5.20592 113.03 5.04637 112.369 5.04637C111.89 5.04637 111.423 5.13184 110.967 5.3028C110.511 5.47375 110.044 5.72449 109.565 6.055L108.864 4.60189C110.015 3.83829 111.258 3.45649 112.591 3.45649C113.879 3.45649 114.876 3.77561 115.583 4.41384C116.301 5.04067 116.66 5.95243 116.66 7.14911V9.93566C116.66 10.175 116.7 10.346 116.779 10.4485C116.871 10.5511 117.013 10.6081 117.207 10.6195V12.5684C116.819 12.6481 116.483 12.688 116.198 12.688C115.765 12.688 115.429 12.5912 115.19 12.3974C114.962 12.2037 114.819 11.9472 114.762 11.6281L114.711 11.1323C114.312 11.6566 113.828 12.0555 113.258 12.329C112.688 12.6026 112.078 12.7393 111.429 12.7393ZM112.078 11.064C112.466 11.064 112.83 10.9956 113.172 10.8588C113.526 10.7221 113.799 10.5397 113.993 10.3118C114.244 10.118 114.369 9.90147 114.369 9.66214V8.63641C114.095 8.53384 113.799 8.45406 113.48 8.39707C113.161 8.32869 112.853 8.2945 112.557 8.2945C111.964 8.2945 111.48 8.43126 111.104 8.70479C110.728 8.96692 110.54 9.30313 110.54 9.71342C110.54 10.1009 110.688 10.4257 110.984 10.6879C111.28 10.9386 111.645 11.064 112.078 11.064ZM123.895 12.7393C123.211 12.7393 122.601 12.5855 122.066 12.2777C121.53 11.97 121.108 11.5483 120.801 11.0127V12.5684H118.8V0.0886907H121.091V5.18313C121.41 4.63608 121.826 4.21439 122.339 3.91807C122.863 3.61035 123.473 3.45649 124.168 3.45649C124.75 3.45649 125.28 3.58186 125.758 3.83259C126.237 4.08332 126.647 4.41953 126.989 4.84122C127.342 5.26291 127.61 5.75868 127.793 6.32853C127.986 6.89837 128.083 7.49671 128.083 8.12355C128.083 8.77317 127.975 9.37721 127.758 9.93566C127.553 10.4941 127.263 10.9842 126.887 11.4059C126.51 11.8162 126.066 12.141 125.553 12.3803C125.04 12.6196 124.487 12.7393 123.895 12.7393ZM123.262 10.7904C123.627 10.7904 123.963 10.7221 124.271 10.5853C124.579 10.4371 124.841 10.2434 125.057 10.004C125.274 9.76471 125.439 9.48548 125.553 9.16637C125.678 8.84725 125.741 8.50534 125.741 8.14064C125.741 7.77594 125.684 7.42833 125.57 7.09782C125.456 6.76731 125.291 6.47669 125.074 6.22595C124.869 5.97522 124.624 5.77577 124.339 5.62761C124.054 5.47945 123.741 5.40537 123.399 5.40537C122.886 5.40537 122.425 5.57633 122.014 5.91823C121.615 6.24875 121.308 6.65904 121.091 7.14911V9.28604C121.171 9.51397 121.285 9.71912 121.433 9.90147C121.593 10.0838 121.769 10.2434 121.963 10.3801C122.157 10.5055 122.368 10.6081 122.596 10.6879C122.824 10.7562 123.046 10.7904 123.262 10.7904ZM133.02 12.7393C132.268 12.7393 131.533 12.6196 130.815 12.3803C130.097 12.141 129.481 11.7991 128.969 11.3546L129.823 9.91857C130.37 10.3061 130.9 10.6024 131.413 10.8075C131.937 11.0013 132.456 11.0982 132.969 11.0982C133.425 11.0982 133.784 11.0127 134.046 10.8417C134.308 10.6708 134.439 10.4257 134.439 10.1066C134.439 9.7875 134.285 9.55386 133.978 9.4057C133.67 9.25754 133.168 9.08659 132.473 8.89284C131.892 8.73328 131.396 8.57942 130.986 8.43126C130.576 8.2831 130.245 8.11785 129.994 7.9355C129.744 7.74175 129.561 7.52521 129.447 7.28587C129.333 7.03514 129.276 6.73882 129.276 6.39691C129.276 5.94103 129.362 5.53074 129.533 5.16604C129.715 4.80133 129.966 4.49361 130.285 4.24288C130.604 3.98075 130.974 3.7813 131.396 3.64454C131.829 3.50778 132.296 3.4394 132.798 3.4394C133.47 3.4394 134.097 3.53627 134.678 3.73002C135.271 3.92377 135.812 4.23718 136.303 4.67027L135.379 6.055C134.923 5.71309 134.479 5.46236 134.046 5.3028C133.624 5.14324 133.203 5.06346 132.781 5.06346C132.393 5.06346 132.069 5.14324 131.806 5.3028C131.544 5.46236 131.413 5.71879 131.413 6.07209C131.413 6.23165 131.442 6.36272 131.499 6.46529C131.567 6.56786 131.67 6.65904 131.806 6.73882C131.943 6.81859 132.12 6.89837 132.336 6.97815C132.564 7.04653 132.844 7.12061 133.174 7.20039C133.789 7.35995 134.314 7.51951 134.747 7.67906C135.191 7.83862 135.55 8.02097 135.824 8.22612C136.109 8.43126 136.314 8.6706 136.439 8.94413C136.576 9.20626 136.644 9.52537 136.644 9.90147C136.644 10.779 136.32 11.4743 135.67 11.9871C135.02 12.4886 134.137 12.7393 133.02 12.7393Z" fill="#CCA351"/>
</svg>
