<svg width="50" height="50" viewBox="0 0 50 50" fill="none" xmlns="http://www.w3.org/2000/svg">
<rect width="50" height="50" rx="10" fill="#CCA351"/>
<path d="M18.6875 34H14.3281V19.9844H18.6875V34ZM16.4844 18.1094C15.125 18.1094 14 16.9375 14 15.5312C14 13.6094 16.0625 12.3906 17.75 13.375C18.5469 13.7969 19.0156 14.6406 19.0156 15.5312C19.0156 16.9375 17.8906 18.1094 16.4844 18.1094ZM34.9531 34H30.6406V27.2031C30.6406 25.5625 30.5938 23.5 28.3438 23.5C26.0938 23.5 25.7656 25.2344 25.7656 27.0625V34H21.4062V19.9844H25.5781V21.9062H25.625C26.2344 20.8281 27.6406 19.6562 29.75 19.6562C34.1562 19.6562 35 22.5625 35 26.3125V34H34.9531Z" fill="black"/>
</svg>
