<svg width="215" height="35" viewBox="0 0 215 35" fill="none" xmlns="http://www.w3.org/2000/svg">
<path d="M15.1279 28.4608C13.0287 28.4608 11.0703 28.1152 9.2527 27.424C7.4607 26.7328 5.8991 25.76 4.5679 24.5056C3.2623 23.2512 2.2383 21.7792 1.4959 20.0896C0.779096 18.4 0.420696 16.5568 0.420696 14.56C0.420696 12.5632 0.779096 10.72 1.4959 9.03039C2.2383 7.34079 3.2751 5.86879 4.6063 4.61439C5.9375 3.35999 7.4991 2.38719 9.2911 1.69599C11.0831 1.00479 13.0287 0.659193 15.1279 0.659193C17.2527 0.659193 19.1983 1.00479 20.9647 1.69599C22.7567 2.38719 24.3055 3.35999 25.6111 4.61439C26.9423 5.84319 27.9791 7.30239 28.7215 8.99199C29.4639 10.6816 29.8351 12.5376 29.8351 14.56C29.8351 16.5568 29.4639 18.4128 28.7215 20.128C27.9791 21.8176 26.9423 23.2896 25.6111 24.544C24.3055 25.7728 22.7567 26.7328 20.9647 27.424C19.1983 28.1152 17.2527 28.4608 15.1279 28.4608ZM23.9215 34.1824C22.8719 34.1824 21.8735 34.0672 20.9263 33.8368C20.0047 33.6064 19.0831 33.2352 18.1615 32.7232C17.2655 32.2112 16.3183 31.52 15.3199 30.6496C14.3471 29.7792 13.2847 28.704 12.1327 27.424L18.6607 25.7728C19.3519 26.72 19.9919 27.4752 20.5807 28.0384C21.1695 28.6016 21.7327 28.9984 22.2703 29.2288C22.8335 29.4592 23.4223 29.5744 24.0367 29.5744C25.6751 29.5744 27.1343 28.9088 28.4143 27.5776L31.1791 30.88C29.3615 33.0816 26.9423 34.1824 23.9215 34.1824ZM15.1279 23.1616C16.3311 23.1616 17.4319 22.9568 18.4303 22.5472C19.4543 22.1376 20.3503 21.5488 21.1183 20.7808C21.8863 20.0128 22.4751 19.104 22.8847 18.0544C23.3199 16.9792 23.5375 15.8144 23.5375 14.56C23.5375 13.28 23.3199 12.1152 22.8847 11.0656C22.4751 10.016 21.8863 9.10719 21.1183 8.33919C20.3503 7.57119 19.4543 6.98239 18.4303 6.57279C17.4319 6.16319 16.3311 5.95839 15.1279 5.95839C13.9247 5.95839 12.8111 6.16319 11.7871 6.57279C10.7631 6.98239 9.8671 7.57119 9.0991 8.33919C8.3567 9.10719 7.7679 10.016 7.3327 11.0656C6.9231 12.1152 6.7183 13.28 6.7183 14.56C6.7183 15.8144 6.9231 16.9792 7.3327 18.0544C7.7679 19.104 8.3567 20.0128 9.0991 20.7808C9.8671 21.5488 10.7631 22.1376 11.7871 22.5472C12.8111 22.9568 13.9247 23.1616 15.1279 23.1616ZM34.5103 28V1.11999H47.6431C51.0223 1.11999 53.5567 1.75999 55.2463 3.03999C56.9615 4.31999 57.8191 6.00959 57.8191 8.1088C57.8191 9.51679 57.4735 10.7456 56.7823 11.7952C56.0911 12.8192 55.1439 13.6128 53.9407 14.176C52.7375 14.7392 51.3551 15.0208 49.7935 15.0208L50.5231 13.4464C52.2127 13.4464 53.7103 13.728 55.0159 14.2912C56.3215 14.8288 57.3327 15.6352 58.0495 16.7104C58.7919 17.7856 59.1631 19.104 59.1631 20.6656C59.1631 22.9696 58.2543 24.7744 56.4367 26.08C54.6191 27.36 51.9439 28 48.4111 28H34.5103ZM40.6927 23.3152H47.9503C49.5631 23.3152 50.7791 23.0592 51.5983 22.5472C52.4431 22.0096 52.8655 21.1648 52.8655 20.0128C52.8655 18.8864 52.4431 18.0544 51.5983 17.5168C50.7791 16.9536 49.5631 16.672 47.9503 16.672H40.2319V12.1408H46.8751C48.3855 12.1408 49.5375 11.8848 50.3311 11.3728C51.1503 10.8352 51.5599 10.0288 51.5599 8.95359C51.5599 7.90399 51.1503 7.12319 50.3311 6.61119C49.5375 6.07359 48.3855 5.80479 46.8751 5.80479H40.6927V23.3152ZM69.5944 11.9488H82.5352V16.7872H69.5944V11.9488ZM70.0552 23.008H84.6856V28H63.8728V1.11999H84.1864V6.11199H70.0552V23.008ZM99.0049 28.2304C96.8289 28.2304 94.9089 27.7824 93.2449 26.8864C91.6065 25.9904 90.3265 24.7616 89.4049 23.2C88.5089 21.6384 88.0609 19.8464 88.0609 17.824C88.0609 15.8016 88.4961 14.0096 89.3665 12.448C90.2625 10.8864 91.4785 9.6704 93.0145 8.8C94.5761 7.90399 96.3297 7.45599 98.2753 7.45599C100.247 7.45599 101.987 7.89119 103.498 8.76159C105.008 9.63199 106.186 10.8608 107.031 12.448C107.901 14.0096 108.336 15.84 108.336 17.9392C108.336 18.0928 108.323 18.272 108.298 18.4768C108.298 18.6816 108.285 18.8736 108.259 19.0528H90.9409V16.4032H106.339L104.842 17.3248C104.867 16.0192 104.599 14.8544 104.035 13.8304C103.472 12.8064 102.691 12.0128 101.693 11.4496C100.72 10.8608 99.5809 10.5664 98.2753 10.5664C96.9953 10.5664 95.8561 10.8608 94.8577 11.4496C93.8593 12.0128 93.0785 12.8192 92.5153 13.8688C91.9521 14.8928 91.6705 16.0704 91.6705 17.4016V18.016C91.6705 19.3728 91.9777 20.5888 92.5921 21.664C93.2321 22.7136 94.1153 23.5328 95.2417 24.1216C96.3681 24.7104 97.6609 25.0048 99.1201 25.0048C100.323 25.0048 101.411 24.8 102.384 24.3904C103.383 23.9808 104.253 23.3664 104.995 22.5472L107.031 24.928C106.109 26.0032 104.957 26.8224 103.575 27.3856C102.218 27.9488 100.695 28.2304 99.0049 28.2304ZM118.418 28L109.509 7.64799H113.349L121.259 26.08H119.416L127.48 7.64799H131.09L122.181 28H118.418ZM143.03 28.2304C140.854 28.2304 138.934 27.7824 137.27 26.8864C135.632 25.9904 134.352 24.7616 133.43 23.2C132.534 21.6384 132.086 19.8464 132.086 17.824C132.086 15.8016 132.521 14.0096 133.392 12.448C134.288 10.8864 135.504 9.6704 137.04 8.8C138.601 7.90399 140.355 7.45599 142.3 7.45599C144.272 7.45599 146.012 7.89119 147.523 8.76159C149.033 9.63199 150.211 10.8608 151.056 12.448C151.926 14.0096 152.361 15.84 152.361 17.9392C152.361 18.0928 152.348 18.272 152.323 18.4768C152.323 18.6816 152.31 18.8736 152.284 19.0528H134.966V16.4032H150.364L148.867 17.3248C148.892 16.0192 148.624 14.8544 148.06 13.8304C147.497 12.8064 146.716 12.0128 145.718 11.4496C144.745 10.8608 143.606 10.5664 142.3 10.5664C141.02 10.5664 139.881 10.8608 138.883 11.4496C137.884 12.0128 137.104 12.8192 136.54 13.8688C135.977 14.8928 135.696 16.0704 135.696 17.4016V18.016C135.696 19.3728 136.003 20.5888 136.617 21.664C137.257 22.7136 138.14 23.5328 139.267 24.1216C140.393 24.7104 141.686 25.0048 143.145 25.0048C144.348 25.0048 145.436 24.8 146.409 24.3904C147.408 23.9808 148.278 23.3664 149.02 22.5472L151.056 24.928C150.134 26.0032 148.982 26.8224 147.6 27.3856C146.243 27.9488 144.72 28.2304 143.03 28.2304ZM168.347 7.45599C170.011 7.45599 171.47 7.77599 172.725 8.41599C174.005 9.05599 175.003 10.0288 175.72 11.3344C176.437 12.64 176.795 14.2912 176.795 16.288V28H173.109V16.7104C173.109 14.7392 172.622 13.2544 171.65 12.256C170.702 11.2576 169.358 10.7584 167.618 10.7584C166.312 10.7584 165.173 11.0144 164.2 11.5264C163.227 12.0384 162.472 12.7936 161.934 13.792C161.422 14.7904 161.166 16.032 161.166 17.5168V28H157.48V7.64799H161.013V13.1392L160.437 11.68C161.102 10.3488 162.126 9.31199 163.509 8.56959C164.891 7.82719 166.504 7.45599 168.347 7.45599ZM190.606 28.2304C188.558 28.2304 186.971 27.68 185.845 26.5792C184.718 25.4784 184.155 23.904 184.155 21.856V3.19359H187.842V21.7024C187.842 22.8032 188.11 23.648 188.648 24.2368C189.211 24.8256 190.005 25.12 191.029 25.12C192.181 25.12 193.141 24.8 193.909 24.16L195.061 26.8096C194.498 27.296 193.819 27.6544 193.026 27.8848C192.258 28.1152 191.451 28.2304 190.606 28.2304ZM180.699 10.6816V7.64799H193.678V10.6816H180.699ZM205.354 28.2304C203.665 28.2304 202.052 28 200.516 27.5392C199.006 27.0784 197.815 26.5152 196.945 25.8496L198.481 22.9312C199.351 23.52 200.426 24.0192 201.706 24.4288C202.986 24.8384 204.292 25.0432 205.623 25.0432C207.338 25.0432 208.567 24.8 209.31 24.3136C210.078 23.8272 210.462 23.1488 210.462 22.2784C210.462 21.6384 210.231 21.1392 209.77 20.7808C209.31 20.4224 208.695 20.1536 207.927 19.9744C207.185 19.7952 206.353 19.6416 205.431 19.5136C204.51 19.36 203.588 19.1808 202.666 18.976C201.745 18.7456 200.9 18.4384 200.132 18.0544C199.364 17.6448 198.75 17.0944 198.289 16.4032C197.828 15.6864 197.598 14.7392 197.598 13.5616C197.598 12.3328 197.943 11.2576 198.634 10.336C199.326 9.41439 200.298 8.71039 201.553 8.22399C202.833 7.71199 204.343 7.45599 206.084 7.45599C207.415 7.45599 208.759 7.62239 210.116 7.95519C211.498 8.26239 212.625 8.71039 213.495 9.29919L211.921 12.2176C210.999 11.6032 210.039 11.1808 209.041 10.9504C208.042 10.72 207.044 10.6048 206.046 10.6048C204.433 10.6048 203.23 10.8736 202.436 11.4112C201.642 11.9232 201.246 12.5888 201.246 13.408C201.246 14.0992 201.476 14.6368 201.937 15.0208C202.423 15.3792 203.038 15.6608 203.78 15.8656C204.548 16.0704 205.393 16.2496 206.314 16.4032C207.236 16.5312 208.158 16.7104 209.079 16.9408C210.001 17.1456 210.833 17.44 211.575 17.824C212.343 18.208 212.958 18.7456 213.418 19.4368C213.905 20.128 214.148 21.0496 214.148 22.2016C214.148 23.4304 213.79 24.4928 213.073 25.3888C212.356 26.2848 211.345 26.9888 210.039 27.5008C208.734 27.9872 207.172 28.2304 205.354 28.2304Z" fill="black"/>
</svg>
