<svg width="42" height="42" viewBox="0 0 42 42" fill="none" xmlns="http://www.w3.org/2000/svg">
<path d="M21.6182 3.92216L21.6182 3.92213C21.6255 3.25161 21.6292 2.73629 21.6217 2.34081C21.6143 1.94599 21.5957 1.66754 21.5576 1.47208C21.5196 1.27735 21.4605 1.15464 21.363 1.08403C21.2668 1.01435 21.1437 1.00365 21.0025 1.00365C20.7916 1.00365 20.6288 1.08933 20.5215 1.26064C20.4451 1.37554 20.4062 1.53464 20.3879 1.91087L21.6182 3.92216ZM21.6182 3.92216C21.6085 4.78061 21.5938 5.38644 21.5706 5.78887C21.559 5.98994 21.5452 6.14152 21.5285 6.24894C21.5201 6.30258 21.5109 6.34656 21.5004 6.38076C21.4905 6.41307 21.4774 6.44381 21.4573 6.46395C21.4093 6.51195 21.3373 6.54421 21.2597 6.56473C21.1811 6.58553 21.0913 6.59565 21.0025 6.59565C20.9136 6.59565 20.8238 6.58553 20.7452 6.56473C20.6676 6.54421 20.5956 6.51195 20.5476 6.46395C20.5275 6.44381 20.5144 6.41307 20.5045 6.38076C20.494 6.34656 20.4848 6.30258 20.4764 6.24894C20.4597 6.14152 20.4459 5.98994 20.4343 5.78887C20.4111 5.38645 20.3964 4.78065 20.3867 3.92223L21.6182 3.92216Z" fill="black" stroke="black" stroke-width="0.1"/>
<path d="M11.011 3.68162L11.011 3.68161L11.0121 3.68113C11.0804 3.64957 11.163 3.62651 11.2421 3.61376C11.3206 3.6011 11.4 3.59789 11.4614 3.60905L11.4614 3.60895L11.4646 3.60974C11.4809 3.61382 11.4957 3.62265 11.508 3.63155C11.5209 3.6409 11.5343 3.65284 11.5482 3.66661C11.576 3.69417 11.6086 3.7321 11.6453 3.77909C11.719 3.87325 11.8129 4.00782 11.9247 4.17832C12.1485 4.51955 12.4465 5.00812 12.8027 5.61312L12.8029 5.6135C12.8648 5.72071 12.9239 5.82311 12.9804 5.92094C13.573 6.94718 13.8749 7.47007 14.0064 7.76803C14.0783 7.93085 14.104 8.03613 14.0918 8.1242C14.0812 8.2001 14.0421 8.25843 14.0006 8.3202C13.9944 8.32954 13.988 8.33895 13.9818 8.34852L13.9816 8.34882C13.7696 8.66674 13.2915 8.71238 13.0438 8.4222C13.0313 8.40798 13.0123 8.38085 12.989 8.34568C12.9648 8.30906 12.934 8.26072 12.8976 8.20224C12.8248 8.08524 12.7289 7.92671 12.6167 7.7382C12.3921 7.36113 12.1018 6.86339 11.7993 6.33647L11.7993 6.33638C11.2151 5.31416 10.8946 4.71849 10.7792 4.34993C10.7214 4.16539 10.7115 4.02753 10.755 3.91849C10.7991 3.80814 10.8929 3.73942 11.011 3.68162Z" fill="black" stroke="black" stroke-width="0.1"/>
<path d="M30.5042 3.6316L30.5042 3.63151L30.5071 3.63053C30.9085 3.49321 31.2951 3.75878 31.2951 4.17533C31.2951 4.18967 31.2918 4.20564 31.2878 4.22056C31.2836 4.23637 31.2776 4.25477 31.2701 4.27526C31.2551 4.31629 31.2335 4.36825 31.2062 4.42922C31.1517 4.5513 31.0736 4.71212 30.9791 4.89889C30.7901 5.27256 30.5343 5.75202 30.2671 6.23701C29.9999 6.72204 29.721 7.21301 29.4856 7.60972C29.2516 8.00411 29.0578 8.31023 28.9615 8.42187C28.847 8.55806 28.6672 8.61796 28.4944 8.61011C28.3217 8.60226 28.1476 8.52635 28.0441 8.37983C27.9983 8.31869 27.9578 8.25026 27.9285 8.18913C27.9138 8.15845 27.9016 8.12894 27.893 8.10258C27.8847 8.07721 27.8785 8.05111 27.8785 8.02852C27.8785 8.01306 27.8831 7.99586 27.8879 7.98114C27.8931 7.96491 27.9005 7.94564 27.9098 7.92392C27.9282 7.88039 27.9549 7.82414 27.9885 7.75747C28.0557 7.62397 28.1516 7.44607 28.2669 7.23932C28.4975 6.82568 28.8066 6.2948 29.1208 5.769C29.4349 5.2432 29.7543 4.72209 30.0057 4.328C30.1314 4.13102 30.2403 3.96535 30.3232 3.84657C30.3645 3.78727 30.3999 3.73901 30.4278 3.70419C30.4417 3.68685 30.4544 3.6721 30.4655 3.66075C30.4746 3.65138 30.4884 3.63811 30.5042 3.6316Z" fill="black" stroke="black" stroke-width="0.1"/>
<mask id="path-4-outside-1_164_84" maskUnits="userSpaceOnUse" x="10.2455" y="8" width="21" height="34" fill="black">
<rect fill="white" x="10.2455" y="8" width="21" height="34"/>
<path d="M19.9587 8.67228C17.1493 8.93567 14.4667 10.5745 12.8669 12.9937C12.2523 13.9204 11.9109 14.6423 11.5695 15.7836C11.228 16.9054 11.1403 19.0612 11.3841 20.2611C11.7548 22.0658 12.4962 23.5387 13.7546 24.9922C15.0032 26.4164 15.2568 26.7579 15.5397 27.3627C15.7055 27.6846 15.8616 28.1528 15.8909 28.3869C15.9494 28.7966 15.9397 28.8161 15.608 28.9332C15.169 29.0893 14.5837 29.6648 14.3594 30.1623C14.096 30.7476 14.1155 31.6938 14.4081 32.3279C14.6423 32.8352 15.2276 33.4009 15.6177 33.4985C15.7348 33.5375 15.8324 33.5765 15.8324 33.596C15.8324 33.6058 15.7348 33.7911 15.6177 33.996C15.4324 34.2984 15.3934 34.513 15.3934 35.1471C15.3934 35.8299 15.4324 35.986 15.6665 36.3957C15.9592 36.8932 16.603 37.42 17.0127 37.5077C17.2371 37.5468 17.2858 37.6151 17.3346 38.015C17.4809 39.0978 18.3101 40.1806 19.3929 40.7171C19.9294 40.9707 20.066 41 21.0025 41C21.9097 41 22.095 40.9707 22.5827 40.7366C23.646 40.2391 24.524 39.088 24.6703 38.015C24.7191 37.6151 24.7678 37.5468 24.9922 37.5077C25.4019 37.42 26.0457 36.8932 26.3384 36.3957C26.5725 35.986 26.6115 35.8299 26.6115 35.1471C26.6115 34.513 26.5725 34.2984 26.3969 33.996C26.2701 33.7911 26.1725 33.6058 26.1725 33.596C26.1725 33.5765 26.2701 33.5375 26.3969 33.4985C26.7773 33.4009 27.3626 32.8352 27.5968 32.3279C27.8894 31.6938 27.9089 30.7476 27.6455 30.1623C27.4212 29.6648 26.8359 29.0893 26.3969 28.9332C26.0652 28.8161 26.0555 28.7966 26.114 28.3869C26.2311 27.5285 26.7091 26.7774 28.2503 24.9922C29.5185 23.5387 30.2501 22.0658 30.6208 20.2611C30.8646 19.0417 30.7769 16.9152 30.4257 15.7348C29.2453 11.7841 26.0847 9.12101 22.0462 8.67228C21.5292 8.61375 21.0317 8.57473 20.9342 8.57473C20.8366 8.58449 20.3976 8.62351 19.9587 8.67228ZM23.3436 10.0282C26.3091 10.8866 28.66 13.2961 29.4502 16.3201C29.7233 17.3541 29.7038 19.5685 29.4112 20.5928C28.9624 22.1535 28.4259 23.09 27.0993 24.602C25.6653 26.2408 25.3044 26.8847 24.9629 28.3869C24.9044 28.6601 24.8947 28.6601 24.0752 28.6601H23.2461V25.4897V22.3194H24.1045C25.1971 22.3194 25.8701 22.1243 26.3872 21.656C27.7431 20.4367 27.4504 18.1931 25.8311 17.3932C25.5385 17.2468 25.2361 17.1981 24.6508 17.1981C23.9484 17.1981 23.8119 17.2273 23.3924 17.4907C22.4169 18.0955 22.0755 18.8564 22.0755 20.4172V21.2463H21.0122H19.9587L19.9099 20.144C19.8416 18.632 19.5392 18.0272 18.5735 17.4614C18.1833 17.2371 18.0175 17.1981 17.3444 17.1981C16.7688 17.1981 16.4664 17.2468 16.1738 17.3932C14.5545 18.1931 14.2618 20.4367 15.6177 21.656C16.1348 22.1243 16.8078 22.3194 17.9004 22.3194H18.7588V25.4897V28.6601H17.9297C17.1102 28.6601 17.1005 28.6601 17.0517 28.3869C16.7396 26.9627 16.3201 26.2213 14.8666 24.5532C12.9449 22.3682 12.2328 20.505 12.3499 18.037C12.4572 15.647 13.4131 13.6375 15.2276 11.9792C16.3103 10.9744 17.7833 10.2038 19.1978 9.89165C20.1928 9.66728 22.3681 9.74532 23.3436 10.0282ZM17.9394 18.4272C18.6027 18.7491 18.7588 19.0905 18.7588 20.2611V21.2463H18.0565C17.1102 21.2463 16.6323 21.1 16.2518 20.7001C15.7348 20.144 15.7055 19.3832 16.1933 18.7979C16.681 18.2223 17.2663 18.0955 17.9394 18.4272ZM25.4799 18.4857C25.9482 18.8369 26.1238 19.1783 26.1238 19.7148C26.1238 20.0855 26.0652 20.3099 25.8994 20.544C25.5482 21.0317 25.1678 21.1781 24.1533 21.2268L23.2461 21.2659V20.2709C23.2461 19.4319 23.2753 19.2173 23.4412 18.9539C23.8606 18.2809 24.8849 18.0467 25.4799 18.4857ZM22.0755 25.4897V28.6601H21.0025H19.9294V25.4897V22.3194H21.0025H22.0755V25.4897ZM26.0555 30.0257C27.0115 30.611 26.9724 31.9084 25.9774 32.4352C25.558 32.6596 25.5482 32.6596 21.0025 32.6596C16.4567 32.6596 16.4469 32.6596 16.0275 32.4352C15.0325 31.9084 14.9934 30.611 15.9494 30.0257C16.2616 29.8404 16.4567 29.8306 21.0025 29.8306C25.5482 29.8306 25.7433 29.8404 26.0555 30.0257ZM24.7776 33.8984C25.158 34.074 25.4604 34.4935 25.5482 34.9715C25.6458 35.469 25.2848 36.1128 24.7678 36.3567C24.3776 36.5518 24.1923 36.5615 21.0025 36.5615C17.8126 36.5615 17.6273 36.5518 17.2371 36.3567C16.2226 35.8689 16.203 34.3959 17.2078 33.8984C17.5004 33.7619 17.9687 33.7326 20.9829 33.7326C24.007 33.7326 24.4752 33.7521 24.7776 33.8984ZM23.6363 37.7516C23.6363 38.015 23.168 38.8734 22.8559 39.1758C22.3096 39.7319 21.8316 39.927 21.0025 39.927C20.1733 39.927 19.6953 39.7319 19.149 39.1758C18.8369 38.8734 18.3686 38.015 18.3686 37.7516C18.3686 37.6638 18.9637 37.6346 21.0025 37.6346C23.0412 37.6346 23.6363 37.6638 23.6363 37.7516Z"/>
</mask>
<path d="M19.9587 8.67228C17.1493 8.93567 14.4667 10.5745 12.8669 12.9937C12.2523 13.9204 11.9109 14.6423 11.5695 15.7836C11.228 16.9054 11.1403 19.0612 11.3841 20.2611C11.7548 22.0658 12.4962 23.5387 13.7546 24.9922C15.0032 26.4164 15.2568 26.7579 15.5397 27.3627C15.7055 27.6846 15.8616 28.1528 15.8909 28.3869C15.9494 28.7966 15.9397 28.8161 15.608 28.9332C15.169 29.0893 14.5837 29.6648 14.3594 30.1623C14.096 30.7476 14.1155 31.6938 14.4081 32.3279C14.6423 32.8352 15.2276 33.4009 15.6177 33.4985C15.7348 33.5375 15.8324 33.5765 15.8324 33.596C15.8324 33.6058 15.7348 33.7911 15.6177 33.996C15.4324 34.2984 15.3934 34.513 15.3934 35.1471C15.3934 35.8299 15.4324 35.986 15.6665 36.3957C15.9592 36.8932 16.603 37.42 17.0127 37.5077C17.2371 37.5468 17.2858 37.6151 17.3346 38.015C17.4809 39.0978 18.3101 40.1806 19.3929 40.7171C19.9294 40.9707 20.066 41 21.0025 41C21.9097 41 22.095 40.9707 22.5827 40.7366C23.646 40.2391 24.524 39.088 24.6703 38.015C24.7191 37.6151 24.7678 37.5468 24.9922 37.5077C25.4019 37.42 26.0457 36.8932 26.3384 36.3957C26.5725 35.986 26.6115 35.8299 26.6115 35.1471C26.6115 34.513 26.5725 34.2984 26.3969 33.996C26.2701 33.7911 26.1725 33.6058 26.1725 33.596C26.1725 33.5765 26.2701 33.5375 26.3969 33.4985C26.7773 33.4009 27.3626 32.8352 27.5968 32.3279C27.8894 31.6938 27.9089 30.7476 27.6455 30.1623C27.4212 29.6648 26.8359 29.0893 26.3969 28.9332C26.0652 28.8161 26.0555 28.7966 26.114 28.3869C26.2311 27.5285 26.7091 26.7774 28.2503 24.9922C29.5185 23.5387 30.2501 22.0658 30.6208 20.2611C30.8646 19.0417 30.7769 16.9152 30.4257 15.7348C29.2453 11.7841 26.0847 9.12101 22.0462 8.67228C21.5292 8.61375 21.0317 8.57473 20.9342 8.57473C20.8366 8.58449 20.3976 8.62351 19.9587 8.67228ZM23.3436 10.0282C26.3091 10.8866 28.66 13.2961 29.4502 16.3201C29.7233 17.3541 29.7038 19.5685 29.4112 20.5928C28.9624 22.1535 28.4259 23.09 27.0993 24.602C25.6653 26.2408 25.3044 26.8847 24.9629 28.3869C24.9044 28.6601 24.8947 28.6601 24.0752 28.6601H23.2461V25.4897V22.3194H24.1045C25.1971 22.3194 25.8701 22.1243 26.3872 21.656C27.7431 20.4367 27.4504 18.1931 25.8311 17.3932C25.5385 17.2468 25.2361 17.1981 24.6508 17.1981C23.9484 17.1981 23.8119 17.2273 23.3924 17.4907C22.4169 18.0955 22.0755 18.8564 22.0755 20.4172V21.2463H21.0122H19.9587L19.9099 20.144C19.8416 18.632 19.5392 18.0272 18.5735 17.4614C18.1833 17.2371 18.0175 17.1981 17.3444 17.1981C16.7688 17.1981 16.4664 17.2468 16.1738 17.3932C14.5545 18.1931 14.2618 20.4367 15.6177 21.656C16.1348 22.1243 16.8078 22.3194 17.9004 22.3194H18.7588V25.4897V28.6601H17.9297C17.1102 28.6601 17.1005 28.6601 17.0517 28.3869C16.7396 26.9627 16.3201 26.2213 14.8666 24.5532C12.9449 22.3682 12.2328 20.505 12.3499 18.037C12.4572 15.647 13.4131 13.6375 15.2276 11.9792C16.3103 10.9744 17.7833 10.2038 19.1978 9.89165C20.1928 9.66728 22.3681 9.74532 23.3436 10.0282ZM17.9394 18.4272C18.6027 18.7491 18.7588 19.0905 18.7588 20.2611V21.2463H18.0565C17.1102 21.2463 16.6323 21.1 16.2518 20.7001C15.7348 20.144 15.7055 19.3832 16.1933 18.7979C16.681 18.2223 17.2663 18.0955 17.9394 18.4272ZM25.4799 18.4857C25.9482 18.8369 26.1238 19.1783 26.1238 19.7148C26.1238 20.0855 26.0652 20.3099 25.8994 20.544C25.5482 21.0317 25.1678 21.1781 24.1533 21.2268L23.2461 21.2659V20.2709C23.2461 19.4319 23.2753 19.2173 23.4412 18.9539C23.8606 18.2809 24.8849 18.0467 25.4799 18.4857ZM22.0755 25.4897V28.6601H21.0025H19.9294V25.4897V22.3194H21.0025H22.0755V25.4897ZM26.0555 30.0257C27.0115 30.611 26.9724 31.9084 25.9774 32.4352C25.558 32.6596 25.5482 32.6596 21.0025 32.6596C16.4567 32.6596 16.4469 32.6596 16.0275 32.4352C15.0325 31.9084 14.9934 30.611 15.9494 30.0257C16.2616 29.8404 16.4567 29.8306 21.0025 29.8306C25.5482 29.8306 25.7433 29.8404 26.0555 30.0257ZM24.7776 33.8984C25.158 34.074 25.4604 34.4935 25.5482 34.9715C25.6458 35.469 25.2848 36.1128 24.7678 36.3567C24.3776 36.5518 24.1923 36.5615 21.0025 36.5615C17.8126 36.5615 17.6273 36.5518 17.2371 36.3567C16.2226 35.8689 16.203 34.3959 17.2078 33.8984C17.5004 33.7619 17.9687 33.7326 20.9829 33.7326C24.007 33.7326 24.4752 33.7521 24.7776 33.8984ZM23.6363 37.7516C23.6363 38.015 23.168 38.8734 22.8559 39.1758C22.3096 39.7319 21.8316 39.927 21.0025 39.927C20.1733 39.927 19.6953 39.7319 19.149 39.1758C18.8369 38.8734 18.3686 38.015 18.3686 37.7516C18.3686 37.6638 18.9637 37.6346 21.0025 37.6346C23.0412 37.6346 23.6363 37.6638 23.6363 37.7516Z" fill="black"/>
<path d="M19.9587 8.67228C17.1493 8.93567 14.4667 10.5745 12.8669 12.9937C12.2523 13.9204 11.9109 14.6423 11.5695 15.7836C11.228 16.9054 11.1403 19.0612 11.3841 20.2611C11.7548 22.0658 12.4962 23.5387 13.7546 24.9922C15.0032 26.4164 15.2568 26.7579 15.5397 27.3627C15.7055 27.6846 15.8616 28.1528 15.8909 28.3869C15.9494 28.7966 15.9397 28.8161 15.608 28.9332C15.169 29.0893 14.5837 29.6648 14.3594 30.1623C14.096 30.7476 14.1155 31.6938 14.4081 32.3279C14.6423 32.8352 15.2276 33.4009 15.6177 33.4985C15.7348 33.5375 15.8324 33.5765 15.8324 33.596C15.8324 33.6058 15.7348 33.7911 15.6177 33.996C15.4324 34.2984 15.3934 34.513 15.3934 35.1471C15.3934 35.8299 15.4324 35.986 15.6665 36.3957C15.9592 36.8932 16.603 37.42 17.0127 37.5077C17.2371 37.5468 17.2858 37.6151 17.3346 38.015C17.4809 39.0978 18.3101 40.1806 19.3929 40.7171C19.9294 40.9707 20.066 41 21.0025 41C21.9097 41 22.095 40.9707 22.5827 40.7366C23.646 40.2391 24.524 39.088 24.6703 38.015C24.7191 37.6151 24.7678 37.5468 24.9922 37.5077C25.4019 37.42 26.0457 36.8932 26.3384 36.3957C26.5725 35.986 26.6115 35.8299 26.6115 35.1471C26.6115 34.513 26.5725 34.2984 26.3969 33.996C26.2701 33.7911 26.1725 33.6058 26.1725 33.596C26.1725 33.5765 26.2701 33.5375 26.3969 33.4985C26.7773 33.4009 27.3626 32.8352 27.5968 32.3279C27.8894 31.6938 27.9089 30.7476 27.6455 30.1623C27.4212 29.6648 26.8359 29.0893 26.3969 28.9332C26.0652 28.8161 26.0555 28.7966 26.114 28.3869C26.2311 27.5285 26.7091 26.7774 28.2503 24.9922C29.5185 23.5387 30.2501 22.0658 30.6208 20.2611C30.8646 19.0417 30.7769 16.9152 30.4257 15.7348C29.2453 11.7841 26.0847 9.12101 22.0462 8.67228C21.5292 8.61375 21.0317 8.57473 20.9342 8.57473C20.8366 8.58449 20.3976 8.62351 19.9587 8.67228ZM23.3436 10.0282C26.3091 10.8866 28.66 13.2961 29.4502 16.3201C29.7233 17.3541 29.7038 19.5685 29.4112 20.5928C28.9624 22.1535 28.4259 23.09 27.0993 24.602C25.6653 26.2408 25.3044 26.8847 24.9629 28.3869C24.9044 28.6601 24.8947 28.6601 24.0752 28.6601H23.2461V25.4897V22.3194H24.1045C25.1971 22.3194 25.8701 22.1243 26.3872 21.656C27.7431 20.4367 27.4504 18.1931 25.8311 17.3932C25.5385 17.2468 25.2361 17.1981 24.6508 17.1981C23.9484 17.1981 23.8119 17.2273 23.3924 17.4907C22.4169 18.0955 22.0755 18.8564 22.0755 20.4172V21.2463H21.0122H19.9587L19.9099 20.144C19.8416 18.632 19.5392 18.0272 18.5735 17.4614C18.1833 17.2371 18.0175 17.1981 17.3444 17.1981C16.7688 17.1981 16.4664 17.2468 16.1738 17.3932C14.5545 18.1931 14.2618 20.4367 15.6177 21.656C16.1348 22.1243 16.8078 22.3194 17.9004 22.3194H18.7588V25.4897V28.6601H17.9297C17.1102 28.6601 17.1005 28.6601 17.0517 28.3869C16.7396 26.9627 16.3201 26.2213 14.8666 24.5532C12.9449 22.3682 12.2328 20.505 12.3499 18.037C12.4572 15.647 13.4131 13.6375 15.2276 11.9792C16.3103 10.9744 17.7833 10.2038 19.1978 9.89165C20.1928 9.66728 22.3681 9.74532 23.3436 10.0282ZM17.9394 18.4272C18.6027 18.7491 18.7588 19.0905 18.7588 20.2611V21.2463H18.0565C17.1102 21.2463 16.6323 21.1 16.2518 20.7001C15.7348 20.144 15.7055 19.3832 16.1933 18.7979C16.681 18.2223 17.2663 18.0955 17.9394 18.4272ZM25.4799 18.4857C25.9482 18.8369 26.1238 19.1783 26.1238 19.7148C26.1238 20.0855 26.0652 20.3099 25.8994 20.544C25.5482 21.0317 25.1678 21.1781 24.1533 21.2268L23.2461 21.2659V20.2709C23.2461 19.4319 23.2753 19.2173 23.4412 18.9539C23.8606 18.2809 24.8849 18.0467 25.4799 18.4857ZM22.0755 25.4897V28.6601H21.0025H19.9294V25.4897V22.3194H21.0025H22.0755V25.4897ZM26.0555 30.0257C27.0115 30.611 26.9724 31.9084 25.9774 32.4352C25.558 32.6596 25.5482 32.6596 21.0025 32.6596C16.4567 32.6596 16.4469 32.6596 16.0275 32.4352C15.0325 31.9084 14.9934 30.611 15.9494 30.0257C16.2616 29.8404 16.4567 29.8306 21.0025 29.8306C25.5482 29.8306 25.7433 29.8404 26.0555 30.0257ZM24.7776 33.8984C25.158 34.074 25.4604 34.4935 25.5482 34.9715C25.6458 35.469 25.2848 36.1128 24.7678 36.3567C24.3776 36.5518 24.1923 36.5615 21.0025 36.5615C17.8126 36.5615 17.6273 36.5518 17.2371 36.3567C16.2226 35.8689 16.203 34.3959 17.2078 33.8984C17.5004 33.7619 17.9687 33.7326 20.9829 33.7326C24.007 33.7326 24.4752 33.7521 24.7776 33.8984ZM23.6363 37.7516C23.6363 38.015 23.168 38.8734 22.8559 39.1758C22.3096 39.7319 21.8316 39.927 21.0025 39.927C20.1733 39.927 19.6953 39.7319 19.149 39.1758C18.8369 38.8734 18.3686 38.015 18.3686 37.7516C18.3686 37.6638 18.9637 37.6346 21.0025 37.6346C23.0412 37.6346 23.6363 37.6638 23.6363 37.7516Z" stroke="black" stroke-width="0.2" mask="url(#path-4-outside-1_164_84)"/>
<path d="M5.76957 12.9591L5.76954 12.9591C4.66478 12.3215 4.05907 11.96 3.76774 11.7021C3.62195 11.5731 3.54512 11.4619 3.53216 11.3465C3.51921 11.2313 3.57189 11.1261 3.64564 11.0154C3.7142 10.9089 3.79202 10.8273 3.90715 10.7929C4.02047 10.7591 4.16013 10.7741 4.3458 10.8356C4.71638 10.9583 5.30433 11.2786 6.3072 11.8579C6.82929 12.1555 7.32213 12.4434 7.69673 12.6667C7.88403 12.7784 8.0419 12.874 8.15914 12.9466C8.27483 13.0182 8.35423 13.0695 8.38155 13.0913L8.38158 13.0913L8.38324 13.0927C8.51444 13.2075 8.57157 13.3873 8.56242 13.5598C8.55328 13.7322 8.47747 13.9063 8.33095 14.0097C8.26981 14.0555 8.20137 14.096 8.14024 14.1253C8.10956 14.14 8.08005 14.1522 8.0537 14.1608C8.02832 14.1691 8.00222 14.1754 7.97963 14.1754C7.96967 14.1754 7.96074 14.1726 7.95725 14.1714C7.95209 14.1698 7.94647 14.1677 7.94077 14.1653C7.92926 14.1606 7.9146 14.154 7.89733 14.1457C7.86265 14.1291 7.81503 14.1048 7.75625 14.0739C7.63855 14.0121 7.47448 13.9229 7.27622 13.8131C6.87961 13.5934 6.34527 13.2908 5.76957 12.9591Z" fill="black" stroke="black" stroke-width="0.1"/>
<path d="M33.6032 13.1113L33.6032 13.1113C33.4743 13.2178 33.4258 13.3975 33.4401 13.5674C33.4544 13.7375 33.5323 13.9113 33.6741 14.0098C33.7352 14.0556 33.8035 14.0961 33.8646 14.1253C33.8953 14.14 33.9248 14.1522 33.9512 14.1608C33.9765 14.1691 34.0026 14.1754 34.0252 14.1754C34.0352 14.1754 34.0441 14.1726 34.0476 14.1714C34.0528 14.1698 34.0584 14.1677 34.0641 14.1653C34.0756 14.1606 34.0903 14.154 34.1075 14.1457C34.1422 14.1291 34.1898 14.1048 34.2486 14.0739C34.3663 14.0121 34.5304 13.9229 34.7286 13.8131C35.1252 13.5934 35.6596 13.2908 36.2353 12.9591L36.2353 12.9591C37.3401 12.3215 37.9458 11.96 38.2371 11.7021C38.3829 11.5731 38.4597 11.4619 38.4727 11.3465C38.4856 11.2312 38.4329 11.126 38.3591 11.0153M33.6032 13.1113L38.3174 11.0428M33.6032 13.1113L33.6043 13.1104C33.6288 13.0914 33.7047 13.0422 33.8172 12.9718C33.931 12.9006 34.0852 12.806 34.2688 12.6949C34.6361 12.4729 35.1217 12.185 35.6389 11.8873M33.6032 13.1113L35.664 11.9305M38.3591 11.0153C38.3591 11.0152 38.359 11.0152 38.359 11.0151L38.3174 11.0428M38.3591 11.0153C38.3592 11.0154 38.3592 11.0155 38.3593 11.0155L38.3174 11.0428M38.3591 11.0153C38.2878 10.9058 38.2061 10.8232 38.0866 10.7891C37.9691 10.7556 37.8245 10.7717 37.6333 10.8357C37.2517 10.9633 36.6516 11.2933 35.6389 11.8873M38.3174 11.0428C38.0442 10.6234 37.6931 10.7404 35.664 11.9305M35.6389 11.8873C35.639 11.8872 35.639 11.8872 35.6391 11.8872L35.664 11.9305M35.6389 11.8873C35.6389 11.8873 35.6388 11.8874 35.6387 11.8874L35.664 11.9305" fill="black" stroke="black" stroke-width="0.1"/>
<path d="M3.85393 20.4355L3.85383 20.4355C2.81553 20.4257 2.20421 20.4233 1.82938 20.4404C1.45801 20.4574 1.30659 20.4935 1.2003 20.5715C0.859225 20.8067 0.870362 21.3079 1.21147 21.5319C1.3264 21.6085 1.48542 21.6475 1.86216 21.6658L3.85393 20.4355ZM3.85393 20.4355C4.71726 20.4452 5.32795 20.4599 5.73404 20.4831C5.93692 20.4947 6.09001 20.5085 6.19848 20.5252C6.25263 20.5335 6.29701 20.5428 6.33149 20.5533C6.36399 20.5632 6.39501 20.5762 6.41524 20.5964C6.46323 20.6444 6.4955 20.7164 6.51601 20.794C6.53682 20.8727 6.54694 20.9624 6.54694 21.0513C6.54694 21.1401 6.53682 21.2299 6.51601 21.3085C6.4955 21.3861 6.46323 21.4581 6.41524 21.5061C6.3951 21.5262 6.36436 21.5393 6.33205 21.5492C6.29784 21.5597 6.25386 21.569 6.20023 21.5773C6.0928 21.594 5.94122 21.6078 5.74016 21.6194C5.33773 21.6426 4.73193 21.6573 3.87351 21.667L3.85393 20.4355Z" fill="black" stroke="black" stroke-width="0.1"/>
<path d="M35.7827 21.5955L35.7827 21.5955C35.8051 21.6041 35.8426 21.6105 35.8873 21.6162C35.9341 21.6221 35.9945 21.6277 36.0665 21.633C36.2107 21.6435 36.4035 21.653 36.6306 21.661C37.0848 21.6768 37.6781 21.6866 38.2979 21.6866C38.927 21.6866 39.4113 21.6842 39.7835 21.6719C40.1551 21.6597 40.4181 21.6377 40.6034 21.5977C40.7881 21.5577 40.9051 21.4979 40.9726 21.402C41.0392 21.3075 41.0501 21.188 41.0501 21.0513C41.0501 20.9148 41.0399 20.7953 40.9736 20.7008C40.9063 20.6049 40.789 20.5454 40.6031 20.5061C40.4167 20.4667 40.1512 20.4456 39.7751 20.4348L35.7827 21.5955ZM35.7827 21.5955L35.7823 21.5953M35.7827 21.5955L35.7823 21.5953M35.7823 21.5953C35.5502 21.5035 35.4317 21.278 35.4251 21.0577M35.7823 21.5953L35.4251 21.0577M35.4251 21.0577C35.4186 20.8374 35.5238 20.61 35.7524 20.5173M35.4251 21.0577L35.7524 20.5173M35.7524 20.5173C35.7743 20.5083 35.8112 20.5018 35.8543 20.4962C35.8999 20.4903 35.9593 20.4847 36.0303 20.4794C36.1726 20.4688 36.3638 20.4593 36.5903 20.4514C37.0434 20.4355 37.639 20.4258 38.2686 20.4258C38.2686 20.4258 38.2685 20.4258 38.2685 20.4258L35.7524 20.5173Z" fill="black" stroke="black" stroke-width="0.1"/>
<path d="M5.76954 29.1436L5.76957 29.1436C6.34527 28.8118 6.87961 28.5092 7.27622 28.2896C7.47448 28.1798 7.63855 28.0906 7.75625 28.0287C7.81503 27.9978 7.86265 27.9736 7.89733 27.957C7.9146 27.9487 7.92926 27.942 7.94077 27.9373C7.94647 27.935 7.95209 27.9328 7.95725 27.9312C7.96074 27.9301 7.96967 27.9273 7.97963 27.9273C8.00222 27.9273 8.02832 27.9335 8.0537 27.9418C8.08005 27.9504 8.10956 27.9626 8.14024 27.9773C8.20137 28.0066 8.2698 28.0471 8.33093 28.0929C8.47746 28.1963 8.55328 28.3704 8.56242 28.5428C8.57157 28.7153 8.51444 28.8951 8.38324 29.0099L8.38327 29.0099L8.38155 29.0113C8.35423 29.0332 8.27483 29.0844 8.15914 29.1561C8.0419 29.2287 7.88403 29.3242 7.69673 29.4359C7.32212 29.6592 6.82927 29.9471 6.30716 30.2448C5.30431 30.8241 4.71637 31.1443 4.3458 31.267C4.16013 31.3285 4.02047 31.3435 3.90715 31.3097C3.79202 31.2753 3.7142 31.1938 3.64564 31.0872C3.57189 30.9765 3.51921 30.8714 3.53216 30.7561C3.54512 30.6408 3.62195 30.5295 3.76774 30.4005C4.05907 30.1426 4.66478 29.7811 5.76954 29.1436Z" fill="black" stroke="black" stroke-width="0.1"/>
<path d="M33.6043 28.9922L33.6043 28.9923L33.6032 28.9913C33.4743 28.8848 33.4258 28.7051 33.4401 28.5352C33.4544 28.3652 33.5323 28.1914 33.6741 28.0928C33.7352 28.0471 33.8035 28.0066 33.8646 27.9773C33.8953 27.9626 33.9248 27.9504 33.9512 27.9418C33.9765 27.9335 34.0026 27.9273 34.0252 27.9273C34.0352 27.9273 34.0441 27.9301 34.0476 27.9312C34.0528 27.9328 34.0584 27.935 34.0641 27.9373C34.0756 27.942 34.0903 27.9487 34.1075 27.957C34.1422 27.9736 34.1898 27.9979 34.2486 28.0287C34.3663 28.0906 34.5304 28.1798 34.7286 28.2896C35.1252 28.5093 35.6596 28.8118 36.2353 29.1436L36.2353 29.1436C37.3401 29.7811 37.9458 30.1427 38.2371 30.4005C38.3829 30.5295 38.4597 30.6408 38.4727 30.7561C38.4856 30.8714 38.433 30.9765 38.3592 31.0872C38.2908 31.1936 38.2136 31.2753 38.0987 31.3094C37.9857 31.3429 37.8462 31.3272 37.66 31.2645C37.2883 31.1394 36.6956 30.8143 35.6781 30.2252C35.1511 29.9227 34.6559 29.6324 34.2813 29.4091C34.094 29.2974 33.9368 29.2025 33.8208 29.1312C33.7064 29.0607 33.629 29.0114 33.6043 28.9922Z" fill="black" stroke="black" stroke-width="0.1"/>
</svg>
