<svg width="40" height="40" viewBox="0 0 40 40" fill="none" xmlns="http://www.w3.org/2000/svg">
<path d="M19.3359 0.140728C19.2109 0.226665 19.0469 0.351665 18.9844 0.42979C18.9219 0.500103 18.414 1.46885 17.8515 2.5626L16.8359 4.57042L14.5781 4.89854C12.4375 5.21104 12.3047 5.24229 12.039 5.45323C11.5469 5.84385 11.3672 6.50792 11.5937 7.03917C11.664 7.21104 12.3203 7.91417 13.3281 8.90635L14.9531 10.4923L14.5703 12.7735L14.1797 15.0626L14.3359 15.4376C14.4453 15.6876 14.6015 15.8907 14.8047 16.0314C15.0859 16.2345 15.1719 16.2501 15.625 16.2267C16.1015 16.2032 16.2422 16.1407 18.0625 15.172L20 14.1485L21.9297 15.172C23.7344 16.1251 23.8984 16.1954 24.375 16.2267C24.8437 16.2579 24.9062 16.2423 25.2031 16.0314C25.4297 15.8673 25.5703 15.6798 25.6719 15.422L25.8125 15.047L25.4297 12.7657L25.0469 10.4845L26.7031 8.85948C28.1094 7.46885 28.3672 7.17979 28.4453 6.89073C28.5937 6.38292 28.4453 5.89854 28.0469 5.53135C27.6875 5.21104 27.7734 5.22667 24.9219 4.82042L23.164 4.57042L22.1484 2.5626C21.1094 0.507915 20.9765 0.296978 20.6094 0.109478C20.3047 -0.046772 19.6172 -0.031147 19.3359 0.140728ZM20.8594 3.73448C21.7109 5.48448 22.0234 5.95323 22.4453 6.08604C22.5859 6.13292 23.4687 6.27354 24.414 6.40635C25.3594 6.53917 26.2187 6.67198 26.3203 6.69542C26.4922 6.74229 26.375 6.8751 25.0156 8.19542C23.7109 9.46885 23.5156 9.69542 23.4375 9.99229C23.3594 10.297 23.3906 10.5782 23.6875 12.3595C23.8828 13.4689 24.0312 14.3751 24.0156 14.3751C24.0078 14.3751 23.1953 13.9532 22.2109 13.4376C20.5703 12.5782 20.3828 12.5001 20 12.5001C19.6094 12.5001 19.4297 12.5782 17.7969 13.4376C16.8125 13.9532 16 14.3751 15.9844 14.3751C15.9765 14.3751 16.1172 13.4689 16.3125 12.3595C16.6172 10.5704 16.6406 10.297 16.5625 9.99229C16.4844 9.69542 16.2812 9.46104 14.9765 8.19542C13.5078 6.76573 13.4844 6.73448 13.7109 6.6876C13.8437 6.66417 14.7031 6.53917 15.625 6.40635C16.5469 6.27354 17.414 6.1251 17.5547 6.08604C17.9765 5.95323 18.2969 5.48448 19.1406 3.72667C19.5937 2.79698 19.9765 2.03135 20 2.03135C20.0234 2.03917 20.4062 2.79698 20.8594 3.73448Z" fill="#CCA351"/>
<path d="M6.38285 2.85938C6.12504 3.11719 6.05473 3.42969 6.19535 3.75781C6.25785 3.90625 6.75004 4.45312 7.2891 4.97656C8.24223 5.91406 8.27348 5.9375 8.61723 5.9375C9.03129 5.9375 9.34379 5.67969 9.42191 5.27344C9.49223 4.89062 9.33598 4.67188 8.25785 3.60938C7.30473 2.67188 7.28129 2.65625 6.93754 2.65625C6.6641 2.65625 6.5391 2.70312 6.38285 2.85938Z" fill="#CCA351"/>
<path d="M31.7422 3.60938C30.6484 4.6875 30.5078 4.89062 30.5859 5.28906C30.6641 5.69531 30.9609 5.9375 31.3906 5.9375C31.7422 5.9375 31.7578 5.92969 32.7734 4.89844C33.4609 4.21094 33.8203 3.79688 33.8438 3.64844C33.9531 3.07812 33.6172 2.65625 33.0625 2.65625C32.7188 2.65625 32.6953 2.67188 31.7422 3.60938Z" fill="#CCA351"/>
<path d="M4.42973 7.53906C4.2188 7.75781 4.14067 8.01562 4.20317 8.32031C4.2188 8.42188 4.32817 8.60156 4.42973 8.71094L4.63286 8.90625H6.18755H7.75005L7.97661 8.67969C8.1563 8.5 8.20317 8.38281 8.20317 8.125C8.20317 7.86719 8.1563 7.75 7.97661 7.57031L7.75005 7.34375H6.18755H4.63286L4.42973 7.53906Z" fill="#CCA351"/>
<path d="M32.0234 7.57031C31.8438 7.75 31.7969 7.86719 31.7969 8.125C31.7969 8.38281 31.8438 8.5 32.0234 8.67969L32.25 8.90625H33.8125H35.3672L35.5781 8.70312C35.8672 8.40625 35.8672 7.84375 35.5781 7.54688L35.3672 7.34375H33.8125H32.25L32.0234 7.57031Z" fill="#CCA351"/>
<path d="M7.28906 11.2656C6.74999 11.7969 6.25781 12.3438 6.19531 12.4922C5.96093 13.0469 6.32812 13.5938 6.93749 13.5938C7.28124 13.5938 7.30468 13.5781 8.25781 12.6328C9.33593 11.5781 9.49218 11.3594 9.42187 10.9766C9.34374 10.5703 9.03124 10.3125 8.61718 10.3125C8.27343 10.3125 8.24218 10.3359 7.28906 11.2656Z" fill="#CCA351"/>
<path d="M30.836 10.5C30.5781 10.7422 30.4922 11.1562 30.6485 11.4531C30.7188 11.5781 31.2031 12.1094 31.7422 12.6328C32.6953 13.5781 32.7188 13.5938 33.0625 13.5938C33.4766 13.5938 33.7813 13.3516 33.8594 12.9609C33.9375 12.5625 33.7344 12.2734 32.711 11.2656C31.7578 10.3359 31.7266 10.3125 31.3828 10.3125C31.125 10.3125 30.9844 10.3594 30.836 10.5Z" fill="#CCA351"/>
<path d="M11.6094 18.0156L11.4062 18.2266V21.4531V24.6875H8.48438H5.57031L5.35938 24.8906L5.15625 25.1016V28.3281V31.5625H2.78125H0.414062L0.203125 31.7656L0 31.9766V35.7812V39.5859L0.203125 39.7969L0.414062 40H20H39.5859L39.7969 39.7969L40 39.5859V35.7812V31.9766L39.7969 31.7656L39.5859 31.5625H37.2188H34.8438V28.3281V25.1016L34.6406 24.8906L34.4297 24.6875H31.5156H28.5938V21.4531V18.2266L28.3906 18.0156L28.1797 17.8125H20H11.8203L11.6094 18.0156ZM27.0312 22.0312V24.6875H20H12.9688V22.0312V19.375H20H27.0312V22.0312ZM33.2812 28.9062V31.5625H31.8672H30.4531L30.2266 31.7891C30.0469 31.9688 30 32.0859 30 32.3438C30 32.6016 30.0469 32.7188 30.2266 32.8984L30.4531 33.125H34.4453H38.4375V35.7812V38.4375H20H1.5625V35.7812V33.125H13.1953H24.8203L25.0312 32.9219C25.3203 32.625 25.3203 32.0625 25.0312 31.7656L24.8203 31.5625H15.7734H6.71875V30.625V29.6875H10.2266H13.7266L13.9375 29.4844C14.2266 29.1875 14.2266 28.625 13.9375 28.3281L13.7266 28.125H10.2266H6.71875V27.1875V26.25H20H33.2812V28.9062Z" fill="#CCA351"/>
<path d="M16.2969 28.3281C16.1328 28.4922 16.0938 28.6094 16.0938 28.9062C16.0938 29.2031 16.1328 29.3203 16.2969 29.4844C16.4609 29.6484 16.5781 29.6875 16.875 29.6875C17.1719 29.6875 17.2891 29.6484 17.4531 29.4844C17.7422 29.1875 17.7422 28.625 17.4531 28.3281C17.2891 28.1641 17.1719 28.125 16.875 28.125C16.5781 28.125 16.4609 28.1641 16.2969 28.3281Z" fill="#CCA351"/>
<path d="M27.1485 31.75C26.9297 31.9766 26.836 32.2656 26.9063 32.5469C27.1016 33.3281 28.2891 33.3281 28.4844 32.5469C28.5547 32.2656 28.461 31.9766 28.2422 31.75C28.1016 31.6094 27.9688 31.5625 27.6954 31.5625C27.4219 31.5625 27.2891 31.6094 27.1485 31.75Z" fill="#CCA351"/>
</svg>
