<svg width="45" height="45" viewBox="0 0 45 45" fill="none" xmlns="http://www.w3.org/2000/svg">
<rect width="44.4481" height="44.4481" rx="6.53649" fill="#CCA351"/>
<path d="M30.3457 18.2121C33.1033 19.1313 35.146 20.6633 35.146 22.1953C35.146 23.8294 33.0012 25.4124 30.0393 26.3827C29.8861 26.4338 29.7329 26.4848 29.5797 26.5359C29.6308 26.7402 29.6819 26.9955 29.7329 27.1998C30.2947 30.1616 29.8351 32.5617 28.4563 33.3788C27.1285 34.1448 24.9838 33.3788 22.7879 31.4893C22.5326 31.2851 22.3283 31.0808 22.073 30.8765C21.9198 31.0297 21.7155 31.1829 21.5623 31.3361C19.3154 33.3277 16.9663 34.1448 15.5876 33.3277C14.2598 32.5617 13.8513 30.3148 14.362 27.5062C14.4641 27.1998 14.5152 26.8934 14.5662 26.587C14.362 26.5359 14.1066 26.4338 13.9024 26.3827C11.0427 25.4124 9 23.7783 9 22.1953C9 20.6633 10.9405 19.1824 13.647 18.2121C13.9534 18.11 14.2598 18.0078 14.6173 17.9057C14.5152 17.6504 14.4641 17.344 14.413 17.0886C13.8513 14.1779 14.2598 11.8799 15.5876 11.1139C16.9663 10.2968 19.3154 11.1649 21.6645 13.2076C21.7666 13.3608 21.9198 13.4629 22.073 13.6161C22.2772 13.4119 22.4815 13.2076 22.6858 13.0544C24.9327 11.1139 27.1285 10.2968 28.4563 11.0628C29.8351 11.8799 30.2436 14.331 29.6308 17.344C29.5797 17.5482 29.5287 17.7525 29.5287 17.9568C29.784 18.0078 30.0393 18.11 30.3457 18.2121ZM23.4007 13.8715C23.1964 14.0247 23.0432 14.2289 22.839 14.3821C23.605 15.2502 24.3199 16.1694 24.9838 17.1397C26.1583 17.2418 27.2817 17.395 28.4563 17.6504C28.5073 17.4972 28.5073 17.344 28.5584 17.1397C29.1201 14.5353 28.7627 12.4927 27.8945 12.0331C27.0775 11.5735 25.3412 12.1863 23.4007 13.8715ZM17.5281 24.8507C17.2727 24.3911 17.0174 23.9826 16.7621 23.523C16.4557 24.289 16.2004 25.055 15.945 25.7699C16.711 25.9742 17.5281 26.0763 18.3451 26.1784C18.0387 25.7188 17.7834 25.3103 17.5281 24.8507ZM15.945 18.7228C16.2004 19.4377 16.4557 20.1526 16.7621 20.9186C17.0174 20.459 17.2727 20.0505 17.5281 19.5909C17.7834 19.1824 18.0387 18.7228 18.2941 18.3142C17.477 18.4164 16.711 18.5185 15.945 18.7228ZM17.3749 22.2463C17.7323 22.9102 18.0898 23.6251 18.4473 24.289C18.8558 24.9528 19.2643 25.6167 19.7239 26.2806C20.4899 26.3316 21.2559 26.3827 22.073 26.3827C22.839 26.3827 23.656 26.3316 24.422 26.2806C24.8306 25.6167 25.2391 24.9528 25.6476 24.289C26.0562 23.6251 26.4136 22.9102 26.72 22.1953C26.4136 21.4803 26.0051 20.8165 25.6476 20.1526C25.2391 19.4887 24.8306 18.8249 24.371 18.161C23.656 18.11 22.839 18.0589 22.073 18.0589C21.2559 18.0589 20.4899 18.11 19.7239 18.161C19.2643 18.8249 18.8558 19.4887 18.4473 20.1526C18.0898 20.8165 17.6813 21.5314 17.3749 22.2463ZM26.5668 24.8507C26.3115 25.2592 26.0562 25.7188 25.8008 26.1274C26.6179 26.0763 27.3839 25.9231 28.2009 25.7188C27.9456 24.9528 27.6392 24.2379 27.3328 23.4719C27.0775 23.9315 26.8732 24.3911 26.5668 24.8507ZM27.3328 20.9186C27.6392 20.2037 27.8945 19.4887 28.1499 18.7228C27.4349 18.5696 26.6179 18.4164 25.8008 18.3142C26.0562 18.7228 26.3115 19.1824 26.5668 19.5909C26.8221 20.0505 27.0775 20.459 27.3328 20.9186ZM22.073 15.1992C21.5623 15.7609 21.0517 16.3737 20.541 17.0376C21.5623 16.9865 22.5836 16.9865 23.5539 17.0376C23.0943 16.3737 22.5836 15.7609 22.073 15.1992ZM16.1493 12.0331C15.3322 12.5437 15.0258 14.3821 15.4854 16.8333C15.5365 17.1397 15.5876 17.395 15.6897 17.6504C16.8131 17.395 17.9366 17.2418 19.1111 17.1397C19.775 16.1694 20.4899 15.2502 21.307 14.3821C21.1538 14.28 21.0517 14.1779 20.8985 14.0247C18.9069 12.2884 17.0174 11.5735 16.1493 12.0331ZM14.8726 25.5146C15.2301 24.3911 15.6386 23.2677 16.1493 22.2463C15.6897 21.1739 15.2301 20.1015 14.9237 18.9781C14.6173 19.0802 14.3109 19.1313 14.0045 19.2334C11.7065 20.0505 10.0724 21.2761 10.0724 22.1953C10.1745 22.8081 10.532 23.3698 11.0427 23.7273C11.9108 24.4422 13.1874 24.9528 14.2598 25.3103C14.4641 25.4124 14.6684 25.4635 14.8726 25.5146ZM20.8474 30.5191C21.0006 30.3659 21.1538 30.2127 21.307 30.0595C20.541 29.1914 19.775 28.2722 19.1111 27.353C17.9366 27.2508 16.8131 27.0976 15.6386 26.8423C15.5876 27.0976 15.5365 27.404 15.4854 27.7104C15.0258 30.1105 15.3322 31.8979 16.1493 32.4085C16.7621 32.6128 17.3749 32.6128 17.9366 32.3064C19.009 31.8979 19.9793 31.2851 20.8474 30.5191ZM22.073 29.2935C22.6347 28.6807 23.1454 28.0679 23.605 27.404C23.0943 27.4551 22.5836 27.4551 22.073 27.4551C21.5623 27.4551 21.0517 27.4551 20.541 27.404C21.0517 28.119 21.5623 28.7318 22.073 29.2935ZM28.7627 30.8255C28.9159 29.702 28.8648 28.5275 28.6605 27.404C28.6095 27.1998 28.5584 26.9955 28.5073 26.7912C27.3328 27.0466 26.2094 27.2508 25.0348 27.353C24.371 28.3232 23.656 29.1914 22.839 30.0595C23.0943 30.2637 23.2986 30.468 23.5028 30.6723C25.3923 32.2553 27.1285 32.8681 27.9456 32.4085C28.4052 32 28.7116 31.4383 28.7627 30.8255ZM29.6819 25.3103C32.2352 24.4932 34.0225 23.1655 34.0225 22.1953C34.0225 21.2761 32.3373 20.0505 29.9883 19.2334C29.7329 19.1313 29.4776 19.0802 29.2223 18.9781C28.8648 20.1015 28.4563 21.1739 27.9456 22.1953C28.4563 23.2677 28.9159 24.3401 29.2733 25.4635C29.4265 25.4124 29.5287 25.3614 29.6819 25.3103ZM22.073 24.5443C20.7453 24.5443 19.7239 23.523 19.7239 22.1953C19.7239 20.9186 20.7453 19.8973 22.073 19.8973C23.3496 19.8973 24.371 20.9186 24.371 22.1953C24.371 23.523 23.3496 24.5443 22.073 24.5443Z" fill="black"/>
</svg>
