<svg width="93" height="13" viewBox="0 0 93 13" fill="none" xmlns="http://www.w3.org/2000/svg">
<path d="M9.63007 11.886C9.18559 12.1595 8.70691 12.376 8.19405 12.5356C7.68119 12.6838 7.13413 12.7578 6.55289 12.7578C5.66393 12.7578 4.85474 12.5812 4.12534 12.2279C3.40733 11.8746 2.7862 11.413 2.26194 10.8432C1.74907 10.2733 1.35018 9.61798 1.06525 8.87718C0.780331 8.13637 0.637869 7.37848 0.637869 6.60348C0.637869 5.7943 0.786029 5.01931 1.08235 4.2785C1.39007 3.5377 1.80606 2.88238 2.33032 2.31253C2.86597 1.74268 3.49851 1.2925 4.22791 0.961988C4.95732 0.62008 5.7494 0.449126 6.60418 0.449126C7.48174 0.449126 8.27953 0.631477 8.99754 0.99618C9.72694 1.34949 10.3481 1.81676 10.8609 2.39801C11.3738 2.97925 11.7727 3.64027 12.0576 4.38108C12.3425 5.12188 12.485 5.87408 12.485 6.63767C12.485 7.42406 12.3425 8.17626 12.0576 8.89427C11.7841 9.61228 11.3966 10.2505 10.8951 10.809L12.5534 12.6724H10.331L9.63007 11.886ZM6.56999 10.6722C6.8777 10.6722 7.16263 10.638 7.42476 10.5696C7.69828 10.4898 7.94902 10.3873 8.17696 10.2619L6.33065 8.17626H8.55306L9.39073 9.11651C9.61867 8.75181 9.79532 8.35292 9.92069 7.91983C10.0461 7.48675 10.1087 7.04796 10.1087 6.60348C10.1087 6.07922 10.0233 5.57206 9.85231 5.08199C9.69275 4.59192 9.45911 4.15884 9.1514 3.78274C8.85508 3.40664 8.48467 3.10462 8.04019 2.87668C7.60711 2.64874 7.11704 2.53477 6.56999 2.53477C6.00014 2.53477 5.49297 2.65444 5.04849 2.89377C4.60401 3.12171 4.23361 3.42943 3.93729 3.81693C3.64097 4.20442 3.41303 4.64321 3.25347 5.13328C3.10531 5.61195 3.03123 6.10202 3.03123 6.60348C3.03123 7.12774 3.11101 7.63491 3.27057 8.12498C3.43012 8.61505 3.65806 9.04813 3.95438 9.42423C4.2621 9.80033 4.6325 10.1023 5.06559 10.3303C5.51007 10.5582 6.01153 10.6722 6.56999 10.6722ZM24.0566 9.5439C24.0566 10.0568 23.954 10.5069 23.7489 10.8944C23.5438 11.2819 23.2588 11.6067 22.8941 11.8689C22.5408 12.131 22.1248 12.3305 21.6462 12.4672C21.1789 12.604 20.6774 12.6724 20.1418 12.6724H14.278V0.534603H20.7743C21.196 0.534603 21.5778 0.625779 21.9197 0.808131C22.2616 0.990482 22.5522 1.22982 22.7916 1.52614C23.0309 1.81106 23.2132 2.14157 23.3386 2.51767C23.4754 2.88238 23.5438 3.25278 23.5438 3.62888C23.5438 4.22152 23.3956 4.77997 23.0993 5.30423C22.8029 5.81709 22.3699 6.19889 21.8 6.44962C22.4952 6.65477 23.0423 7.02517 23.4412 7.56083C23.8515 8.08509 24.0566 8.74611 24.0566 9.5439ZM21.6803 9.09942C21.6803 8.88287 21.6405 8.67773 21.5607 8.48398C21.4923 8.27884 21.3954 8.10218 21.2701 7.95402C21.1447 7.80586 20.9965 7.69189 20.8256 7.61211C20.6546 7.52094 20.4666 7.47535 20.2614 7.47535H16.6372V10.6722H20.1418C20.3583 10.6722 20.5577 10.6323 20.7401 10.5525C20.9338 10.4728 21.0991 10.3645 21.2359 10.2277C21.3726 10.0796 21.4809 9.9086 21.5607 9.71485C21.6405 9.5211 21.6803 9.31596 21.6803 9.09942ZM16.6372 2.55186V5.61195H19.7828C20.1816 5.61195 20.5179 5.47518 20.7914 5.20166C21.0763 4.92813 21.2188 4.55203 21.2188 4.07336C21.2188 3.60608 21.0877 3.23568 20.8256 2.96216C20.5748 2.68863 20.2614 2.55186 19.8853 2.55186H16.6372ZM34.3256 10.6038V12.6724H25.8976V0.534603H34.1718V2.60315H28.2567V5.52647H33.3683V7.44116H28.2567V10.6038H34.3256ZM48.6998 10.6038V12.6724H40.2718V0.534603H48.546V2.60315H42.6309V5.52647H47.7425V7.44116H42.6309V10.6038H48.6998ZM52.193 12.6724L48.8936 3.71435H51.2528L53.5265 10.809L55.8173 3.71435H57.9713L54.6719 12.6724H52.193ZM63.0187 12.8433C62.3007 12.8433 61.6511 12.7236 61.0698 12.4843C60.4886 12.2336 59.9928 11.8974 59.5825 11.4757C59.1722 11.054 58.8531 10.5639 58.6252 10.0055C58.4086 9.44702 58.3004 8.86008 58.3004 8.24465C58.3004 7.60642 58.4086 7.00808 58.6252 6.44962C58.8417 5.87978 59.1551 5.38401 59.5654 4.96232C59.9757 4.52924 60.4715 4.18733 61.0527 3.93659C61.6454 3.68586 62.3064 3.56049 63.0358 3.56049C63.7652 3.56049 64.4148 3.68586 64.9847 3.93659C65.5659 4.18733 66.056 4.52354 66.4549 4.94523C66.8652 5.36691 67.1729 5.85698 67.3781 6.41543C67.5946 6.97388 67.7029 7.55513 67.7029 8.15917C67.7029 8.30733 67.6972 8.44979 67.6858 8.58655C67.6858 8.72332 67.6744 8.83729 67.6516 8.92846H60.7279C60.7621 9.28177 60.8476 9.59518 60.9844 9.86871C61.1211 10.1422 61.2978 10.3759 61.5143 10.5696C61.7309 10.7634 61.9759 10.9115 62.2494 11.0141C62.5229 11.1167 62.8079 11.168 63.1042 11.168C63.5601 11.168 63.9875 11.0597 64.3863 10.8432C64.7966 10.6152 65.0759 10.3189 65.224 9.95419L67.19 10.5012C66.8595 11.1851 66.3295 11.7492 65.6001 12.1937C64.8821 12.6268 64.0216 12.8433 63.0187 12.8433ZM65.3437 7.44116C65.2867 6.76874 65.036 6.23308 64.5915 5.83419C64.1584 5.4239 63.6285 5.21875 63.0016 5.21875C62.6939 5.21875 62.4033 5.27574 62.1298 5.38971C61.8676 5.49228 61.634 5.64044 61.4288 5.83419C61.2237 6.02794 61.0527 6.26157 60.916 6.5351C60.7906 6.80863 60.7165 7.11065 60.6937 7.44116H65.3437ZM77.4239 12.6724H75.1331V7.64631C75.1331 6.9283 75.0077 6.40404 74.757 6.07352C74.5063 5.74301 74.1587 5.57776 73.7142 5.57776C73.4862 5.57776 73.2526 5.62334 73.0133 5.71452C72.7739 5.8057 72.546 5.93676 72.3294 6.10772C72.1243 6.26727 71.9363 6.46102 71.7653 6.68896C71.5943 6.9169 71.469 7.16763 71.3892 7.44116V12.6724H69.0984V3.71435H71.167V5.37261C71.4975 4.80276 71.9761 4.35828 72.603 4.03917C73.2298 3.72005 73.9364 3.56049 74.7228 3.56049C75.2813 3.56049 75.7371 3.66307 76.0904 3.86821C76.4437 4.07336 76.7173 4.34119 76.911 4.6717C77.1048 5.00221 77.2358 5.37831 77.3042 5.8C77.384 6.22169 77.4239 6.64907 77.4239 7.08216V12.6724ZM84.7003 12.2108C84.3926 12.3475 84.0165 12.4843 83.572 12.6211C83.1275 12.7578 82.6602 12.8262 82.1701 12.8262C81.851 12.8262 81.549 12.7863 81.2641 12.7066C80.9906 12.6268 80.7455 12.5014 80.529 12.3305C80.3238 12.1481 80.1586 11.9202 80.0332 11.6466C79.9079 11.3617 79.8452 11.0198 79.8452 10.6209V5.47518H78.6656V3.71435H79.8452V0.808131H82.136V3.71435H84.0165V5.47518H82.136V9.85162C82.136 10.1707 82.2157 10.3987 82.3753 10.5354C82.5462 10.6608 82.7514 10.7235 82.9907 10.7235C83.2301 10.7235 83.4637 10.6836 83.6916 10.6038C83.9196 10.524 84.1019 10.4557 84.2387 10.3987L84.7003 12.2108ZM89.2782 12.8433C88.526 12.8433 87.7909 12.7236 87.0729 12.4843C86.3549 12.245 85.7395 11.9031 85.2266 11.4586L86.0814 10.0226C86.6285 10.4101 87.1584 10.7064 87.6713 10.9115C88.1955 11.1053 88.7141 11.2022 89.227 11.2022C89.6828 11.2022 90.0418 11.1167 90.304 10.9457C90.5661 10.7748 90.6972 10.5297 90.6972 10.2106C90.6972 9.89151 90.5433 9.65787 90.2356 9.50971C89.9279 9.36155 89.4264 9.19059 88.7312 8.99684C88.1499 8.83729 87.6542 8.68343 87.2439 8.53527C86.8336 8.38711 86.5031 8.22185 86.2524 8.0395C86.0016 7.84575 85.8193 7.62921 85.7053 7.38987C85.5913 7.13914 85.5343 6.84282 85.5343 6.50091C85.5343 6.04503 85.6198 5.63474 85.7908 5.27004C85.9731 4.90534 86.2239 4.59762 86.543 4.34689C86.8621 4.08476 87.2325 3.88531 87.6542 3.74855C88.0873 3.61178 88.5545 3.5434 89.056 3.5434C89.7284 3.5434 90.3553 3.64027 90.9365 3.83402C91.5291 4.02777 92.0705 4.34119 92.5606 4.77427L91.6374 6.159C91.1815 5.81709 90.7371 5.56636 90.304 5.4068C89.8823 5.24725 89.4606 5.16747 89.0389 5.16747C88.6514 5.16747 88.3266 5.24725 88.0645 5.4068C87.8023 5.56636 87.6713 5.82279 87.6713 6.1761C87.6713 6.33565 87.6998 6.46672 87.7567 6.56929C87.8251 6.67186 87.9277 6.76304 88.0645 6.84282C88.2012 6.9226 88.3779 7.00238 88.5944 7.08216C88.8224 7.15054 89.1016 7.22462 89.4321 7.3044C90.0475 7.46395 90.5718 7.62351 91.0049 7.78307C91.4494 7.94263 91.8084 8.12498 92.0819 8.33012C92.3668 8.53527 92.572 8.7746 92.6973 9.04813C92.8341 9.31026 92.9025 9.62938 92.9025 10.0055C92.9025 10.883 92.5777 11.5783 91.928 12.0911C91.2784 12.5926 90.3951 12.8433 89.2782 12.8433Z" fill="#CCA351"/>
</svg>
