<svg width="16" height="20" viewBox="0 0 16 20" fill="none" xmlns="http://www.w3.org/2000/svg">
<path d="M3.17094 10.906L1.01794 17.317L3.68994 16.427L5.25794 18.767L7.08294 13.584M12.8129 10.906L14.9669 17.317L12.2939 16.427L10.7259 18.767L8.90094 13.584M5.16494 2.30002C5.74494 2.36802 6.31794 2.13002 6.67994 1.67202C6.83717 1.47232 7.03765 1.3109 7.26629 1.19991C7.49494 1.08892 7.74578 1.03125 7.99994 1.03125C8.2541 1.03125 8.50495 1.08892 8.7336 1.19991C8.96224 1.3109 9.16272 1.47232 9.31994 1.67202C9.49777 1.89743 9.73039 2.0735 9.99561 2.18344C10.2608 2.29338 10.5498 2.33352 10.8349 2.30002C11.0872 2.27013 11.3429 2.29783 11.5829 2.38104C11.8229 2.46425 12.0409 2.6008 12.2206 2.78041C12.4002 2.96003 12.5367 3.17803 12.6199 3.41803C12.7031 3.65803 12.7308 3.91377 12.7009 4.16602C12.6329 4.74602 12.8709 5.32002 13.3289 5.68202C13.5285 5.83925 13.6897 6.03968 13.8006 6.26823C13.9115 6.49678 13.9691 6.7475 13.9691 7.00152C13.9691 7.25554 13.9115 7.50626 13.8006 7.73481C13.6897 7.96336 13.5285 8.16379 13.3289 8.32102C13.1035 8.49884 12.9275 8.73146 12.8175 8.99668C12.7076 9.2619 12.6674 9.55088 12.7009 9.83602C12.7308 10.0883 12.7031 10.344 12.6199 10.584C12.5367 10.824 12.4002 11.042 12.2206 11.2216C12.0409 11.4012 11.8229 11.5378 11.5829 11.621C11.3429 11.7042 11.0872 11.7319 10.8349 11.702C10.5496 11.6683 10.2605 11.7084 9.99505 11.8183C9.72964 11.9283 9.49686 12.1045 9.31894 12.33C9.16171 12.5295 8.96128 12.6908 8.73273 12.8017C8.50418 12.9125 8.25347 12.9702 7.99944 12.9702C7.74542 12.9702 7.4947 12.9125 7.26615 12.8017C7.03761 12.6908 6.83718 12.5295 6.67994 12.33C6.50212 12.1046 6.2695 11.9285 6.00428 11.8186C5.73906 11.7087 5.45009 11.6685 5.16494 11.702C4.91262 11.7321 4.65676 11.7045 4.41664 11.6214C4.17651 11.5382 3.95837 11.4017 3.77864 11.2221C3.59891 11.0424 3.46227 10.8244 3.37901 10.5843C3.29574 10.3442 3.26803 10.0884 3.29794 9.83602C3.33156 9.55096 3.29158 9.26205 3.18182 8.99684C3.07205 8.73162 2.89617 8.49895 2.67094 8.32102C2.47125 8.1638 2.30982 7.96332 2.19883 7.73467C2.08784 7.50603 2.03017 7.25518 2.03017 7.00102C2.03017 6.74686 2.08784 6.49601 2.19883 6.26737C2.30982 6.03872 2.47125 5.83824 2.67094 5.68102C3.12894 5.32002 3.36694 4.74602 3.29794 4.16602C3.26803 3.91368 3.29574 3.65784 3.37901 3.41775C3.46227 3.17767 3.59891 2.95961 3.77864 2.77997C3.95837 2.60034 4.17651 2.46381 4.41664 2.38068C4.65676 2.29755 4.91262 2.26997 5.16494 2.30002ZM9.99994 7.00002C9.99994 7.53045 9.78923 8.03916 9.41416 8.41423C9.03909 8.78931 8.53038 9.00002 7.99994 9.00002C7.46951 9.00002 6.9608 8.78931 6.58573 8.41423C6.21066 8.03916 5.99994 7.53045 5.99994 7.00002C5.99994 6.46959 6.21066 5.96088 6.58573 5.58581C6.9608 5.21073 7.46951 5.00002 7.99994 5.00002C8.53038 5.00002 9.03909 5.21073 9.41416 5.58581C9.78923 5.96088 9.99994 6.46959 9.99994 7.00002Z" stroke="#CCA351" stroke-width="1.5" stroke-linecap="round" stroke-linejoin="round"/>
</svg>
