<svg width="1138" height="108" viewBox="0 0 1138 108" fill="none" xmlns="http://www.w3.org/2000/svg">
<path d="M19.9984 50.2097C21.5159 50.4626 22.8347 51.0407 23.9547 51.944C25.1109 52.8111 25.9961 53.9312 26.6103 55.3041C27.2246 56.641 27.5317 58.1585 27.5317 59.8566C27.5317 62.0967 26.9717 64.0478 25.8516 65.7098C24.7677 67.3718 23.2141 68.6545 21.1907 69.5577C19.1674 70.4971 16.7828 70.9668 14.0368 70.9668C11.2909 70.9668 8.87012 70.4791 6.77453 69.5035C4.67894 68.5641 2.99886 67.1912 1.73428 65.3846L5.36543 61.2657C6.23257 62.5664 7.35262 63.5962 8.72559 64.3549C10.0986 65.1498 11.8328 65.5472 13.9284 65.5472C16.2769 65.5472 18.1015 65.0414 19.4023 64.0297C20.703 63.0181 21.3533 61.5006 21.3533 59.4772C21.3533 57.3817 20.6307 55.7377 19.1855 54.5454C17.7764 53.3531 15.6446 52.7569 12.7903 52.7569H11.327V48.096H12.9529C15.3737 48.096 17.2344 47.536 18.5351 46.416C19.8358 45.2598 20.4862 43.8145 20.4862 42.0803C20.4862 40.9241 20.2152 39.9847 19.6732 39.2621C19.1674 38.5033 18.4448 37.9433 17.5054 37.582C16.566 37.2207 15.4821 37.04 14.2536 37.04C12.4109 37.04 10.785 37.4374 9.37595 38.2323C7.96685 39.0272 6.84679 40.1653 6.01578 41.6467L2.27624 37.582C2.99886 36.4258 3.99246 35.4141 5.25703 34.547C6.52161 33.6798 7.96685 33.0114 9.59273 32.5417C11.2548 32.0359 13.0071 31.783 14.8498 31.783C17.2344 31.783 19.33 32.1804 21.1365 32.9753C22.9431 33.7702 24.3341 34.8902 25.3096 36.3355C26.3213 37.7807 26.8271 39.4788 26.8271 41.4299C26.8271 42.839 26.5562 44.1758 26.0142 45.4404C25.4722 46.6689 24.6774 47.7167 23.6296 48.5838C22.5818 49.4148 21.3714 49.9568 19.9984 50.2097ZM60.2569 47.1205C60.2569 50.3 59.6427 53.1363 58.4142 55.6293C57.2219 58.0862 55.5779 60.0192 53.4824 61.4283C51.4229 62.8374 49.0563 63.542 46.3827 63.542C43.7451 63.542 41.3785 62.8374 39.283 61.4283C37.1874 60.0192 35.5253 58.0862 34.2969 55.6293C33.1046 53.1363 32.5084 50.3 32.5084 47.1205C32.5084 43.941 33.1046 41.1228 34.2969 38.6659C35.5253 36.1729 37.1874 34.2218 39.283 32.8127C41.3785 31.3675 43.7451 30.6449 46.3827 30.6449C49.0563 30.6449 51.4229 31.3675 53.4824 32.8127C55.5779 34.2218 57.2219 36.1729 58.4142 38.6659C59.6427 41.1228 60.2569 43.941 60.2569 47.1205ZM54.1869 47.1205C54.1869 44.9527 53.8617 43.0558 53.2114 41.4299C52.561 39.7679 51.6397 38.4852 50.4474 37.582C49.2551 36.6426 47.9002 36.1729 46.3827 36.1729C44.829 36.1729 43.4561 36.6426 42.2637 37.582C41.0714 38.4852 40.132 39.7679 39.4455 41.4299C38.7952 43.0558 38.47 44.9527 38.47 47.1205C38.47 49.2884 38.7952 51.1852 39.4455 52.8111C40.132 54.437 41.0714 55.7196 42.2637 56.659C43.4561 57.5623 44.829 58.0139 46.3827 58.0139C47.9002 58.0139 49.237 57.5623 50.3932 56.659C51.5855 55.7196 52.5068 54.437 53.1572 52.8111C53.8437 51.1852 54.1869 49.2884 54.1869 47.1205Z" fill="white"/>
<path d="M83.0875 41.3757V46.145H77.0717V52.7027H71.7063V46.145H65.6905V41.3757H71.7063V34.818H77.0717V41.3757H83.0875Z" fill="#CCA351"/>
<path d="M10.3045 89.1361C10.1676 88.9763 9.98501 88.8223 9.75678 88.6739C9.52855 88.5256 9.27179 88.3943 8.98651 88.2802C8.70122 88.1547 8.38741 88.0577 8.04507 87.9892C7.71413 87.9093 7.36609 87.8694 7.00092 87.8694C6.05377 87.8694 5.35768 88.0463 4.91263 88.4C4.479 88.7538 4.26218 89.2388 4.26218 89.855C4.26218 90.1859 4.32494 90.4598 4.45047 90.6766C4.576 90.8934 4.76999 91.0817 5.03245 91.2415C5.30633 91.3898 5.64296 91.5211 6.04236 91.6352C6.44176 91.7493 6.91534 91.8691 7.46308 91.9946C8.09071 92.1316 8.65558 92.2913 9.15768 92.4739C9.67119 92.6451 10.1048 92.8619 10.4586 93.1244C10.8237 93.3868 11.0976 93.7063 11.2802 94.0829C11.4742 94.4595 11.5712 94.9217 11.5712 95.4694C11.5712 96.0514 11.4571 96.5592 11.2288 96.9928C11.0006 97.415 10.6868 97.7688 10.2874 98.0541C9.89942 98.328 9.43726 98.5334 8.90092 98.6703C8.36458 98.7958 7.7826 98.8586 7.15498 98.8586C6.21924 98.8586 5.32915 98.7159 4.4847 98.4307C3.65167 98.134 2.89281 97.706 2.20813 97.1469L2.94416 95.846C3.12675 96.04 3.36068 96.234 3.64597 96.428C3.94266 96.622 4.27359 96.7988 4.63876 96.9586C5.01534 97.1069 5.41473 97.2325 5.83696 97.3352C6.27059 97.4265 6.72134 97.4721 7.18921 97.4721C8.05648 97.4721 8.72975 97.318 9.20903 97.0099C9.68831 96.7018 9.92795 96.2397 9.92795 95.6235C9.92795 95.2811 9.84807 94.9958 9.68831 94.7676C9.53996 94.528 9.31744 94.3226 9.02074 94.1514C8.72404 93.9802 8.35317 93.8319 7.90813 93.7063C7.47449 93.5694 6.9781 93.4325 6.41894 93.2955C5.80272 93.1472 5.26068 92.9874 4.79281 92.8162C4.32494 92.6451 3.93125 92.4397 3.61173 92.2C3.30362 91.9604 3.06969 91.6694 2.90993 91.3271C2.75017 90.9847 2.67029 90.5739 2.67029 90.0946C2.67029 89.5126 2.7787 88.9991 2.99551 88.5541C3.21233 88.109 3.51473 87.7325 3.90272 87.4244C4.29071 87.1162 4.75287 86.888 5.28921 86.7397C5.82555 86.5799 6.40753 86.5 7.03516 86.5C7.85678 86.5 8.59852 86.6256 9.26038 86.8766C9.92224 87.1277 10.5099 87.4643 11.0234 87.8865L10.3045 89.1361ZM16.1136 98.9099C15.1779 98.9099 14.4704 98.5961 13.9911 97.9685C13.5118 97.3409 13.2722 96.4051 13.2722 95.1613V89.8036H14.7785V94.8703C14.7785 96.6961 15.4118 97.609 16.6785 97.609C17.2947 97.609 17.871 97.415 18.4073 97.0271C18.9551 96.6277 19.3602 96.0856 19.6227 95.4009V89.8036H21.129V96.8901C21.129 97.2439 21.2887 97.4265 21.6082 97.4379V98.7388C21.4371 98.7616 21.3001 98.773 21.1974 98.773C21.1061 98.7844 21.0148 98.7901 20.9236 98.7901C20.6269 98.7901 20.3758 98.7045 20.1704 98.5334C19.9764 98.3508 19.8737 98.1283 19.8623 97.8658L19.8281 96.8217C19.4287 97.4949 18.9037 98.0141 18.2533 98.3793C17.6028 98.7331 16.8896 98.9099 16.1136 98.9099ZM23.039 94.2541C23.039 93.6265 23.1474 93.0331 23.3642 92.4739C23.581 91.9147 23.8891 91.4298 24.2885 91.0189C24.6879 90.5967 25.1615 90.2658 25.7093 90.0262C26.2684 89.7751 26.8903 89.6496 27.575 89.6496C28.4651 89.6496 29.2297 89.8493 29.8687 90.2487C30.5192 90.6367 31.0099 91.1616 31.3408 91.8235L29.8687 92.2856C29.6405 91.8634 29.321 91.5382 28.9102 91.3099C28.4994 91.0703 28.0429 90.9505 27.5408 90.9505C27.13 90.9505 26.742 91.0361 26.3768 91.2072C26.0117 91.367 25.6979 91.5952 25.4354 91.8919C25.1729 92.1886 24.9618 92.5367 24.8021 92.9361C24.6537 93.3355 24.5795 93.7748 24.5795 94.2541C24.5795 94.722 24.6594 95.1613 24.8192 95.5721C24.9789 95.9829 25.19 96.3424 25.4525 96.6505C25.7264 96.9472 26.0402 97.1811 26.3939 97.3523C26.7591 97.5235 27.1471 97.609 27.5579 97.609C27.8204 97.609 28.0771 97.5748 28.3282 97.5063C28.5906 97.4265 28.8246 97.3238 29.03 97.1982C29.2468 97.0727 29.4351 96.9301 29.5948 96.7703C29.7546 96.5991 29.8687 96.4165 29.9372 96.2226L31.4093 96.6676C31.2723 96.9985 31.0783 97.3009 30.8273 97.5748C30.5876 97.8487 30.3024 98.0826 29.9714 98.2766C29.6405 98.4706 29.2696 98.6247 28.8588 98.7388C28.4594 98.8529 28.0372 98.9099 27.5921 98.9099C26.9189 98.9099 26.3027 98.7844 25.7435 98.5334C25.1843 98.2823 24.7051 97.9457 24.3057 97.5235C23.9063 97.1012 23.5924 96.6105 23.3642 96.0514C23.1474 95.4808 23.039 94.8817 23.039 94.2541ZM36.9865 98.9099C36.3132 98.9099 35.697 98.7901 35.1379 98.5505C34.5787 98.2994 34.0994 97.9628 33.7 97.5406C33.3006 97.1183 32.9868 96.6277 32.7586 96.0685C32.5418 95.4979 32.4333 94.8988 32.4333 94.2712C32.4333 93.6436 32.5418 93.0502 32.7586 92.491C32.9868 91.9319 33.3006 91.4412 33.7 91.0189C34.1108 90.5967 34.5958 90.2658 35.155 90.0262C35.7141 89.7751 36.3303 89.6496 37.0036 89.6496C37.6769 89.6496 38.2874 89.7751 38.8352 90.0262C39.3943 90.2772 39.8679 90.6138 40.2559 91.0361C40.6439 91.4469 40.9406 91.9319 41.146 92.491C41.3628 93.0388 41.4712 93.6093 41.4712 94.2027C41.4712 94.3283 41.4655 94.4424 41.4541 94.5451C41.4541 94.6478 41.4484 94.7277 41.437 94.7847H34.0252C34.0595 95.2298 34.1622 95.6349 34.3333 96C34.5045 96.3652 34.727 96.679 35.0009 96.9415C35.2748 97.2039 35.5829 97.4093 35.9252 97.5577C36.279 97.706 36.6499 97.7802 37.0379 97.7802C37.3117 97.7802 37.5799 97.746 37.8424 97.6775C38.1048 97.5976 38.3502 97.4949 38.5784 97.3694C38.8066 97.2439 39.0063 97.0898 39.1775 96.9072C39.3601 96.7247 39.497 96.5192 39.5883 96.291L40.8892 96.6505C40.7409 96.9814 40.5355 97.2838 40.273 97.5577C40.0219 97.8316 39.7252 98.0712 39.3829 98.2766C39.052 98.4706 38.6811 98.6247 38.2703 98.7388C37.8595 98.8529 37.4315 98.9099 36.9865 98.9099ZM40.0505 93.6721C40.0162 93.2499 39.9078 92.8619 39.7252 92.5081C39.5541 92.143 39.3315 91.8349 39.0577 91.5838C38.7952 91.3328 38.4871 91.1388 38.1333 91.0018C37.7796 90.8535 37.403 90.7793 37.0036 90.7793C36.6042 90.7793 36.2276 90.8535 35.8739 91.0018C35.5201 91.1388 35.2063 91.3385 34.9324 91.6009C34.67 91.852 34.4532 92.1544 34.282 92.5081C34.1222 92.8619 34.0252 93.2499 33.991 93.6721H40.0505ZM46.278 98.9099C45.5591 98.9099 44.8516 98.8015 44.1555 98.5847C43.4594 98.3565 42.8603 98.0313 42.3582 97.609L43.0087 96.5991C43.5336 96.9985 44.0585 97.3009 44.5834 97.5063C45.1084 97.7003 45.6618 97.7973 46.2438 97.7973C46.8942 97.7973 47.4078 97.6718 47.7843 97.4208C48.1723 97.1583 48.3663 96.7931 48.3663 96.3253C48.3663 96.1084 48.315 95.9259 48.2123 95.7775C48.1096 95.6177 47.9555 95.4808 47.7501 95.3667C47.5447 95.2526 47.2822 95.1499 46.9627 95.0586C46.6432 94.9673 46.2723 94.8703 45.8501 94.7676C45.3138 94.6307 44.8516 94.4994 44.4636 94.3739C44.0756 94.2484 43.7561 94.1 43.5051 93.9289C43.254 93.7577 43.0714 93.5523 42.9573 93.3126C42.8432 93.073 42.7861 92.7763 42.7861 92.4226C42.7861 91.9775 42.8717 91.5838 43.0429 91.2415C43.2255 90.8877 43.4708 90.5967 43.7789 90.3685C44.087 90.1289 44.4465 89.952 44.8573 89.8379C45.2795 89.7123 45.7303 89.6496 46.2096 89.6496C46.8828 89.6496 47.5105 89.758 48.0924 89.9748C48.6744 90.1916 49.1651 90.4769 49.5645 90.8307L48.8798 91.7379C48.5032 91.4069 48.081 91.1616 47.6132 91.0018C47.1453 90.8307 46.666 90.7451 46.1753 90.7451C45.6276 90.7451 45.1597 90.8649 44.7717 91.1045C44.3951 91.3328 44.2069 91.7036 44.2069 92.2171C44.2069 92.4226 44.2411 92.5937 44.3096 92.7307C44.3894 92.8676 44.515 92.9874 44.6861 93.0901C44.8573 93.1928 45.0741 93.2841 45.3366 93.364C45.6105 93.4439 45.9357 93.5295 46.3123 93.6208C46.9057 93.7577 47.4192 93.9003 47.8528 94.0487C48.2978 94.1856 48.663 94.3511 48.9483 94.5451C49.245 94.7391 49.4618 94.9673 49.5987 95.2298C49.7471 95.4922 49.8213 95.8117 49.8213 96.1883C49.8213 97.0214 49.5017 97.6832 48.8627 98.1739C48.2237 98.6646 47.3621 98.9099 46.278 98.9099ZM54.7363 98.9099C54.0174 98.9099 53.3099 98.8015 52.6138 98.5847C51.9177 98.3565 51.3186 98.0313 50.8165 97.609L51.4669 96.5991C51.9918 96.9985 52.5168 97.3009 53.0417 97.5063C53.5666 97.7003 54.1201 97.7973 54.702 97.7973C55.3525 97.7973 55.866 97.6718 56.2426 97.4208C56.6306 97.1583 56.8246 96.7931 56.8246 96.3253C56.8246 96.1084 56.7732 95.9259 56.6705 95.7775C56.5678 95.6177 56.4138 95.4808 56.2084 95.3667C56.0029 95.2526 55.7405 95.1499 55.421 95.0586C55.1014 94.9673 54.7306 94.8703 54.3084 94.7676C53.772 94.6307 53.3099 94.4994 52.9219 94.3739C52.5339 94.2484 52.2144 94.1 51.9633 93.9289C51.7123 93.7577 51.5297 93.5523 51.4156 93.3126C51.3014 93.073 51.2444 92.7763 51.2444 92.4226C51.2444 91.9775 51.33 91.5838 51.5011 91.2415C51.6837 90.8877 51.9291 90.5967 52.2372 90.3685C52.5453 90.1289 52.9048 89.952 53.3156 89.8379C53.7378 89.7123 54.1885 89.6496 54.6678 89.6496C55.3411 89.6496 55.9687 89.758 56.5507 89.9748C57.1327 90.1916 57.6234 90.4769 58.0228 90.8307L57.3381 91.7379C56.9615 91.4069 56.5393 91.1616 56.0714 91.0018C55.6036 90.8307 55.1243 90.7451 54.6336 90.7451C54.0858 90.7451 53.618 90.8649 53.23 91.1045C52.8534 91.3328 52.6651 91.7036 52.6651 92.2171C52.6651 92.4226 52.6993 92.5937 52.7678 92.7307C52.8477 92.8676 52.9732 92.9874 53.1444 93.0901C53.3156 93.1928 53.5324 93.2841 53.7948 93.364C54.0687 93.4439 54.3939 93.5295 54.7705 93.6208C55.3639 93.7577 55.8774 93.9003 56.3111 94.0487C56.7561 94.1856 57.1213 94.3511 57.4066 94.5451C57.7033 94.7391 57.9201 94.9673 58.057 95.2298C58.2054 95.4922 58.2795 95.8117 58.2795 96.1883C58.2795 97.0214 57.96 97.6832 57.321 98.1739C56.6819 98.6646 55.8204 98.9099 54.7363 98.9099ZM60.5414 98.7388V90.9847H59.3261V89.8036H60.5414V89.6153C60.5414 88.5084 60.7867 87.6412 61.2774 87.0135C61.7681 86.3859 62.4357 86.0721 63.2801 86.0721C63.6339 86.0721 63.9819 86.1235 64.3243 86.2262C64.6666 86.3174 64.9747 86.4487 65.2486 86.6198L64.872 87.7325C64.7123 87.6183 64.5126 87.5271 64.2729 87.4586C64.0447 87.3901 63.8165 87.3559 63.5882 87.3559C63.0861 87.3559 62.7039 87.5442 62.4414 87.9207C62.1789 88.2973 62.0477 88.8451 62.0477 89.564V89.8036H64.427V90.9847H62.0477V98.7388H60.5414ZM68.6853 98.9099C67.7495 98.9099 67.042 98.5961 66.5627 97.9685C66.0835 97.3409 65.8438 96.4051 65.8438 95.1613V89.8036H67.3501V94.8703C67.3501 96.6961 67.9835 97.609 69.2501 97.609C69.8663 97.609 70.4426 97.415 70.979 97.0271C71.5267 96.6277 71.9318 96.0856 72.1943 95.4009V89.8036H73.7006V96.8901C73.7006 97.2439 73.8603 97.4265 74.1799 97.4379V98.7388C74.0087 98.7616 73.8718 98.773 73.769 98.773C73.6778 98.7844 73.5865 98.7901 73.4952 98.7901C73.1985 98.7901 72.9474 98.7045 72.742 98.5334C72.548 98.3508 72.4453 98.1283 72.4339 97.8658L72.3997 96.8217C72.0003 97.4949 71.4754 98.0141 70.8249 98.3793C70.1745 98.7331 69.4612 98.9099 68.6853 98.9099ZM76.2439 86.2433H77.7502V96.428C77.7502 96.7589 77.8358 97.0214 78.007 97.2153C78.1896 97.3979 78.4406 97.4892 78.7602 97.4892C78.8857 97.4892 79.034 97.4721 79.2052 97.4379C79.3764 97.3922 79.5361 97.3409 79.6845 97.2838L79.9241 98.4991C79.6731 98.6018 79.3764 98.6874 79.034 98.7559C78.6917 98.8244 78.3893 98.8586 78.1268 98.8586C77.5448 98.8586 77.0827 98.6931 76.7403 98.3622C76.4094 98.0313 76.2439 97.5691 76.2439 96.9757V86.2433ZM85.1584 98.7388V86.5856H90.225C90.7614 86.5856 91.252 86.6997 91.6971 86.928C92.1536 87.1448 92.5415 87.4415 92.8611 87.818C93.192 88.1832 93.4487 88.5997 93.6313 89.0676C93.8139 89.5241 93.9052 89.9919 93.9052 90.4712C93.9052 90.9733 93.8196 91.4583 93.6484 91.9262C93.4773 92.394 93.2319 92.8105 92.9124 93.1757C92.6043 93.5409 92.2277 93.8319 91.7827 94.0487C91.349 94.2655 90.8641 94.3739 90.3277 94.3739H86.6989V98.7388H85.1584ZM86.6989 93.0045H90.2421C90.5617 93.0045 90.8469 92.9418 91.098 92.8162C91.3605 92.6793 91.583 92.4967 91.7656 92.2685C91.9481 92.0289 92.0908 91.755 92.1935 91.4469C92.2962 91.1388 92.3475 90.8135 92.3475 90.4712C92.3475 90.1174 92.2848 89.7865 92.1593 89.4784C92.0451 89.1703 91.8854 88.9021 91.68 88.6739C91.486 88.4457 91.252 88.2688 90.9782 88.1433C90.7157 88.0177 90.4361 87.955 90.1394 87.955H86.6989V93.0045ZM100.308 91.1217C99.5547 91.1445 98.8871 91.3385 98.3051 91.7036C97.7345 92.0688 97.3294 92.5766 97.0898 93.2271V98.7388H95.5835V89.8036H96.9871V91.8748C97.2952 91.2586 97.7003 90.7622 98.2024 90.3856C98.7045 89.9976 99.2408 89.7808 99.8114 89.7352C99.9255 89.7352 100.023 89.7352 100.102 89.7352C100.182 89.7352 100.251 89.7409 100.308 89.7523V91.1217ZM105.504 98.9099C104.831 98.9099 104.214 98.7844 103.655 98.5334C103.108 98.2823 102.634 97.9457 102.235 97.5235C101.847 97.1012 101.544 96.6105 101.327 96.0514C101.111 95.4922 101.002 94.9045 101.002 94.2883C101.002 93.6607 101.111 93.0673 101.327 92.5081C101.556 91.949 101.864 91.4583 102.252 91.0361C102.651 90.6138 103.125 90.2772 103.672 90.0262C104.232 89.7751 104.842 89.6496 105.504 89.6496C106.166 89.6496 106.776 89.7751 107.335 90.0262C107.895 90.2772 108.368 90.6138 108.756 91.0361C109.156 91.4583 109.464 91.949 109.68 92.5081C109.909 93.0673 110.023 93.6607 110.023 94.2883C110.023 94.9045 109.914 95.4922 109.698 96.0514C109.481 96.6105 109.173 97.1012 108.773 97.5235C108.374 97.9457 107.895 98.2823 107.335 98.5334C106.788 98.7844 106.177 98.9099 105.504 98.9099ZM102.543 94.3054C102.543 94.7733 102.617 95.2069 102.765 95.6063C102.925 96.0057 103.136 96.3538 103.399 96.6505C103.672 96.9472 103.986 97.1811 104.34 97.3523C104.705 97.5235 105.093 97.609 105.504 97.609C105.915 97.609 106.297 97.5235 106.651 97.3523C107.016 97.1811 107.335 96.9472 107.609 96.6505C107.883 96.3424 108.094 95.9886 108.243 95.5892C108.402 95.1784 108.482 94.7391 108.482 94.2712C108.482 93.8147 108.402 93.3868 108.243 92.9874C108.094 92.5766 107.883 92.2229 107.609 91.9262C107.335 91.618 107.016 91.3784 106.651 91.2072C106.297 91.0361 105.915 90.9505 105.504 90.9505C105.093 90.9505 104.705 91.0418 104.34 91.2244C103.986 91.3955 103.672 91.6352 103.399 91.9433C103.136 92.24 102.925 92.5937 102.765 93.0045C102.617 93.4039 102.543 93.8376 102.543 94.3054ZM110.701 101.923C110.302 101.923 109.931 101.865 109.589 101.751C109.235 101.637 108.921 101.455 108.647 101.204L109.349 100.194C109.509 100.342 109.697 100.445 109.914 100.502C110.119 100.559 110.325 100.587 110.53 100.587C110.713 100.587 110.89 100.547 111.061 100.468C111.232 100.399 111.386 100.302 111.523 100.177C111.66 100.051 111.768 99.897 111.848 99.7144C111.928 99.5319 111.968 99.3379 111.968 99.1325V89.8036H113.474V99.0298C113.474 99.452 113.394 99.84 113.235 100.194C113.086 100.547 112.881 100.85 112.618 101.101C112.367 101.363 112.076 101.563 111.745 101.7C111.414 101.848 111.066 101.923 110.701 101.923ZM111.968 88.1262V86.2433H113.474V88.1262H111.968ZM119.864 98.9099C119.191 98.9099 118.575 98.7901 118.015 98.5505C117.456 98.2994 116.977 97.9628 116.578 97.5406C116.178 97.1183 115.864 96.6277 115.636 96.0685C115.419 95.4979 115.311 94.8988 115.311 94.2712C115.311 93.6436 115.419 93.0502 115.636 92.491C115.864 91.9319 116.178 91.4412 116.578 91.0189C116.988 90.5967 117.473 90.2658 118.033 90.0262C118.592 89.7751 119.208 89.6496 119.881 89.6496C120.555 89.6496 121.165 89.7751 121.713 90.0262C122.272 90.2772 122.745 90.6138 123.133 91.0361C123.521 91.4469 123.818 91.9319 124.024 92.491C124.24 93.0388 124.349 93.6093 124.349 94.2027C124.349 94.3283 124.343 94.4424 124.332 94.5451C124.332 94.6478 124.326 94.7277 124.315 94.7847H116.903C116.937 95.2298 117.04 95.6349 117.211 96C117.382 96.3652 117.605 96.679 117.879 96.9415C118.152 97.2039 118.461 97.4093 118.803 97.5577C119.157 97.706 119.527 97.7802 119.915 97.7802C120.189 97.7802 120.458 97.746 120.72 97.6775C120.982 97.5976 121.228 97.4949 121.456 97.3694C121.684 97.2439 121.884 97.0898 122.055 96.9072C122.238 96.7247 122.375 96.5192 122.466 96.291L123.767 96.6505C123.618 96.9814 123.413 97.2838 123.151 97.5577C122.9 97.8316 122.603 98.0712 122.261 98.2766C121.93 98.4706 121.559 98.6247 121.148 98.7388C120.737 98.8529 120.309 98.9099 119.864 98.9099ZM122.928 93.6721C122.894 93.2499 122.785 92.8619 122.603 92.5081C122.432 92.143 122.209 91.8349 121.935 91.5838C121.673 91.3328 121.365 91.1388 121.011 91.0018C120.657 90.8535 120.281 90.7793 119.881 90.7793C119.482 90.7793 119.105 90.8535 118.751 91.0018C118.398 91.1388 118.084 91.3385 117.81 91.6009C117.548 91.852 117.331 92.1544 117.16 92.5081C117 92.8619 116.903 93.2499 116.869 93.6721H122.928ZM125.424 94.2541C125.424 93.6265 125.533 93.0331 125.749 92.4739C125.966 91.9147 126.274 91.4298 126.674 91.0189C127.073 90.5967 127.547 90.2658 128.094 90.0262C128.654 89.7751 129.275 89.6496 129.96 89.6496C130.85 89.6496 131.615 89.8493 132.254 90.2487C132.904 90.6367 133.395 91.1616 133.726 91.8235L132.254 92.2856C132.026 91.8634 131.706 91.5382 131.295 91.3099C130.884 91.0703 130.428 90.9505 129.926 90.9505C129.515 90.9505 129.127 91.0361 128.762 91.2072C128.397 91.367 128.083 91.5952 127.82 91.8919C127.558 92.1886 127.347 92.5367 127.187 92.9361C127.039 93.3355 126.965 93.7748 126.965 94.2541C126.965 94.722 127.045 95.1613 127.204 95.5721C127.364 95.9829 127.575 96.3424 127.838 96.6505C128.111 96.9472 128.425 97.1811 128.779 97.3523C129.144 97.5235 129.532 97.609 129.943 97.609C130.205 97.609 130.462 97.5748 130.713 97.5063C130.976 97.4265 131.21 97.3238 131.415 97.1982C131.632 97.0727 131.82 96.9301 131.98 96.7703C132.14 96.5991 132.254 96.4165 132.322 96.2226L133.794 96.6676C133.657 96.9985 133.463 97.3009 133.212 97.5748C132.973 97.8487 132.687 98.0826 132.357 98.2766C132.026 98.4706 131.655 98.6247 131.244 98.7388C130.845 98.8529 130.422 98.9099 129.977 98.9099C129.304 98.9099 128.688 98.7844 128.129 98.5334C127.569 98.2823 127.09 97.9457 126.691 97.5235C126.291 97.1012 125.978 96.6105 125.749 96.0514C125.533 95.4808 125.424 94.8817 125.424 94.2541ZM140.123 98.2937C140.031 98.3394 139.912 98.3964 139.763 98.4649C139.615 98.522 139.444 98.5847 139.25 98.6532C139.067 98.7102 138.862 98.7559 138.634 98.7901C138.417 98.8358 138.189 98.8586 137.949 98.8586C137.401 98.8586 136.928 98.7102 136.528 98.4135C136.129 98.1054 135.929 97.6319 135.929 96.9928V90.9847H134.714V89.8036H135.929V86.8253H137.435V89.8036H139.438V90.9847H137.435V96.5307C137.458 96.8616 137.567 97.1012 137.761 97.2496C137.955 97.3979 138.183 97.4721 138.445 97.4721C138.742 97.4721 139.01 97.4265 139.25 97.3352C139.501 97.2325 139.672 97.1526 139.763 97.0955L140.123 98.2937ZM144.651 98.9099C143.932 98.9099 143.225 98.8015 142.529 98.5847C141.833 98.3565 141.234 98.0313 140.731 97.609L141.382 96.5991C141.907 96.9985 142.432 97.3009 142.957 97.5063C143.482 97.7003 144.035 97.7973 144.617 97.7973C145.268 97.7973 145.781 97.6718 146.158 97.4208C146.546 97.1583 146.74 96.7931 146.74 96.3253C146.74 96.1084 146.688 95.9259 146.586 95.7775C146.483 95.6177 146.329 95.4808 146.123 95.3667C145.918 95.2526 145.656 95.1499 145.336 95.0586C145.016 94.9673 144.646 94.8703 144.223 94.7676C143.687 94.6307 143.225 94.4994 142.837 94.3739C142.449 94.2484 142.129 94.1 141.878 93.9289C141.627 93.7577 141.445 93.5523 141.331 93.3126C141.216 93.073 141.159 92.7763 141.159 92.4226C141.159 91.9775 141.245 91.5838 141.416 91.2415C141.599 90.8877 141.844 90.5967 142.152 90.3685C142.46 90.1289 142.82 89.952 143.231 89.8379C143.653 89.7123 144.104 89.6496 144.583 89.6496C145.256 89.6496 145.884 89.758 146.466 89.9748C147.048 90.1916 147.538 90.4769 147.938 90.8307L147.253 91.7379C146.877 91.4069 146.454 91.1616 145.986 91.0018C145.519 90.8307 145.039 90.7451 144.549 90.7451C144.001 90.7451 143.533 90.8649 143.145 91.1045C142.768 91.3328 142.58 91.7036 142.58 92.2171C142.58 92.4226 142.614 92.5937 142.683 92.7307C142.763 92.8676 142.888 92.9874 143.059 93.0901C143.231 93.1928 143.447 93.2841 143.71 93.364C143.984 93.4439 144.309 93.5295 144.686 93.6208C145.279 93.7577 145.792 93.9003 146.226 94.0487C146.671 94.1856 147.036 94.3511 147.322 94.5451C147.618 94.7391 147.835 94.9673 147.972 95.2298C148.12 95.4922 148.195 95.8117 148.195 96.1883C148.195 97.0214 147.875 97.6832 147.236 98.1739C146.597 98.6646 145.735 98.9099 144.651 98.9099Z" fill="white"/>
<path d="M317.08 36.8774H298.436V31.4036H326.51L307.27 69.8829H300.496L317.08 36.8774ZM357.123 47.1205C357.123 50.3 356.509 53.1363 355.28 55.6293C354.088 58.0862 352.444 60.0192 350.348 61.4283C348.289 62.8374 345.922 63.542 343.249 63.542C340.611 63.542 338.245 62.8374 336.149 61.4283C334.053 60.0192 332.391 58.0862 331.163 55.6293C329.971 53.1363 329.374 50.3 329.374 47.1205C329.374 43.941 329.971 41.1228 331.163 38.6659C332.391 36.1729 334.053 34.2218 336.149 32.8127C338.245 31.3675 340.611 30.6449 343.249 30.6449C345.922 30.6449 348.289 31.3675 350.348 32.8127C352.444 34.2218 354.088 36.1729 355.28 38.6659C356.509 41.1228 357.123 43.941 357.123 47.1205ZM351.053 47.1205C351.053 44.9527 350.728 43.0558 350.077 41.4299C349.427 39.7679 348.506 38.4852 347.313 37.582C346.121 36.6426 344.766 36.1729 343.249 36.1729C341.695 36.1729 340.322 36.6426 339.13 37.582C337.937 38.4852 336.998 39.7679 336.312 41.4299C335.661 43.0558 335.336 44.9527 335.336 47.1205C335.336 49.2884 335.661 51.1852 336.312 52.8111C336.998 54.437 337.937 55.7196 339.13 56.659C340.322 57.5623 341.695 58.0139 343.249 58.0139C344.766 58.0139 346.103 57.5623 347.259 56.659C348.452 55.7196 349.373 54.437 350.023 52.8111C350.71 51.1852 351.053 49.2884 351.053 47.1205Z" fill="white"/>
<path d="M379.953 41.3757V46.145H373.938V52.7027H368.572V46.145H362.557V41.3757H368.572V34.818H373.938V41.3757H379.953Z" fill="#CCA351"/>
<path d="M299.298 92.5766C299.298 91.8463 299.424 91.1217 299.675 90.4027C299.937 89.6724 300.314 89.022 300.805 88.4514C301.307 87.8694 301.917 87.4015 302.636 87.0478C303.355 86.694 304.171 86.5171 305.084 86.5171C306.168 86.5171 307.098 86.7625 307.874 87.2532C308.65 87.7439 309.226 88.3829 309.603 89.1703L308.387 89.9577C308.205 89.5697 307.982 89.2445 307.72 88.982C307.469 88.7195 307.189 88.5084 306.881 88.3487C306.584 88.1889 306.276 88.0748 305.957 88.0063C305.637 87.9379 305.324 87.9036 305.015 87.9036C304.342 87.9036 303.743 88.0463 303.218 88.3316C302.705 88.6054 302.271 88.9706 301.917 89.4271C301.563 89.8721 301.295 90.3799 301.113 90.9505C300.942 91.5096 300.856 92.0745 300.856 92.6451C300.856 93.2841 300.959 93.8946 301.164 94.4766C301.381 95.0472 301.678 95.555 302.054 96C302.431 96.4451 302.876 96.7988 303.389 97.0613C303.903 97.3238 304.462 97.455 305.067 97.455C305.386 97.455 305.712 97.415 306.042 97.3352C306.385 97.2553 306.71 97.1298 307.018 96.9586C307.326 96.776 307.612 96.5535 307.874 96.291C308.148 96.0171 308.37 95.6919 308.542 95.3153L309.825 96.0171C309.631 96.4736 309.357 96.8787 309.004 97.2325C308.661 97.5748 308.268 97.8658 307.823 98.1054C307.389 98.3451 306.927 98.5277 306.436 98.6532C305.945 98.7787 305.466 98.8415 304.998 98.8415C304.165 98.8415 303.401 98.6589 302.705 98.2937C302.009 97.9286 301.404 97.455 300.89 96.873C300.388 96.2796 299.994 95.612 299.709 94.8703C299.435 94.1171 299.298 93.3526 299.298 92.5766ZM311.548 86.2433H313.054V96.428C313.054 96.7589 313.14 97.0214 313.311 97.2153C313.494 97.3979 313.745 97.4892 314.064 97.4892C314.19 97.4892 314.338 97.4721 314.509 97.4379C314.68 97.3922 314.84 97.3409 314.989 97.2838L315.228 98.4991C314.977 98.6018 314.68 98.6874 314.338 98.7559C313.996 98.8244 313.693 98.8586 313.431 98.8586C312.849 98.8586 312.387 98.6931 312.044 98.3622C311.713 98.0313 311.548 97.5691 311.548 96.9757V86.2433ZM316.412 98.7388V89.8036H317.918V98.7388H316.412ZM316.412 88.1262V86.2433H317.918V88.1262H316.412ZM324.311 98.9099C323.637 98.9099 323.021 98.7901 322.462 98.5505C321.903 98.2994 321.423 97.9628 321.024 97.5406C320.625 97.1183 320.311 96.6277 320.083 96.0685C319.866 95.4979 319.757 94.8988 319.757 94.2712C319.757 93.6436 319.866 93.0502 320.083 92.491C320.311 91.9319 320.625 91.4412 321.024 91.0189C321.435 90.5967 321.92 90.2658 322.479 90.0262C323.038 89.7751 323.654 89.6496 324.328 89.6496C325.001 89.6496 325.611 89.7751 326.159 90.0262C326.718 90.2772 327.192 90.6138 327.58 91.0361C327.968 91.4469 328.265 91.9319 328.47 92.491C328.687 93.0388 328.795 93.6093 328.795 94.2027C328.795 94.3283 328.79 94.4424 328.778 94.5451C328.778 94.6478 328.772 94.7277 328.761 94.7847H321.349C321.384 95.2298 321.486 95.6349 321.657 96C321.829 96.3652 322.051 96.679 322.325 96.9415C322.599 97.2039 322.907 97.4093 323.249 97.5577C323.603 97.706 323.974 97.7802 324.362 97.7802C324.636 97.7802 324.904 97.746 325.166 97.6775C325.429 97.5976 325.674 97.4949 325.902 97.3694C326.131 97.2439 326.33 97.0898 326.502 96.9072C326.684 96.7247 326.821 96.5192 326.912 96.291L328.213 96.6505C328.065 96.9814 327.86 97.2838 327.597 97.5577C327.346 97.8316 327.049 98.0712 326.707 98.2766C326.376 98.4706 326.005 98.6247 325.594 98.7388C325.184 98.8529 324.756 98.9099 324.311 98.9099ZM327.375 93.6721C327.34 93.2499 327.232 92.8619 327.049 92.5081C326.878 92.143 326.656 91.8349 326.382 91.5838C326.119 91.3328 325.811 91.1388 325.457 91.0018C325.104 90.8535 324.727 90.7793 324.328 90.7793C323.928 90.7793 323.552 90.8535 323.198 91.0018C322.844 91.1388 322.53 91.3385 322.257 91.6009C321.994 91.852 321.777 92.1544 321.606 92.5081C321.446 92.8619 321.349 93.2499 321.315 93.6721H327.375ZM338.224 98.7388H336.717V93.7406C336.717 92.782 336.569 92.0859 336.272 91.6523C335.987 91.2186 335.548 91.0018 334.954 91.0018C334.646 91.0018 334.338 91.0646 334.03 91.1901C333.722 91.3042 333.431 91.464 333.157 91.6694C332.883 91.8748 332.644 92.1202 332.438 92.4054C332.233 92.6907 332.079 93.0045 331.976 93.3469V98.7388H330.47V89.8036H331.839V91.7208C332.193 91.0931 332.701 90.591 333.362 90.2144C334.036 89.8379 334.766 89.6496 335.553 89.6496C336.067 89.6496 336.495 89.7466 336.837 89.9406C337.18 90.1232 337.453 90.3856 337.659 90.728C337.864 91.0589 338.007 91.4526 338.087 91.909C338.178 92.3655 338.224 92.8619 338.224 93.3982V98.7388ZM345.104 98.2937C345.013 98.3394 344.893 98.3964 344.745 98.4649C344.596 98.522 344.425 98.5847 344.231 98.6532C344.049 98.7102 343.843 98.7559 343.615 98.7901C343.398 98.8358 343.17 98.8586 342.93 98.8586C342.382 98.8586 341.909 98.7102 341.51 98.4135C341.11 98.1054 340.91 97.6319 340.91 96.9928V90.9847H339.695V89.8036H340.91V86.8253H342.417V89.8036H344.419V90.9847H342.417V96.5307C342.44 96.8616 342.548 97.1012 342.742 97.2496C342.936 97.3979 343.164 97.4721 343.427 97.4721C343.723 97.4721 343.992 97.4265 344.231 97.3352C344.482 97.2325 344.653 97.1526 344.745 97.0955L345.104 98.2937ZM349.633 98.9099C348.914 98.9099 348.206 98.8015 347.51 98.5847C346.814 98.3565 346.215 98.0313 345.713 97.609L346.363 96.5991C346.888 96.9985 347.413 97.3009 347.938 97.5063C348.463 97.7003 349.016 97.7973 349.598 97.7973C350.249 97.7973 350.762 97.6718 351.139 97.4208C351.527 97.1583 351.721 96.7931 351.721 96.3253C351.721 96.1084 351.67 95.9259 351.567 95.7775C351.464 95.6177 351.31 95.4808 351.105 95.3667C350.899 95.2526 350.637 95.1499 350.317 95.0586C349.998 94.9673 349.627 94.8703 349.205 94.7676C348.668 94.6307 348.206 94.4994 347.818 94.3739C347.43 94.2484 347.111 94.1 346.86 93.9289C346.609 93.7577 346.426 93.5523 346.312 93.3126C346.198 93.073 346.141 92.7763 346.141 92.4226C346.141 91.9775 346.226 91.5838 346.398 91.2415C346.58 90.8877 346.825 90.5967 347.134 90.3685C347.442 90.1289 347.801 89.952 348.212 89.8379C348.634 89.7123 349.085 89.6496 349.564 89.6496C350.237 89.6496 350.865 89.758 351.447 89.9748C352.029 90.1916 352.52 90.4769 352.919 90.8307L352.234 91.7379C351.858 91.4069 351.436 91.1616 350.968 91.0018C350.5 90.8307 350.021 90.7451 349.53 90.7451C348.982 90.7451 348.514 90.8649 348.126 91.1045C347.75 91.3328 347.561 91.7036 347.561 92.2171C347.561 92.4226 347.596 92.5937 347.664 92.7307C347.744 92.8676 347.87 92.9874 348.041 93.0901C348.212 93.1928 348.429 93.2841 348.691 93.364C348.965 93.4439 349.29 93.5295 349.667 93.6208C350.26 93.7577 350.774 93.9003 351.207 94.0487C351.652 94.1856 352.018 94.3511 352.303 94.5451C352.6 94.7391 352.816 94.9673 352.953 95.2298C353.102 95.4922 353.176 95.8117 353.176 96.1883C353.176 97.0214 352.856 97.6832 352.217 98.1739C351.578 98.6646 350.717 98.9099 349.633 98.9099Z" fill="white"/>
<path d="M595.681 45.3862C595.681 42.9293 596.295 40.6892 597.523 38.6659C598.752 36.6426 600.414 35.0347 602.509 33.8424C604.641 32.6501 607.008 32.054 609.609 32.054C612.427 32.054 614.884 32.7404 616.98 34.1134C619.075 35.4502 620.701 37.4013 621.857 39.9666C623.05 42.4958 623.646 45.5488 623.646 49.1258C623.646 54.0396 623.032 58.1404 621.803 61.4283C620.611 64.7162 618.913 67.1912 616.709 68.8532C614.505 70.5152 611.921 71.3462 608.959 71.3462C606.538 71.3462 604.298 70.7681 602.238 69.6119C600.179 68.4919 598.517 66.9202 597.252 64.8969L600.775 61.2115C601.606 62.6929 602.762 63.8852 604.244 64.7885C605.725 65.6917 607.333 66.1434 609.067 66.1434C610.874 66.1434 612.445 65.6195 613.782 64.5717C615.119 63.56 616.149 62.0787 616.871 60.1276C617.63 58.1765 618.027 55.81 618.064 53.0279C617.558 54.0757 616.853 54.997 615.95 55.7919C615.047 56.5868 613.999 57.201 612.807 57.6346C611.65 58.0681 610.386 58.2849 609.013 58.2849C606.52 58.2849 604.262 57.7068 602.238 56.5506C600.215 55.3945 598.607 53.8589 597.415 51.944C596.259 49.9929 595.681 47.807 595.681 45.3862ZM609.555 37.1484C608.073 37.1484 606.7 37.5278 605.436 38.2865C604.207 39.0091 603.214 40.0027 602.455 41.2673C601.732 42.4958 601.371 43.8687 601.371 45.3862C601.371 46.8676 601.732 48.2225 602.455 49.4509C603.214 50.6794 604.207 51.673 605.436 52.4317C606.7 53.1544 608.073 53.5157 609.555 53.5157C611.072 53.5157 612.445 53.1544 613.674 52.4317C614.902 51.673 615.878 50.6794 616.6 49.4509C617.359 48.2225 617.738 46.8676 617.738 45.3862C617.738 43.9049 617.359 42.5319 616.6 41.2673C615.842 40.0027 614.848 39.0091 613.62 38.2865C612.391 37.5278 611.036 37.1484 609.555 37.1484ZM645.913 36.8774H627.27V31.4036H655.343L636.104 69.8829H629.329L645.913 36.8774Z" fill="white"/>
<path d="M666.066 40.075C664.476 40.075 663.013 39.7137 661.676 38.9911C660.376 38.2685 659.328 37.311 658.533 36.1187C657.774 34.8902 657.395 33.5353 657.395 32.054C657.395 30.5365 657.774 29.1816 658.533 27.9892C659.328 26.7608 660.376 25.7853 661.676 25.0626C663.013 24.34 664.476 23.9787 666.066 23.9787C667.656 23.9787 669.101 24.34 670.402 25.0626C671.703 25.7853 672.732 26.7608 673.491 27.9892C674.25 29.1816 674.629 30.5184 674.629 31.9998C674.629 33.4811 674.25 34.836 673.491 36.0645C672.732 37.2929 671.703 38.2685 670.402 38.9911C669.101 39.7137 667.656 40.075 666.066 40.075ZM666.012 36.9858C666.843 36.9858 667.584 36.769 668.234 36.3355C668.921 35.8658 669.444 35.2515 669.806 34.4928C670.203 33.734 670.402 32.9211 670.402 32.054C670.402 31.1146 670.203 30.2655 669.806 29.5067C669.408 28.748 668.866 28.1518 668.18 27.7183C667.53 27.2847 666.825 27.0679 666.066 27.0679C665.235 27.0679 664.476 27.3027 663.79 27.7724C663.14 28.206 662.616 28.8022 662.218 29.5609C661.821 30.3197 661.622 31.1326 661.622 31.9998C661.622 32.9392 661.821 33.7882 662.218 34.547C662.652 35.2696 663.194 35.8658 663.844 36.3355C664.531 36.769 665.253 36.9858 666.012 36.9858ZM685.956 63.542C684.366 63.542 682.921 63.1807 681.621 62.458C680.32 61.7354 679.272 60.7599 678.477 59.5314C677.718 58.303 677.339 56.9481 677.339 55.4667C677.339 53.9854 677.718 52.6485 678.477 51.4562C679.272 50.2278 680.32 49.2522 681.621 48.5296C682.921 47.807 684.366 47.4457 685.956 47.4457C687.582 47.4457 689.045 47.807 690.346 48.5296C691.647 49.2161 692.677 50.1736 693.435 51.402C694.194 52.6305 694.573 53.9854 694.573 55.4667C694.573 56.9481 694.194 58.303 693.435 59.5314C692.677 60.7599 691.647 61.7354 690.346 62.458C689.045 63.1807 687.582 63.542 685.956 63.542ZM685.956 60.4528C686.787 60.4528 687.528 60.2179 688.178 59.7482C688.865 59.2785 689.389 58.6824 689.75 57.9598C690.147 57.201 690.346 56.3881 690.346 55.5209C690.346 54.5815 690.147 53.7324 689.75 52.9737C689.353 52.215 688.811 51.6188 688.124 51.1852C687.474 50.7517 686.751 50.5349 685.956 50.5349C685.161 50.5349 684.421 50.7697 683.734 51.2394C683.084 51.673 682.56 52.2691 682.163 53.0279C681.765 53.7866 681.566 54.5996 681.566 55.4667C681.566 56.37 681.765 57.201 682.163 57.9598C682.596 58.7185 683.138 59.3327 683.788 59.8024C684.439 60.236 685.161 60.4528 685.956 60.4528ZM659.834 60.8322L675.063 42.7848L689.371 24.1955L692.189 26.6343L677.231 44.4649L662.598 63.3252L659.834 60.8322Z" fill="#CCA351"/>
<path d="M596.217 92.5766C596.217 91.8463 596.343 91.1217 596.594 90.4027C596.856 89.6724 597.233 89.022 597.724 88.4514C598.226 87.8694 598.836 87.4015 599.555 87.0478C600.274 86.694 601.09 86.5171 602.003 86.5171C603.087 86.5171 604.017 86.7625 604.793 87.2532C605.569 87.7439 606.145 88.3829 606.522 89.1703L605.306 89.9577C605.124 89.5697 604.901 89.2445 604.639 88.982C604.388 88.7195 604.108 88.5084 603.8 88.3487C603.503 88.1889 603.195 88.0748 602.876 88.0063C602.556 87.9379 602.242 87.9036 601.934 87.9036C601.261 87.9036 600.662 88.0463 600.137 88.3316C599.624 88.6054 599.19 88.9706 598.836 89.4271C598.482 89.8721 598.214 90.3799 598.032 90.9505C597.86 91.5096 597.775 92.0745 597.775 92.6451C597.775 93.2841 597.878 93.8946 598.083 94.4766C598.3 95.0472 598.597 95.555 598.973 96C599.35 96.4451 599.795 96.7988 600.308 97.0613C600.822 97.3238 601.381 97.455 601.986 97.455C602.305 97.455 602.63 97.415 602.961 97.3352C603.304 97.2553 603.629 97.1298 603.937 96.9586C604.245 96.776 604.53 96.5535 604.793 96.291C605.067 96.0171 605.289 95.6919 605.46 95.3153L606.744 96.0171C606.55 96.4736 606.276 96.8787 605.923 97.2325C605.58 97.5748 605.187 97.8658 604.742 98.1054C604.308 98.3451 603.846 98.5277 603.355 98.6532C602.864 98.7787 602.385 98.8415 601.917 98.8415C601.084 98.8415 600.32 98.6589 599.624 98.2937C598.927 97.9286 598.323 97.455 597.809 96.873C597.307 96.2796 596.913 95.612 596.628 94.8703C596.354 94.1171 596.217 93.3526 596.217 92.5766ZM608.467 86.2433H609.973V96.428C609.973 96.7589 610.059 97.0214 610.23 97.2153C610.413 97.3979 610.664 97.4892 610.983 97.4892C611.109 97.4892 611.257 97.4721 611.428 97.4379C611.599 97.3922 611.759 97.3409 611.907 97.2838L612.147 98.4991C611.896 98.6018 611.599 98.6874 611.257 98.7559C610.915 98.8244 610.612 98.8586 610.35 98.8586C609.768 98.8586 609.306 98.6931 608.963 98.3622C608.632 98.0313 608.467 97.5691 608.467 96.9757V86.2433ZM613.33 98.7388V89.8036H614.837V98.7388H613.33ZM613.33 88.1262V86.2433H614.837V88.1262H613.33ZM621.23 98.9099C620.556 98.9099 619.94 98.7901 619.381 98.5505C618.822 98.2994 618.342 97.9628 617.943 97.5406C617.544 97.1183 617.23 96.6277 617.002 96.0685C616.785 95.4979 616.676 94.8988 616.676 94.2712C616.676 93.6436 616.785 93.0502 617.002 92.491C617.23 91.9319 617.544 91.4412 617.943 91.0189C618.354 90.5967 618.839 90.2658 619.398 90.0262C619.957 89.7751 620.573 89.6496 621.247 89.6496C621.92 89.6496 622.53 89.7751 623.078 90.0262C623.637 90.2772 624.111 90.6138 624.499 91.0361C624.887 91.4469 625.184 91.9319 625.389 92.491C625.606 93.0388 625.714 93.6093 625.714 94.2027C625.714 94.3283 625.708 94.4424 625.697 94.5451C625.697 94.6478 625.691 94.7277 625.68 94.7847H618.268C618.302 95.2298 618.405 95.6349 618.576 96C618.748 96.3652 618.97 96.679 619.244 96.9415C619.518 97.2039 619.826 97.4093 620.168 97.5577C620.522 97.706 620.893 97.7802 621.281 97.7802C621.555 97.7802 621.823 97.746 622.085 97.6775C622.348 97.5976 622.593 97.4949 622.821 97.3694C623.05 97.2439 623.249 97.0898 623.42 96.9072C623.603 96.7247 623.74 96.5192 623.831 96.291L625.132 96.6505C624.984 96.9814 624.778 97.2838 624.516 97.5577C624.265 97.8316 623.968 98.0712 623.626 98.2766C623.295 98.4706 622.924 98.6247 622.513 98.7388C622.102 98.8529 621.675 98.9099 621.23 98.9099ZM624.293 93.6721C624.259 93.2499 624.151 92.8619 623.968 92.5081C623.797 92.143 623.575 91.8349 623.301 91.5838C623.038 91.3328 622.73 91.1388 622.376 91.0018C622.023 90.8535 621.646 90.7793 621.247 90.7793C620.847 90.7793 620.471 90.8535 620.117 91.0018C619.763 91.1388 619.449 91.3385 619.175 91.6009C618.913 91.852 618.696 92.1544 618.525 92.5081C618.365 92.8619 618.268 93.2499 618.234 93.6721H624.293ZM635.143 98.7388H633.636V93.7406C633.636 92.782 633.488 92.0859 633.191 91.6523C632.906 91.2186 632.467 91.0018 631.873 91.0018C631.565 91.0018 631.257 91.0646 630.949 91.1901C630.641 91.3042 630.35 91.464 630.076 91.6694C629.802 91.8748 629.562 92.1202 629.357 92.4054C629.152 92.6907 628.998 93.0045 628.895 93.3469V98.7388H627.389V89.8036H628.758V91.7208C629.112 91.0931 629.62 90.591 630.281 90.2144C630.955 89.8379 631.685 89.6496 632.472 89.6496C632.986 89.6496 633.414 89.7466 633.756 89.9406C634.099 90.1232 634.372 90.3856 634.578 90.728C634.783 91.0589 634.926 91.4526 635.006 91.909C635.097 92.3655 635.143 92.8619 635.143 93.3982V98.7388ZM642.023 98.2937C641.932 98.3394 641.812 98.3964 641.664 98.4649C641.515 98.522 641.344 98.5847 641.15 98.6532C640.968 98.7102 640.762 98.7559 640.534 98.7901C640.317 98.8358 640.089 98.8586 639.849 98.8586C639.301 98.8586 638.828 98.7102 638.428 98.4135C638.029 98.1054 637.829 97.6319 637.829 96.9928V90.9847H636.614V89.8036H637.829V86.8253H639.336V89.8036H641.338V90.9847H639.336V96.5307C639.358 96.8616 639.467 97.1012 639.661 97.2496C639.855 97.3979 640.083 97.4721 640.346 97.4721C640.642 97.4721 640.91 97.4265 641.15 97.3352C641.401 97.2325 641.572 97.1526 641.664 97.0955L642.023 98.2937ZM655.126 89.1361C654.989 88.9763 654.807 88.8223 654.578 88.6739C654.35 88.5256 654.093 88.3943 653.808 88.2802C653.523 88.1547 653.209 88.0577 652.867 87.9892C652.536 87.9093 652.188 87.8694 651.822 87.8694C650.875 87.8694 650.179 88.0463 649.734 88.4C649.301 88.7538 649.084 89.2388 649.084 89.855C649.084 90.1859 649.147 90.4598 649.272 90.6766C649.398 90.8934 649.592 91.0817 649.854 91.2415C650.128 91.3898 650.465 91.5211 650.864 91.6352C651.263 91.7493 651.737 91.8691 652.285 91.9946C652.912 92.1316 653.477 92.2913 653.979 92.4739C654.493 92.6451 654.926 92.8619 655.28 93.1244C655.645 93.3868 655.919 93.7063 656.102 94.0829C656.296 94.4595 656.393 94.9217 656.393 95.4694C656.393 96.0514 656.279 96.5592 656.05 96.9928C655.822 97.415 655.508 97.7688 655.109 98.0541C654.721 98.328 654.259 98.5334 653.722 98.6703C653.186 98.7958 652.604 98.8586 651.977 98.8586C651.041 98.8586 650.151 98.7159 649.306 98.4307C648.473 98.134 647.714 97.706 647.03 97.1469L647.766 95.846C647.948 96.04 648.182 96.234 648.468 96.428C648.764 96.622 649.095 96.7988 649.46 96.9586C649.837 97.1069 650.236 97.2325 650.659 97.3352C651.092 97.4265 651.543 97.4721 652.011 97.4721C652.878 97.4721 653.551 97.318 654.031 97.0099C654.51 96.7018 654.75 96.2397 654.75 95.6235C654.75 95.2811 654.67 94.9958 654.51 94.7676C654.362 94.528 654.139 94.3226 653.842 94.1514C653.546 93.9802 653.175 93.8319 652.73 93.7063C652.296 93.5694 651.8 93.4325 651.24 93.2955C650.624 93.1472 650.082 92.9874 649.614 92.8162C649.147 92.6451 648.753 92.4397 648.433 92.2C648.125 91.9604 647.891 91.6694 647.731 91.3271C647.572 90.9847 647.492 90.5739 647.492 90.0946C647.492 89.5126 647.6 88.9991 647.817 88.5541C648.034 88.109 648.336 87.7325 648.724 87.4244C649.112 87.1162 649.574 86.888 650.111 86.7397C650.647 86.5799 651.229 86.5 651.857 86.5C652.678 86.5 653.42 86.6256 654.082 86.8766C654.744 87.1277 655.331 87.4643 655.845 87.8865L655.126 89.1361ZM660.473 98.9099C660.051 98.9099 659.657 98.8415 659.292 98.7045C658.927 98.5562 658.607 98.3565 658.333 98.1054C658.071 97.8544 657.86 97.5634 657.7 97.2325C657.552 96.8901 657.478 96.5192 657.478 96.1199C657.478 95.709 657.569 95.3382 657.751 95.0072C657.934 94.6649 658.191 94.3739 658.522 94.1343C658.864 93.8946 659.263 93.7063 659.72 93.5694C660.188 93.4325 660.696 93.364 661.243 93.364C661.677 93.364 662.116 93.4039 662.561 93.4838C663.006 93.5637 663.4 93.6721 663.742 93.809V93.0901C663.742 92.3598 663.537 91.7892 663.126 91.3784C662.715 90.9562 662.133 90.7451 661.38 90.7451C660.479 90.7451 659.532 91.0931 658.539 91.7892L658.042 90.8135C659.195 90.0376 660.353 89.6496 661.517 89.6496C662.693 89.6496 663.605 89.9634 664.256 90.591C664.918 91.2186 665.249 92.103 665.249 93.2442V96.8901C665.249 97.2439 665.408 97.4265 665.728 97.4379V98.7388C665.568 98.7616 665.437 98.7787 665.334 98.7901C665.232 98.8015 665.123 98.8072 665.009 98.8072C664.712 98.8072 664.473 98.7217 664.29 98.5505C664.119 98.3679 664.016 98.1511 663.982 97.9L663.948 97.2667C663.548 97.803 663.041 98.2138 662.424 98.4991C661.82 98.773 661.169 98.9099 660.473 98.9099ZM660.867 97.7802C661.403 97.7802 661.899 97.6832 662.356 97.4892C662.824 97.2838 663.178 97.0156 663.417 96.6847C663.634 96.4679 663.742 96.2454 663.742 96.0171V94.6991C663.012 94.4138 662.253 94.2712 661.466 94.2712C660.713 94.2712 660.096 94.431 659.617 94.7505C659.149 95.07 658.915 95.4865 658.915 96C658.915 96.2511 658.961 96.485 659.052 96.7018C659.155 96.9186 659.292 97.1069 659.463 97.2667C659.646 97.4265 659.857 97.552 660.096 97.6433C660.336 97.7346 660.593 97.7802 660.867 97.7802ZM672.212 98.2937C672.121 98.3394 672.001 98.3964 671.853 98.4649C671.704 98.522 671.533 98.5847 671.339 98.6532C671.156 98.7102 670.951 98.7559 670.723 98.7901C670.506 98.8358 670.278 98.8586 670.038 98.8586C669.49 98.8586 669.017 98.7102 668.617 98.4135C668.218 98.1054 668.018 97.6319 668.018 96.9928V90.9847H666.803V89.8036H668.018V86.8253H669.525V89.8036H671.527V90.9847H669.525V96.5307C669.547 96.8616 669.656 97.1012 669.85 97.2496C670.044 97.3979 670.272 97.4721 670.535 97.4721C670.831 97.4721 671.099 97.4265 671.339 97.3352C671.59 97.2325 671.761 97.1526 671.853 97.0955L672.212 98.2937ZM673.608 98.7388V89.8036H675.114V98.7388H673.608ZM673.608 88.1262V86.2433H675.114V88.1262H673.608ZM680.686 98.9099C679.967 98.9099 679.259 98.8015 678.563 98.5847C677.867 98.3565 677.268 98.0313 676.766 97.609L677.416 96.5991C677.941 96.9985 678.466 97.3009 678.991 97.5063C679.516 97.7003 680.069 97.7973 680.651 97.7973C681.302 97.7973 681.815 97.6718 682.192 97.4208C682.58 97.1583 682.774 96.7931 682.774 96.3253C682.774 96.1084 682.722 95.9259 682.62 95.7775C682.517 95.6177 682.363 95.4808 682.158 95.3667C681.952 95.2526 681.69 95.1499 681.37 95.0586C681.051 94.9673 680.68 94.8703 680.258 94.7676C679.721 94.6307 679.259 94.4994 678.871 94.3739C678.483 94.2484 678.164 94.1 677.913 93.9289C677.662 93.7577 677.479 93.5523 677.365 93.3126C677.251 93.073 677.194 92.7763 677.194 92.4226C677.194 91.9775 677.279 91.5838 677.45 91.2415C677.633 90.8877 677.878 90.5967 678.186 90.3685C678.495 90.1289 678.854 89.952 679.265 89.8379C679.687 89.7123 680.138 89.6496 680.617 89.6496C681.29 89.6496 681.918 89.758 682.5 89.9748C683.082 90.1916 683.573 90.4769 683.972 90.8307L683.287 91.7379C682.911 91.4069 682.489 91.1616 682.021 91.0018C681.553 90.8307 681.074 90.7451 680.583 90.7451C680.035 90.7451 679.567 90.8649 679.179 91.1045C678.803 91.3328 678.614 91.7036 678.614 92.2171C678.614 92.4226 678.649 92.5937 678.717 92.7307C678.797 92.8676 678.922 92.9874 679.094 93.0901C679.265 93.1928 679.482 93.2841 679.744 93.364C680.018 93.4439 680.343 93.5295 680.72 93.6208C681.313 93.7577 681.827 93.9003 682.26 94.0487C682.705 94.1856 683.071 94.3511 683.356 94.5451C683.653 94.7391 683.869 94.9673 684.006 95.2298C684.155 95.4922 684.229 95.8117 684.229 96.1883C684.229 97.0214 683.909 97.6832 683.27 98.1739C682.631 98.6646 681.77 98.9099 680.686 98.9099ZM686.491 98.7388V90.9847H685.275V89.8036H686.491V89.6153C686.491 88.5084 686.736 87.6412 687.227 87.0135C687.717 86.3859 688.385 86.0721 689.229 86.0721C689.583 86.0721 689.931 86.1235 690.274 86.2262C690.616 86.3174 690.924 86.4487 691.198 86.6198L690.821 87.7325C690.662 87.6183 690.462 87.5271 690.222 87.4586C689.994 87.3901 689.766 87.3559 689.538 87.3559C689.035 87.3559 688.653 87.5442 688.391 87.9207C688.128 88.2973 687.997 88.8451 687.997 89.564V89.8036H690.376V90.9847H687.997V98.7388H686.491ZM694.172 98.9099C693.75 98.9099 693.356 98.8415 692.991 98.7045C692.626 98.5562 692.307 98.3565 692.033 98.1054C691.77 97.8544 691.559 97.5634 691.399 97.2325C691.251 96.8901 691.177 96.5192 691.177 96.1199C691.177 95.709 691.268 95.3382 691.451 95.0072C691.633 94.6649 691.89 94.3739 692.221 94.1343C692.563 93.8946 692.963 93.7063 693.419 93.5694C693.887 93.4325 694.395 93.364 694.943 93.364C695.376 93.364 695.816 93.4039 696.261 93.4838C696.706 93.5637 697.099 93.6721 697.442 93.809V93.0901C697.442 92.3598 697.236 91.7892 696.826 91.3784C696.415 90.9562 695.833 90.7451 695.08 90.7451C694.178 90.7451 693.231 91.0931 692.238 91.7892L691.742 90.8135C692.894 90.0376 694.053 89.6496 695.217 89.6496C696.392 89.6496 697.305 89.9634 697.955 90.591C698.617 91.2186 698.948 92.103 698.948 93.2442V96.8901C698.948 97.2439 699.108 97.4265 699.427 97.4379V98.7388C699.268 98.7616 699.136 98.7787 699.034 98.7901C698.931 98.8015 698.823 98.8072 698.708 98.8072C698.412 98.8072 698.172 98.7217 697.989 98.5505C697.818 98.3679 697.716 98.1511 697.681 97.9L697.647 97.2667C697.248 97.803 696.74 98.2138 696.124 98.4991C695.519 98.773 694.868 98.9099 694.172 98.9099ZM694.566 97.7802C695.102 97.7802 695.599 97.6832 696.055 97.4892C696.523 97.2838 696.877 97.0156 697.117 96.6847C697.333 96.4679 697.442 96.2454 697.442 96.0171V94.6991C696.711 94.4138 695.953 94.2712 695.165 94.2712C694.412 94.2712 693.796 94.431 693.317 94.7505C692.849 95.07 692.615 95.4865 692.615 96C692.615 96.2511 692.66 96.485 692.752 96.7018C692.854 96.9186 692.991 97.1069 693.162 97.2667C693.345 97.4265 693.556 97.552 693.796 97.6433C694.035 97.7346 694.292 97.7802 694.566 97.7802ZM700.758 94.2541C700.758 93.6265 700.866 93.0331 701.083 92.4739C701.3 91.9147 701.608 91.4298 702.007 91.0189C702.406 90.5967 702.88 90.2658 703.428 90.0262C703.987 89.7751 704.609 89.6496 705.294 89.6496C706.184 89.6496 706.948 89.8493 707.587 90.2487C708.238 90.6367 708.728 91.1616 709.059 91.8235L707.587 92.2856C707.359 91.8634 707.039 91.5382 706.629 91.3099C706.218 91.0703 705.761 90.9505 705.259 90.9505C704.849 90.9505 704.461 91.0361 704.095 91.2072C703.73 91.367 703.416 91.5952 703.154 91.8919C702.891 92.1886 702.68 92.5367 702.521 92.9361C702.372 93.3355 702.298 93.7748 702.298 94.2541C702.298 94.722 702.378 95.1613 702.538 95.5721C702.697 95.9829 702.909 96.3424 703.171 96.6505C703.445 96.9472 703.759 97.1811 704.112 97.3523C704.478 97.5235 704.866 97.609 705.276 97.609C705.539 97.609 705.796 97.5748 706.047 97.5063C706.309 97.4265 706.543 97.3238 706.749 97.1982C706.965 97.0727 707.154 96.9301 707.313 96.7703C707.473 96.5991 707.587 96.4165 707.656 96.2226L709.128 96.6676C708.991 96.9985 708.797 97.3009 708.546 97.5748C708.306 97.8487 708.021 98.0826 707.69 98.2766C707.359 98.4706 706.988 98.6247 706.577 98.7388C706.178 98.8529 705.756 98.9099 705.311 98.9099C704.637 98.9099 704.021 98.7844 703.462 98.5334C702.903 98.2823 702.424 97.9457 702.024 97.5235C701.625 97.1012 701.311 96.6105 701.083 96.0514C700.866 95.4808 700.758 94.8817 700.758 94.2541ZM715.456 98.2937C715.365 98.3394 715.245 98.3964 715.097 98.4649C714.948 98.522 714.777 98.5847 714.583 98.6532C714.401 98.7102 714.195 98.7559 713.967 98.7901C713.75 98.8358 713.522 98.8586 713.282 98.8586C712.735 98.8586 712.261 98.7102 711.862 98.4135C711.462 98.1054 711.262 97.6319 711.262 96.9928V90.9847H710.047V89.8036H711.262V86.8253H712.769V89.8036H714.771V90.9847H712.769V96.5307C712.792 96.8616 712.9 97.1012 713.094 97.2496C713.288 97.3979 713.516 97.4721 713.779 97.4721C714.075 97.4721 714.344 97.4265 714.583 97.3352C714.834 97.2325 715.005 97.1526 715.097 97.0955L715.456 98.2937ZM716.852 98.7388V89.8036H718.359V98.7388H716.852ZM716.852 88.1262V86.2433H718.359V88.1262H716.852ZM724.7 98.9099C724.027 98.9099 723.41 98.7844 722.851 98.5334C722.304 98.2823 721.83 97.9457 721.431 97.5235C721.043 97.1012 720.74 96.6105 720.523 96.0514C720.307 95.4922 720.198 94.9045 720.198 94.2883C720.198 93.6607 720.307 93.0673 720.523 92.5081C720.752 91.949 721.06 91.4583 721.448 91.0361C721.847 90.6138 722.321 90.2772 722.868 90.0262C723.428 89.7751 724.038 89.6496 724.7 89.6496C725.362 89.6496 725.972 89.7751 726.531 90.0262C727.091 90.2772 727.564 90.6138 727.952 91.0361C728.352 91.4583 728.66 91.949 728.877 92.5081C729.105 93.0673 729.219 93.6607 729.219 94.2883C729.219 94.9045 729.11 95.4922 728.894 96.0514C728.677 96.6105 728.369 97.1012 727.969 97.5235C727.57 97.9457 727.091 98.2823 726.531 98.5334C725.984 98.7844 725.373 98.9099 724.7 98.9099ZM721.739 94.3054C721.739 94.7733 721.813 95.2069 721.961 95.6063C722.121 96.0057 722.332 96.3538 722.595 96.6505C722.868 96.9472 723.182 97.1811 723.536 97.3523C723.901 97.5235 724.289 97.609 724.7 97.609C725.111 97.609 725.493 97.5235 725.847 97.3523C726.212 97.1811 726.531 96.9472 726.805 96.6505C727.079 96.3424 727.29 95.9886 727.439 95.5892C727.598 95.1784 727.678 94.7391 727.678 94.2712C727.678 93.8147 727.598 93.3868 727.439 92.9874C727.29 92.5766 727.079 92.2229 726.805 91.9262C726.531 91.618 726.212 91.3784 725.847 91.2072C725.493 91.0361 725.111 90.9505 724.7 90.9505C724.289 90.9505 723.901 91.0418 723.536 91.2244C723.182 91.3955 722.868 91.6352 722.595 91.9433C722.332 92.24 722.121 92.5937 721.961 93.0045C721.813 93.4039 721.739 93.8376 721.739 94.3054ZM738.798 98.7388H737.292V93.7406C737.292 92.782 737.144 92.0859 736.847 91.6523C736.562 91.2186 736.122 91.0018 735.529 91.0018C735.221 91.0018 734.913 91.0646 734.604 91.1901C734.296 91.3042 734.005 91.464 733.731 91.6694C733.458 91.8748 733.218 92.1202 733.013 92.4054C732.807 92.6907 732.653 93.0045 732.55 93.3469V98.7388H731.044V89.8036H732.413V91.7208C732.767 91.0931 733.275 90.591 733.937 90.2144C734.61 89.8379 735.341 89.6496 736.128 89.6496C736.641 89.6496 737.069 89.7466 737.412 89.9406C737.754 90.1232 738.028 90.3856 738.233 90.728C738.439 91.0589 738.581 91.4526 738.661 91.909C738.753 92.3655 738.798 92.8619 738.798 93.3982V98.7388ZM745.71 98.7388V86.5856H750.913C751.45 86.5856 751.94 86.6997 752.385 86.928C752.842 87.1448 753.23 87.4415 753.549 87.818C753.88 88.1832 754.137 88.5997 754.32 89.0676C754.502 89.5241 754.593 89.9919 754.593 90.4712C754.593 90.8934 754.531 91.3042 754.405 91.7036C754.291 92.0916 754.12 92.4454 753.892 92.7649C753.675 93.0844 753.407 93.3583 753.087 93.5865C752.779 93.8147 752.431 93.9802 752.043 94.0829L754.987 98.7388H753.241L750.468 94.3739H747.25V98.7388H745.71ZM747.25 93.0045H750.93C751.25 93.0045 751.535 92.9361 751.786 92.7991C752.049 92.6622 752.271 92.4796 752.454 92.2514C752.636 92.0117 752.779 91.7379 752.882 91.4298C752.984 91.1217 753.036 90.8021 753.036 90.4712C753.036 90.1289 752.973 89.8093 752.847 89.5126C752.733 89.2045 752.574 88.9364 752.368 88.7081C752.174 88.4685 751.94 88.2859 751.666 88.1604C751.404 88.0235 751.124 87.955 750.828 87.955H747.25V93.0045ZM758.88 98.9099C758.458 98.9099 758.064 98.8415 757.699 98.7045C757.334 98.5562 757.014 98.3565 756.74 98.1054C756.478 97.8544 756.267 97.5634 756.107 97.2325C755.958 96.8901 755.884 96.5192 755.884 96.1199C755.884 95.709 755.976 95.3382 756.158 95.0072C756.341 94.6649 756.597 94.3739 756.928 94.1343C757.271 93.8946 757.67 93.7063 758.127 93.5694C758.594 93.4325 759.102 93.364 759.65 93.364C760.084 93.364 760.523 93.4039 760.968 93.4838C761.413 93.5637 761.807 93.6721 762.149 93.809V93.0901C762.149 92.3598 761.944 91.7892 761.533 91.3784C761.122 90.9562 760.54 90.7451 759.787 90.7451C758.885 90.7451 757.938 91.0931 756.946 91.7892L756.449 90.8135C757.602 90.0376 758.76 89.6496 759.924 89.6496C761.099 89.6496 762.012 89.9634 762.663 90.591C763.324 91.2186 763.655 92.103 763.655 93.2442V96.8901C763.655 97.2439 763.815 97.4265 764.135 97.4379V98.7388C763.975 98.7616 763.844 98.7787 763.741 98.7901C763.638 98.8015 763.53 98.8072 763.416 98.8072C763.119 98.8072 762.879 98.7217 762.697 98.5505C762.526 98.3679 762.423 98.1511 762.389 97.9L762.355 97.2667C761.955 97.803 761.447 98.2138 760.831 98.4991C760.226 98.773 759.576 98.9099 758.88 98.9099ZM759.273 97.7802C759.81 97.7802 760.306 97.6832 760.763 97.4892C761.231 97.2838 761.584 97.0156 761.824 96.6847C762.041 96.4679 762.149 96.2454 762.149 96.0171V94.6991C761.419 94.4138 760.66 94.2712 759.873 94.2712C759.119 94.2712 758.503 94.431 758.024 94.7505C757.556 95.07 757.322 95.4865 757.322 96C757.322 96.2511 757.368 96.485 757.459 96.7018C757.562 96.9186 757.699 97.1069 757.87 97.2667C758.052 97.4265 758.264 97.552 758.503 97.6433C758.743 97.7346 759 97.7802 759.273 97.7802ZM770.619 98.2937C770.527 98.3394 770.408 98.3964 770.259 98.4649C770.111 98.522 769.94 98.5847 769.746 98.6532C769.563 98.7102 769.358 98.7559 769.13 98.7901C768.913 98.8358 768.685 98.8586 768.445 98.8586C767.897 98.8586 767.424 98.7102 767.024 98.4135C766.625 98.1054 766.425 97.6319 766.425 96.9928V90.9847H765.21V89.8036H766.425V86.8253H767.931V89.8036H769.934V90.9847H767.931V96.5307C767.954 96.8616 768.063 97.1012 768.257 97.2496C768.451 97.3979 768.679 97.4721 768.941 97.4721C769.238 97.4721 769.506 97.4265 769.746 97.3352C769.997 97.2325 770.168 97.1526 770.259 97.0955L770.619 98.2937ZM775.852 98.9099C775.179 98.9099 774.562 98.7901 774.003 98.5505C773.444 98.2994 772.965 97.9628 772.565 97.5406C772.166 97.1183 771.852 96.6277 771.624 96.0685C771.407 95.4979 771.299 94.8988 771.299 94.2712C771.299 93.6436 771.407 93.0502 771.624 92.491C771.852 91.9319 772.166 91.4412 772.565 91.0189C772.976 90.5967 773.461 90.2658 774.02 90.0262C774.58 89.7751 775.196 89.6496 775.869 89.6496C776.542 89.6496 777.153 89.7751 777.701 90.0262C778.26 90.2772 778.733 90.6138 779.121 91.0361C779.509 91.4469 779.806 91.9319 780.011 92.491C780.228 93.0388 780.337 93.6093 780.337 94.2027C780.337 94.3283 780.331 94.4424 780.319 94.5451C780.319 94.6478 780.314 94.7277 780.302 94.7847H772.891C772.925 95.2298 773.028 95.6349 773.199 96C773.37 96.3652 773.592 96.679 773.866 96.9415C774.14 97.2039 774.448 97.4093 774.791 97.5577C775.144 97.706 775.515 97.7802 775.903 97.7802C776.177 97.7802 776.445 97.746 776.708 97.6775C776.97 97.5976 777.216 97.4949 777.444 97.3694C777.672 97.2439 777.872 97.0898 778.043 96.9072C778.225 96.7247 778.362 96.5192 778.454 96.291L779.755 96.6505C779.606 96.9814 779.401 97.2838 779.138 97.5577C778.887 97.8316 778.591 98.0712 778.248 98.2766C777.917 98.4706 777.547 98.6247 777.136 98.7388C776.725 98.8529 776.297 98.9099 775.852 98.9099ZM778.916 93.6721C778.882 93.2499 778.773 92.8619 778.591 92.5081C778.419 92.143 778.197 91.8349 777.923 91.5838C777.661 91.3328 777.353 91.1388 776.999 91.0018C776.645 90.8535 776.268 90.7793 775.869 90.7793C775.47 90.7793 775.093 90.8535 774.739 91.0018C774.386 91.1388 774.072 91.3385 773.798 91.6009C773.535 91.852 773.319 92.1544 773.147 92.5081C772.988 92.8619 772.891 93.2499 772.856 93.6721H778.916Z" fill="white"/>
<path d="M892.599 45.3862C892.599 42.9293 893.214 40.6892 894.442 38.6659C895.671 36.6426 897.333 35.0347 899.428 33.8424C901.56 32.6501 903.926 32.054 906.528 32.054C909.346 32.054 911.803 32.7404 913.899 34.1134C915.994 35.4502 917.62 37.4013 918.776 39.9666C919.968 42.4958 920.565 45.5488 920.565 49.1258C920.565 54.0396 919.95 58.1404 918.722 61.4283C917.53 64.7162 915.832 67.1912 913.628 68.8532C911.424 70.5152 908.84 71.3462 905.877 71.3462C903.457 71.3462 901.217 70.7681 899.157 69.6119C897.098 68.4919 895.436 66.9202 894.171 64.8969L897.694 61.2115C898.525 62.6929 899.681 63.8852 901.162 64.7885C902.644 65.6917 904.252 66.1434 905.986 66.1434C907.792 66.1434 909.364 65.6195 910.701 64.5717C912.038 63.56 913.067 62.0787 913.79 60.1276C914.549 58.1765 914.946 55.81 914.982 53.0279C914.477 54.0757 913.772 54.997 912.869 55.7919C911.966 56.5868 910.918 57.201 909.725 57.6346C908.569 58.0681 907.305 58.2849 905.932 58.2849C903.439 58.2849 901.18 57.7068 899.157 56.5506C897.134 55.3945 895.526 53.8589 894.334 51.944C893.177 49.9929 892.599 47.807 892.599 45.3862ZM906.474 37.1484C904.992 37.1484 903.619 37.5278 902.355 38.2865C901.126 39.0091 900.133 40.0027 899.374 41.2673C898.651 42.4958 898.29 43.8687 898.29 45.3862C898.29 46.8676 898.651 48.2225 899.374 49.4509C900.133 50.6794 901.126 51.673 902.355 52.4317C903.619 53.1544 904.992 53.5157 906.474 53.5157C907.991 53.5157 909.364 53.1544 910.593 52.4317C911.821 51.673 912.797 50.6794 913.519 49.4509C914.278 48.2225 914.657 46.8676 914.657 45.3862C914.657 43.9049 914.278 42.5319 913.519 41.2673C912.76 40.0027 911.767 39.0091 910.538 38.2865C909.31 37.5278 907.955 37.1484 906.474 37.1484ZM924.514 45.3862C924.514 42.9293 925.128 40.6892 926.356 38.6659C927.585 36.6426 929.247 35.0347 931.342 33.8424C933.474 32.6501 935.841 32.054 938.442 32.054C941.26 32.054 943.717 32.7404 945.813 34.1134C947.908 35.4502 949.534 37.4013 950.691 39.9666C951.883 42.4958 952.479 45.5488 952.479 49.1258C952.479 54.0396 951.865 58.1404 950.636 61.4283C949.444 64.7162 947.746 67.1912 945.542 68.8532C943.338 70.5152 940.755 71.3462 937.792 71.3462C935.371 71.3462 933.131 70.7681 931.072 69.6119C929.012 68.4919 927.35 66.9202 926.085 64.8969L929.608 61.2115C930.439 62.6929 931.595 63.8852 933.077 64.7885C934.558 65.6917 936.166 66.1434 937.9 66.1434C939.707 66.1434 941.278 65.6195 942.615 64.5717C943.952 63.56 944.982 62.0787 945.704 60.1276C946.463 58.1765 946.861 55.81 946.897 53.0279C946.391 54.0757 945.686 54.997 944.783 55.7919C943.88 56.5868 942.832 57.201 941.64 57.6346C940.484 58.0681 939.219 58.2849 937.846 58.2849C935.353 58.2849 933.095 57.7068 931.072 56.5506C929.048 55.3945 927.44 53.8589 926.248 51.944C925.092 49.9929 924.514 47.807 924.514 45.3862ZM938.388 37.1484C936.907 37.1484 935.534 37.5278 934.269 38.2865C933.041 39.0091 932.047 40.0027 931.288 41.2673C930.566 42.4958 930.204 43.8687 930.204 45.3862C930.204 46.8676 930.566 48.2225 931.288 49.4509C932.047 50.6794 933.041 51.673 934.269 52.4317C935.534 53.1544 936.907 53.5157 938.388 53.5157C939.905 53.5157 941.278 53.1544 942.507 52.4317C943.735 51.673 944.711 50.6794 945.434 49.4509C946.192 48.2225 946.572 46.8676 946.572 45.3862C946.572 43.9049 946.192 42.5319 945.434 41.2673C944.675 40.0027 943.681 39.0091 942.453 38.2865C941.224 37.5278 939.869 37.1484 938.388 37.1484Z" fill="white"/>
<path d="M965.208 40.075C963.618 40.075 962.155 39.7137 960.818 38.9911C959.517 38.2685 958.47 37.311 957.675 36.1187C956.916 34.8902 956.537 33.5353 956.537 32.054C956.537 30.5365 956.916 29.1816 957.675 27.9892C958.47 26.7608 959.517 25.7853 960.818 25.0626C962.155 24.34 963.618 23.9787 965.208 23.9787C966.798 23.9787 968.243 24.34 969.544 25.0626C970.844 25.7853 971.874 26.7608 972.633 27.9892C973.392 29.1816 973.771 30.5184 973.771 31.9998C973.771 33.4811 973.392 34.836 972.633 36.0645C971.874 37.2929 970.844 38.2685 969.544 38.9911C968.243 39.7137 966.798 40.075 965.208 40.075ZM965.154 36.9858C965.985 36.9858 966.725 36.769 967.376 36.3355C968.062 35.8658 968.586 35.2515 968.947 34.4928C969.345 33.734 969.544 32.9211 969.544 32.054C969.544 31.1146 969.345 30.2655 968.947 29.5067C968.55 28.748 968.008 28.1518 967.322 27.7183C966.671 27.2847 965.967 27.0679 965.208 27.0679C964.377 27.0679 963.618 27.3027 962.932 27.7724C962.281 28.206 961.757 28.8022 961.36 29.5609C960.963 30.3197 960.764 31.1326 960.764 31.9998C960.764 32.9392 960.963 33.7882 961.36 34.547C961.794 35.2696 962.336 35.8658 962.986 36.3355C963.672 36.769 964.395 36.9858 965.154 36.9858ZM985.098 63.542C983.508 63.542 982.063 63.1807 980.762 62.458C979.462 61.7354 978.414 60.7599 977.619 59.5314C976.86 58.303 976.481 56.9481 976.481 55.4667C976.481 53.9854 976.86 52.6485 977.619 51.4562C978.414 50.2278 979.462 49.2522 980.762 48.5296C982.063 47.807 983.508 47.4457 985.098 47.4457C986.724 47.4457 988.187 47.807 989.488 48.5296C990.789 49.2161 991.818 50.1736 992.577 51.402C993.336 52.6305 993.715 53.9854 993.715 55.4667C993.715 56.9481 993.336 58.303 992.577 59.5314C991.818 60.7599 990.789 61.7354 989.488 62.458C988.187 63.1807 986.724 63.542 985.098 63.542ZM985.098 60.4528C985.929 60.4528 986.67 60.2179 987.32 59.7482C988.006 59.2785 988.53 58.6824 988.892 57.9598C989.289 57.201 989.488 56.3881 989.488 55.5209C989.488 54.5815 989.289 53.7324 988.892 52.9737C988.494 52.215 987.952 51.6188 987.266 51.1852C986.615 50.7517 985.893 50.5349 985.098 50.5349C984.303 50.5349 983.562 50.7697 982.876 51.2394C982.226 51.673 981.702 52.2691 981.304 53.0279C980.907 53.7866 980.708 54.5996 980.708 55.4667C980.708 56.37 980.907 57.201 981.304 57.9598C981.738 58.7185 982.28 59.3327 982.93 59.8024C983.58 60.236 984.303 60.4528 985.098 60.4528ZM958.975 60.8322L974.205 42.7848L988.512 24.1955L991.331 26.6343L976.372 44.4649L961.739 63.3252L958.975 60.8322Z" fill="#CCA351"/>
<path d="M901.061 89.1361C900.924 88.9763 900.742 88.8223 900.514 88.6739C900.285 88.5256 900.029 88.3943 899.743 88.2802C899.458 88.1547 899.144 88.0577 898.802 87.9892C898.471 87.9093 898.123 87.8694 897.758 87.8694C896.822 87.8694 896.132 88.0463 895.687 88.4C895.241 88.7538 895.019 89.2388 895.019 89.855C895.019 90.2886 895.133 90.631 895.361 90.882C895.59 91.1331 895.938 91.3385 896.405 91.4982C896.885 91.658 897.49 91.8235 898.22 91.9946C899.064 92.1772 899.795 92.3997 900.411 92.6622C901.027 92.9247 901.501 93.2784 901.832 93.7235C902.163 94.1571 902.328 94.7391 902.328 95.4694C902.328 96.0514 902.214 96.5592 901.986 96.9928C901.769 97.415 901.461 97.7688 901.061 98.0541C900.662 98.328 900.194 98.5334 899.658 98.6703C899.121 98.7958 898.539 98.8586 897.912 98.8586C897.296 98.8586 896.691 98.7958 896.097 98.6703C895.515 98.5334 894.962 98.3394 894.437 98.0883C893.912 97.8373 893.421 97.5235 892.965 97.1469L893.701 95.846C893.884 96.04 894.117 96.234 894.403 96.428C894.699 96.6105 895.03 96.7817 895.396 96.9415C895.772 97.1012 896.177 97.2325 896.611 97.3352C897.044 97.4265 897.49 97.4721 897.946 97.4721C898.813 97.4721 899.487 97.318 899.966 97.0099C900.445 96.6904 900.685 96.2283 900.685 95.6235C900.685 95.167 900.548 94.8018 900.274 94.528C900.011 94.2541 899.618 94.0259 899.093 93.8433C898.568 93.6607 897.929 93.4781 897.176 93.2955C896.354 93.0901 895.664 92.8676 895.105 92.628C894.545 92.3769 894.123 92.0517 893.838 91.6523C893.564 91.2529 893.427 90.7337 893.427 90.0946C893.427 89.3186 893.615 88.6625 893.992 88.1262C894.369 87.5898 894.888 87.1847 895.55 86.9108C896.211 86.637 896.959 86.5 897.792 86.5C898.34 86.5 898.847 86.5571 899.315 86.6712C899.795 86.7853 900.24 86.9451 900.65 87.1505C901.061 87.3559 901.438 87.6012 901.78 87.8865L901.061 89.1361ZM908.017 98.9099C907.344 98.9099 906.733 98.7901 906.186 98.5505C905.638 98.2994 905.164 97.9628 904.765 97.5406C904.366 97.1069 904.058 96.6105 903.841 96.0514C903.624 95.4922 903.515 94.9045 903.515 94.2883C903.515 93.6607 903.624 93.0673 903.841 92.5081C904.058 91.949 904.366 91.4583 904.765 91.0361C905.164 90.6024 905.638 90.2658 906.186 90.0262C906.745 89.7751 907.355 89.6496 908.017 89.6496C908.691 89.6496 909.301 89.7751 909.849 90.0262C910.397 90.2658 910.87 90.6024 911.27 91.0361C911.68 91.4583 911.994 91.949 912.211 92.5081C912.428 93.0673 912.536 93.6607 912.536 94.2883C912.536 94.9045 912.428 95.4922 912.211 96.0514C911.994 96.6105 911.686 97.1069 911.287 97.5406C910.887 97.9628 910.408 98.2994 909.849 98.5505C909.301 98.7901 908.691 98.9099 908.017 98.9099ZM905.056 94.3054C905.056 94.9217 905.187 95.4808 905.45 95.9829C905.724 96.485 906.083 96.8844 906.528 97.1811C906.973 97.4664 907.47 97.609 908.017 97.609C908.565 97.609 909.061 97.4607 909.506 97.164C909.963 96.8673 910.322 96.4679 910.585 95.9658C910.859 95.4523 910.996 94.8874 910.996 94.2712C910.996 93.655 910.859 93.0958 910.585 92.5937C910.322 92.0916 909.963 91.6922 909.506 91.3955C909.061 91.0988 908.565 90.9505 908.017 90.9505C907.47 90.9505 906.973 91.1045 906.528 91.4126C906.083 91.7093 905.724 92.1087 905.45 92.6108C905.187 93.1129 905.056 93.6778 905.056 94.3054ZM914.396 86.2433H915.902V96.428C915.902 96.9186 915.97 97.2211 916.107 97.3352C916.244 97.4493 916.41 97.5063 916.604 97.5063C916.843 97.5063 917.072 97.4835 917.288 97.4379C917.505 97.3808 917.688 97.3238 917.836 97.2667L918.076 98.4991C917.825 98.6018 917.528 98.6874 917.186 98.7559C916.843 98.8244 916.541 98.8586 916.279 98.8586C915.697 98.8586 915.234 98.6931 914.892 98.3622C914.561 98.0313 914.396 97.5691 914.396 96.9757V86.2433ZM919.174 95.1613V89.8036H920.68V94.8703C920.68 95.7832 920.84 96.4679 921.159 96.9244C921.479 97.3808 921.952 97.609 922.58 97.609C922.991 97.609 923.384 97.5235 923.761 97.3523C924.149 97.1697 924.497 96.9129 924.805 96.582C925.113 96.2511 925.353 95.8574 925.524 95.4009V89.8036H927.03V97.0271C927.03 97.2096 927.065 97.3466 927.133 97.4379C927.213 97.5177 927.338 97.5634 927.51 97.5748V98.7388C927.338 98.7616 927.202 98.773 927.099 98.773C927.008 98.7844 926.916 98.7901 926.825 98.7901C926.54 98.7901 926.294 98.7045 926.089 98.5334C925.884 98.3508 925.775 98.1283 925.764 97.8658L925.729 96.8217C925.341 97.4835 924.817 97.997 924.155 98.3622C923.504 98.7274 922.791 98.9099 922.015 98.9099C921.079 98.9099 920.372 98.5961 919.893 97.9685C919.413 97.3295 919.174 96.3937 919.174 95.1613ZM934.161 98.2937C934.036 98.3508 933.864 98.425 933.648 98.5162C933.431 98.6075 933.18 98.6874 932.894 98.7559C932.609 98.8244 932.307 98.8586 931.987 98.8586C931.622 98.8586 931.285 98.7958 930.977 98.6703C930.669 98.5334 930.424 98.328 930.241 98.0541C930.059 97.7688 929.967 97.415 929.967 96.9928V90.9847H928.752V89.8036H929.967V86.8253H931.474V89.8036H933.476V90.9847H931.474V96.5307C931.497 96.8502 931.605 97.0898 931.799 97.2496C931.993 97.3979 932.221 97.4721 932.484 97.4721C932.78 97.4721 933.054 97.4208 933.305 97.318C933.556 97.2153 933.722 97.1412 933.802 97.0955L934.161 98.2937ZM935.557 98.7388V89.8036H937.064V98.7388H935.557ZM935.557 88.1262V86.2433H937.064V88.1262H935.557ZM943.405 98.9099C942.732 98.9099 942.121 98.7901 941.573 98.5505C941.026 98.2994 940.552 97.9628 940.153 97.5406C939.753 97.1069 939.445 96.6105 939.228 96.0514C939.012 95.4922 938.903 94.9045 938.903 94.2883C938.903 93.6607 939.012 93.0673 939.228 92.5081C939.445 91.949 939.753 91.4583 940.153 91.0361C940.552 90.6024 941.026 90.2658 941.573 90.0262C942.133 89.7751 942.743 89.6496 943.405 89.6496C944.078 89.6496 944.689 89.7751 945.236 90.0262C945.784 90.2658 946.258 90.6024 946.657 91.0361C947.068 91.4583 947.382 91.949 947.599 92.5081C947.815 93.0673 947.924 93.6607 947.924 94.2883C947.924 94.9045 947.815 95.4922 947.599 96.0514C947.382 96.6105 947.074 97.1069 946.674 97.5406C946.275 97.9628 945.796 98.2994 945.236 98.5505C944.689 98.7901 944.078 98.9099 943.405 98.9099ZM940.444 94.3054C940.444 94.9217 940.575 95.4808 940.837 95.9829C941.111 96.485 941.471 96.8844 941.916 97.1811C942.361 97.4664 942.857 97.609 943.405 97.609C943.953 97.609 944.449 97.4607 944.894 97.164C945.351 96.8673 945.71 96.4679 945.972 95.9658C946.246 95.4523 946.383 94.8874 946.383 94.2712C946.383 93.655 946.246 93.0958 945.972 92.5937C945.71 92.0916 945.351 91.6922 944.894 91.3955C944.449 91.0988 943.953 90.9505 943.405 90.9505C942.857 90.9505 942.361 91.1045 941.916 91.4126C941.471 91.7093 941.111 92.1087 940.837 92.6108C940.575 93.1129 940.444 93.6778 940.444 94.3054ZM957.503 98.7388H955.997V93.7406C955.997 92.7934 955.848 92.103 955.552 91.6694C955.266 91.2244 954.827 91.0018 954.234 91.0018C953.823 91.0018 953.412 91.1045 953.001 91.3099C952.602 91.5153 952.242 91.7949 951.923 92.1487C951.615 92.491 951.392 92.8904 951.255 93.3469V98.7388H949.749V89.8036H951.118V91.7208C951.358 91.2985 951.666 90.9334 952.043 90.6253C952.419 90.3171 952.847 90.0775 953.327 89.9063C953.806 89.7352 954.308 89.6496 954.833 89.6496C955.346 89.6496 955.774 89.7466 956.117 89.9406C956.47 90.1232 956.744 90.3856 956.938 90.728C957.144 91.0589 957.286 91.4526 957.366 91.909C957.457 92.3655 957.503 92.8619 957.503 93.3982V98.7388ZM969.344 98.8244C968.488 98.8244 967.712 98.6532 967.016 98.3108C966.32 97.9571 965.715 97.4892 965.202 96.9072C964.7 96.3253 964.312 95.6691 964.038 94.9388C963.764 94.197 963.627 93.4382 963.627 92.6622C963.627 91.852 963.77 91.0817 964.055 90.3514C964.352 89.6096 964.757 88.9535 965.27 88.3829C965.795 87.8009 966.406 87.3445 967.102 87.0135C967.798 86.6712 968.557 86.5 969.379 86.5C970.234 86.5 971.01 86.6769 971.706 87.0307C972.403 87.3844 973.002 87.858 973.504 88.4514C974.006 89.0448 974.394 89.7066 974.668 90.437C974.942 91.1673 975.079 91.9147 975.079 92.6793C975.079 93.4895 974.936 94.2655 974.651 95.0072C974.365 95.7376 973.96 96.3937 973.435 96.9757C972.922 97.5463 972.317 97.997 971.621 98.328C970.925 98.6589 970.166 98.8244 969.344 98.8244ZM969.361 97.4379C970.012 97.4379 970.594 97.3009 971.107 97.0271C971.621 96.7532 972.055 96.388 972.408 95.9316C972.773 95.4751 973.047 94.9616 973.23 94.391C973.424 93.8205 973.521 93.2442 973.521 92.6622C973.521 92.046 973.418 91.4526 973.213 90.882C973.019 90.3 972.733 89.7865 972.357 89.3415C971.992 88.8964 971.552 88.5427 971.039 88.2802C970.537 88.0177 969.978 87.8865 969.361 87.8865C968.711 87.8865 968.129 88.0235 967.615 88.2973C967.102 88.5712 966.663 88.9364 966.297 89.3928C965.944 89.8493 965.67 90.3628 965.476 90.9334C965.282 91.4925 965.185 92.0688 965.185 92.6622C965.185 93.2784 965.282 93.8775 965.476 94.4595C965.681 95.0301 965.967 95.5379 966.332 95.9829C966.697 96.428 967.136 96.7817 967.65 97.0442C968.163 97.3066 968.734 97.4379 969.361 97.4379ZM970.046 94.7676H971.552L974.959 98.7388H973.452L970.046 94.7676ZM976.86 95.1613V89.8036H978.367V94.8703C978.367 95.7832 978.526 96.4679 978.846 96.9244C979.165 97.3808 979.639 97.609 980.267 97.609C980.677 97.609 981.071 97.5235 981.448 97.3523C981.836 97.1697 982.184 96.9129 982.492 96.582C982.8 96.2511 983.04 95.8574 983.211 95.4009V89.8036H984.717V97.0271C984.717 97.2096 984.751 97.3466 984.82 97.4379C984.9 97.5177 985.025 97.5634 985.196 97.5748V98.7388C985.025 98.7616 984.888 98.773 984.786 98.773C984.694 98.7844 984.603 98.7901 984.512 98.7901C984.226 98.7901 983.981 98.7045 983.776 98.5334C983.57 98.3508 983.462 98.1283 983.45 97.8658L983.416 96.8217C983.028 97.4835 982.503 97.997 981.841 98.3622C981.191 98.7274 980.478 98.9099 979.702 98.9099C978.766 98.9099 978.059 98.5961 977.579 97.9685C977.1 97.3295 976.86 96.3937 976.86 95.1613ZM986.524 96.1541C986.524 95.5835 986.684 95.0928 987.004 94.682C987.335 94.2598 987.785 93.9346 988.356 93.7063C988.927 93.4781 989.588 93.364 990.342 93.364C990.741 93.364 991.163 93.3982 991.608 93.4667C992.053 93.5238 992.447 93.615 992.789 93.7406V93.0901C992.789 92.4054 992.584 91.8691 992.173 91.4811C991.762 91.0817 991.18 90.882 990.427 90.882C989.936 90.882 989.463 90.9733 989.006 91.1559C988.561 91.3271 988.088 91.5781 987.586 91.909L987.038 90.8478C987.62 90.4484 988.202 90.1517 988.784 89.9577C989.366 89.7523 989.971 89.6496 990.598 89.6496C991.739 89.6496 992.641 89.9691 993.303 90.6081C993.965 91.2358 994.296 92.1144 994.296 93.2442V97.0271C994.296 97.2096 994.33 97.3466 994.398 97.4379C994.478 97.5177 994.604 97.5634 994.775 97.5748V98.7388C994.627 98.7616 994.495 98.7787 994.381 98.7901C994.278 98.8015 994.193 98.8072 994.124 98.8072C993.771 98.8072 993.502 98.7102 993.32 98.5162C993.149 98.3223 993.052 98.1168 993.029 97.9L992.995 97.3352C992.607 97.8373 992.099 98.2253 991.471 98.4991C990.844 98.773 990.222 98.9099 989.605 98.9099C989.012 98.9099 988.481 98.7901 988.014 98.5505C987.546 98.2994 987.181 97.9685 986.918 97.5577C986.656 97.1355 986.524 96.6676 986.524 96.1541ZM992.344 96.7874C992.481 96.6277 992.59 96.4679 992.669 96.3081C992.749 96.137 992.789 95.9943 992.789 95.8802V94.7676C992.436 94.6307 992.065 94.528 991.677 94.4595C991.289 94.3796 990.906 94.3397 990.53 94.3397C989.765 94.3397 989.143 94.4937 988.664 94.8018C988.196 95.0985 987.962 95.5093 987.962 96.0343C987.962 96.3196 988.036 96.5991 988.185 96.873C988.345 97.1355 988.573 97.3523 988.869 97.5235C989.178 97.6946 989.554 97.7802 989.999 97.7802C990.467 97.7802 990.912 97.6889 991.334 97.5063C991.757 97.3123 992.093 97.0727 992.344 96.7874ZM996.738 86.2433H998.245V96.428C998.245 96.9186 998.313 97.2211 998.45 97.3352C998.587 97.4493 998.752 97.5063 998.946 97.5063C999.186 97.5063 999.414 97.4835 999.631 97.4379C999.848 97.3808 1000.03 97.3238 1000.18 97.2667L1000.42 98.4991C1000.17 98.6018 999.871 98.6874 999.528 98.7559C999.186 98.8244 998.884 98.8586 998.621 98.8586C998.039 98.8586 997.577 98.6931 997.235 98.3622C996.904 98.0313 996.738 97.5691 996.738 96.9757V86.2433ZM1001.6 98.7388V89.8036H1003.11V98.7388H1001.6ZM1001.6 88.1262V86.2433H1003.11V88.1262H1001.6ZM1010.17 98.2937C1010.04 98.3508 1009.87 98.425 1009.65 98.5162C1009.44 98.6075 1009.19 98.6874 1008.9 98.7559C1008.62 98.8244 1008.31 98.8586 1007.99 98.8586C1007.63 98.8586 1007.29 98.7958 1006.98 98.6703C1006.68 98.5334 1006.43 98.328 1006.25 98.0541C1006.07 97.7688 1005.97 97.415 1005.97 96.9928V90.9847H1004.76V89.8036H1005.97V86.8253H1007.48V89.8036H1009.48V90.9847H1007.48V96.5307C1007.5 96.8502 1007.61 97.0898 1007.81 97.2496C1008 97.3979 1008.23 97.4721 1008.49 97.4721C1008.79 97.4721 1009.06 97.4208 1009.31 97.318C1009.56 97.2153 1009.73 97.1412 1009.81 97.0955L1010.17 98.2937ZM1011.98 101.169C1012.12 101.181 1012.27 101.192 1012.42 101.204C1012.57 101.226 1012.68 101.238 1012.76 101.238C1012.95 101.238 1013.11 101.175 1013.24 101.05C1013.38 100.924 1013.53 100.679 1013.69 100.314C1013.86 99.9598 1014.08 99.4349 1014.34 98.7388L1010.55 89.8036H1012.15L1015.16 97.2153L1017.88 89.8036H1019.37L1015.02 101.084C1014.92 101.346 1014.77 101.592 1014.56 101.82C1014.37 102.059 1014.12 102.248 1013.81 102.385C1013.5 102.522 1013.13 102.59 1012.69 102.59C1012.59 102.59 1012.48 102.584 1012.37 102.573C1012.27 102.562 1012.14 102.539 1011.98 102.505V101.169ZM1028.16 86.5856H1029.46L1034.42 98.7388H1032.78L1031.34 95.1784H1026.24L1024.82 98.7388H1023.17L1028.16 86.5856ZM1031 93.9802L1028.81 88.3658L1026.55 93.9802H1031ZM1043.56 98.7388H1042.05V93.7406C1042.05 92.7934 1041.9 92.103 1041.61 91.6694C1041.32 91.2244 1040.88 91.0018 1040.29 91.0018C1039.88 91.0018 1039.47 91.1045 1039.05 91.3099C1038.66 91.5153 1038.3 91.7949 1037.98 92.1487C1037.67 92.491 1037.45 92.8904 1037.31 93.3469V98.7388H1035.8V89.8036H1037.17V91.7208C1037.41 91.2985 1037.72 90.9334 1038.1 90.6253C1038.47 90.3171 1038.9 90.0775 1039.38 89.9063C1039.86 89.7352 1040.36 89.6496 1040.89 89.6496C1041.4 89.6496 1041.83 89.7466 1042.17 89.9406C1042.52 90.1232 1042.8 90.3856 1042.99 90.728C1043.2 91.0589 1043.34 91.4526 1043.42 91.909C1043.51 92.3655 1043.56 92.8619 1043.56 93.3982V98.7388ZM1045.32 94.2883C1045.32 93.4439 1045.49 92.6736 1045.83 91.9775C1046.18 91.27 1046.66 90.7051 1047.27 90.2829C1047.88 89.8607 1048.59 89.6496 1049.37 89.6496C1050.09 89.6496 1050.74 89.8379 1051.31 90.2144C1051.88 90.591 1052.32 91.0475 1052.64 91.5838V86.2433H1054.15V97.0271C1054.15 97.2096 1054.18 97.3466 1054.25 97.4379C1054.33 97.5177 1054.46 97.5634 1054.63 97.5748V98.7388C1054.34 98.7844 1054.12 98.8072 1053.96 98.8072C1053.66 98.8072 1053.4 98.7045 1053.17 98.4991C1052.96 98.2937 1052.85 98.0655 1052.85 97.8144V97.0613C1052.49 97.6319 1052.02 98.0826 1051.43 98.4135C1050.83 98.7445 1050.22 98.9099 1049.58 98.9099C1048.96 98.9099 1048.39 98.7901 1047.87 98.5505C1047.35 98.2994 1046.9 97.9571 1046.52 97.5235C1046.14 97.0898 1045.84 96.5991 1045.63 96.0514C1045.42 95.4922 1045.32 94.9045 1045.32 94.2883ZM1052.64 95.6063V93.0388C1052.51 92.6508 1052.28 92.3027 1051.98 91.9946C1051.67 91.6751 1051.32 91.4241 1050.93 91.2415C1050.55 91.0475 1050.18 90.9505 1049.8 90.9505C1049.36 90.9505 1048.95 91.0475 1048.59 91.2415C1048.23 91.4241 1047.92 91.6751 1047.66 91.9946C1047.41 92.3027 1047.22 92.6565 1047.08 93.0559C1046.94 93.4553 1046.87 93.8718 1046.87 94.3054C1046.87 94.7505 1046.95 95.1727 1047.1 95.5721C1047.26 95.9715 1047.47 96.3253 1047.75 96.6334C1048.03 96.9415 1048.36 97.1811 1048.72 97.3523C1049.1 97.5235 1049.51 97.609 1049.94 97.609C1050.21 97.609 1050.49 97.5577 1050.78 97.455C1051.07 97.3523 1051.35 97.2096 1051.62 97.0271C1051.88 96.8445 1052.1 96.6334 1052.28 96.3937C1052.47 96.1427 1052.59 95.8802 1052.64 95.6063ZM1061.23 98.7388V86.5856H1066.44C1066.97 86.5856 1067.46 86.6997 1067.91 86.928C1068.35 87.1448 1068.74 87.4415 1069.07 87.818C1069.4 88.1832 1069.66 88.5997 1069.84 89.0676C1070.03 89.5241 1070.12 89.9919 1070.12 90.4712C1070.12 91.0304 1070.01 91.561 1069.79 92.0631C1069.59 92.5652 1069.29 92.9931 1068.9 93.3469C1068.53 93.7006 1068.08 93.946 1067.57 94.0829L1070.51 98.7388H1068.76L1065.99 94.3739H1062.77V98.7388H1061.23ZM1062.77 93.0045H1066.45C1066.88 93.0045 1067.24 92.8904 1067.55 92.6622C1067.87 92.4226 1068.11 92.1087 1068.29 91.7208C1068.47 91.3328 1068.56 90.9162 1068.56 90.4712C1068.56 90.0147 1068.46 89.5982 1068.25 89.2217C1068.05 88.8337 1067.78 88.5256 1067.45 88.2973C1067.12 88.0691 1066.75 87.955 1066.35 87.955H1062.77V93.0045ZM1075.91 98.9099C1075.24 98.9099 1074.62 98.7901 1074.06 98.5505C1073.52 98.2994 1073.04 97.9628 1072.63 97.5406C1072.23 97.1069 1071.91 96.6105 1071.69 96.0514C1071.47 95.4922 1071.36 94.8988 1071.36 94.2712C1071.36 93.4268 1071.55 92.6565 1071.94 91.9604C1072.33 91.2643 1072.87 90.7051 1073.55 90.2829C1074.25 89.8607 1075.04 89.6496 1075.93 89.6496C1076.83 89.6496 1077.61 89.8664 1078.28 90.3C1078.95 90.7223 1079.47 91.2814 1079.83 91.9775C1080.21 92.6622 1080.4 93.4039 1080.4 94.2027C1080.4 94.3168 1080.39 94.431 1080.38 94.5451C1080.38 94.6478 1080.38 94.7277 1080.36 94.7847H1072.95C1073 95.3667 1073.16 95.8859 1073.43 96.3424C1073.72 96.7874 1074.08 97.1412 1074.53 97.4036C1074.97 97.6547 1075.45 97.7802 1075.96 97.7802C1076.51 97.7802 1077.03 97.6433 1077.51 97.3694C1078 97.0955 1078.33 96.7361 1078.52 96.291L1079.82 96.6505C1079.62 97.0841 1079.33 97.4721 1078.94 97.8144C1078.57 98.1568 1078.12 98.425 1077.59 98.6189C1077.08 98.8129 1076.52 98.9099 1075.91 98.9099ZM1072.9 93.7406H1078.99C1078.95 93.1586 1078.78 92.6451 1078.5 92.2C1078.21 91.755 1077.85 91.4069 1077.4 91.1559C1076.96 90.9048 1076.47 90.7793 1075.93 90.7793C1075.41 90.7793 1074.92 90.9048 1074.48 91.1559C1074.03 91.4069 1073.67 91.755 1073.38 92.2C1073.11 92.6451 1072.95 93.1586 1072.9 93.7406ZM1082.11 86.2433H1083.61V96.428C1083.61 96.9186 1083.68 97.2211 1083.82 97.3352C1083.96 97.4493 1084.12 97.5063 1084.31 97.5063C1084.55 97.5063 1084.78 97.4835 1085 97.4379C1085.22 97.3808 1085.4 97.3238 1085.55 97.2667L1085.79 98.4991C1085.54 98.6018 1085.24 98.6874 1084.9 98.7559C1084.55 98.8244 1084.25 98.8586 1083.99 98.8586C1083.41 98.8586 1082.95 98.6931 1082.6 98.3622C1082.27 98.0313 1082.11 97.5691 1082.11 96.9757V86.2433ZM1086.97 98.7388V89.8036H1088.48V98.7388H1086.97ZM1086.97 88.1262V86.2433H1088.48V88.1262H1086.97ZM1090.21 96.1541C1090.21 95.5835 1090.37 95.0928 1090.69 94.682C1091.02 94.2598 1091.47 93.9346 1092.04 93.7063C1092.62 93.4781 1093.28 93.364 1094.03 93.364C1094.43 93.364 1094.85 93.3982 1095.3 93.4667C1095.74 93.5238 1096.14 93.615 1096.48 93.7406V93.0901C1096.48 92.4054 1096.27 91.8691 1095.86 91.4811C1095.45 91.0817 1094.87 90.882 1094.12 90.882C1093.63 90.882 1093.15 90.9733 1092.7 91.1559C1092.25 91.3271 1091.78 91.5781 1091.27 91.909L1090.73 90.8478C1091.31 90.4484 1091.89 90.1517 1092.47 89.9577C1093.05 89.7523 1093.66 89.6496 1094.29 89.6496C1095.43 89.6496 1096.33 89.9691 1096.99 90.6081C1097.65 91.2358 1097.98 92.1144 1097.98 93.2442V97.0271C1097.98 97.2096 1098.02 97.3466 1098.09 97.4379C1098.17 97.5177 1098.29 97.5634 1098.46 97.5748V98.7388C1098.32 98.7616 1098.18 98.7787 1098.07 98.7901C1097.97 98.8015 1097.88 98.8072 1097.81 98.8072C1097.46 98.8072 1097.19 98.7102 1097.01 98.5162C1096.84 98.3223 1096.74 98.1168 1096.72 97.9L1096.68 97.3352C1096.3 97.8373 1095.79 98.2253 1095.16 98.4991C1094.53 98.773 1093.91 98.9099 1093.29 98.9099C1092.7 98.9099 1092.17 98.7901 1091.7 98.5505C1091.23 98.2994 1090.87 97.9685 1090.61 97.5577C1090.34 97.1355 1090.21 96.6676 1090.21 96.1541ZM1096.03 96.7874C1096.17 96.6277 1096.28 96.4679 1096.36 96.3081C1096.44 96.137 1096.48 95.9943 1096.48 95.8802V94.7676C1096.12 94.6307 1095.75 94.528 1095.37 94.4595C1094.98 94.3796 1094.6 94.3397 1094.22 94.3397C1093.45 94.3397 1092.83 94.4937 1092.35 94.8018C1091.89 95.0985 1091.65 95.5093 1091.65 96.0343C1091.65 96.3196 1091.73 96.5991 1091.87 96.873C1092.03 97.1355 1092.26 97.3523 1092.56 97.5235C1092.87 97.6946 1093.24 97.7802 1093.69 97.7802C1094.16 97.7802 1094.6 97.6889 1095.02 97.5063C1095.45 97.3123 1095.78 97.0727 1096.03 96.7874ZM1104.98 98.9099C1104.28 98.9099 1103.65 98.7388 1103.08 98.3964C1102.51 98.0541 1102.06 97.609 1101.73 97.0613V98.7388H1100.39V86.2433H1101.9V91.5838C1102.28 91.0018 1102.74 90.534 1103.29 90.1802C1103.83 89.8265 1104.47 89.6496 1105.2 89.6496C1105.82 89.6496 1106.37 89.7808 1106.86 90.0433C1107.35 90.2943 1107.77 90.6424 1108.11 91.0874C1108.47 91.5211 1108.73 92.0174 1108.92 92.5766C1109.11 93.1244 1109.21 93.7006 1109.21 94.3054C1109.21 94.9331 1109.1 95.5265 1108.88 96.0856C1108.68 96.6334 1108.38 97.1241 1107.99 97.5577C1107.61 97.9799 1107.15 98.3108 1106.64 98.5505C1106.14 98.7901 1105.59 98.9099 1104.98 98.9099ZM1104.6 97.609C1105.05 97.609 1105.46 97.5177 1105.84 97.3352C1106.21 97.1526 1106.54 96.9072 1106.81 96.5991C1107.09 96.291 1107.3 95.9373 1107.45 95.5379C1107.59 95.1385 1107.67 94.7277 1107.67 94.3054C1107.67 93.7235 1107.54 93.1757 1107.29 92.6622C1107.05 92.1487 1106.71 91.7379 1106.26 91.4298C1105.83 91.1102 1105.32 90.9505 1104.74 90.9505C1104.32 90.9505 1103.92 91.0475 1103.56 91.2415C1103.19 91.4355 1102.87 91.6922 1102.58 92.0117C1102.31 92.3198 1102.08 92.6622 1101.9 93.0388V95.6235C1101.96 95.9087 1102.08 96.1712 1102.26 96.4108C1102.44 96.6505 1102.66 96.8616 1102.93 97.0442C1103.19 97.2153 1103.46 97.3523 1103.75 97.455C1104.04 97.5577 1104.33 97.609 1104.6 97.609ZM1111.06 98.7388V89.8036H1112.56V98.7388H1111.06ZM1111.06 88.1262V86.2433H1112.56V88.1262H1111.06ZM1115.04 86.2433H1116.54V96.428C1116.54 96.9186 1116.61 97.2211 1116.75 97.3352C1116.89 97.4493 1117.05 97.5063 1117.25 97.5063C1117.48 97.5063 1117.71 97.4835 1117.93 97.4379C1118.15 97.3808 1118.33 97.3238 1118.48 97.2667L1118.72 98.4991C1118.47 98.6018 1118.17 98.6874 1117.83 98.7559C1117.48 98.8244 1117.18 98.8586 1116.92 98.8586C1116.34 98.8586 1115.88 98.6931 1115.53 98.3622C1115.2 98.0313 1115.04 97.5691 1115.04 96.9757V86.2433ZM1119.9 98.7388V89.8036H1121.41V98.7388H1119.9ZM1119.9 88.1262V86.2433H1121.41V88.1262H1119.9ZM1128.47 98.2937C1128.34 98.3508 1128.17 98.425 1127.95 98.5162C1127.74 98.6075 1127.49 98.6874 1127.2 98.7559C1126.92 98.8244 1126.61 98.8586 1126.29 98.8586C1125.93 98.8586 1125.59 98.7958 1125.28 98.6703C1124.98 98.5334 1124.73 98.328 1124.55 98.0541C1124.36 97.7688 1124.27 97.415 1124.27 96.9928V90.9847H1123.06V89.8036H1124.27V86.8253H1125.78V89.8036H1127.78V90.9847H1125.78V96.5307C1125.8 96.8502 1125.91 97.0898 1126.11 97.2496C1126.3 97.3979 1126.53 97.4721 1126.79 97.4721C1127.09 97.4721 1127.36 97.4208 1127.61 97.318C1127.86 97.2153 1128.03 97.1412 1128.11 97.0955L1128.47 98.2937ZM1130.27 101.169C1130.42 101.181 1130.57 101.192 1130.72 101.204C1130.87 101.226 1130.98 101.238 1131.06 101.238C1131.24 101.238 1131.4 101.175 1131.54 101.05C1131.68 100.924 1131.83 100.679 1131.99 100.314C1132.16 99.9598 1132.37 99.4349 1132.64 98.7388L1128.85 89.8036H1130.45L1133.46 97.2153L1136.18 89.8036H1137.67L1133.32 101.084C1133.22 101.346 1133.06 101.592 1132.86 101.82C1132.66 102.059 1132.41 102.248 1132.11 102.385C1131.8 102.522 1131.43 102.59 1130.99 102.59C1130.89 102.59 1130.78 102.584 1130.67 102.573C1130.57 102.562 1130.43 102.539 1130.27 102.505V101.169Z" fill="white"/>
</svg>
