<svg width="150" height="23" viewBox="0 0 150 23" fill="none" xmlns="http://www.w3.org/2000/svg">
<path d="M10.4506 7.15491H6.56999V17.2241H4.22791V7.15491H0.347246V5.08636H10.4506V7.15491ZM13.9361 17.3951C13.2181 17.3951 12.5685 17.2754 11.9872 17.0361C11.406 16.7853 10.9102 16.4491 10.4999 16.0274C10.0896 15.6058 9.77053 15.1157 9.54259 14.5572C9.32605 13.9988 9.21777 13.4118 9.21777 12.7964C9.21777 12.1582 9.32605 11.5598 9.54259 11.0014C9.75913 10.4315 10.0725 9.93577 10.4828 9.51408C10.8931 9.08099 11.3889 8.73909 11.9701 8.48835C12.5628 8.23762 13.2238 8.11225 13.9532 8.11225C14.6826 8.11225 15.3322 8.23762 15.9021 8.48835C16.4833 8.73909 16.9734 9.0753 17.3723 9.49698C17.7826 9.91867 18.0903 10.4087 18.2955 10.9672C18.512 11.5256 18.6203 12.1069 18.6203 12.7109C18.6203 12.8591 18.6146 13.0015 18.6032 13.1383C18.6032 13.2751 18.5918 13.389 18.569 13.4802H11.6453C11.6795 13.8335 11.765 14.1469 11.9018 14.4205C12.0385 14.694 12.2152 14.9276 12.4317 15.1214C12.6483 15.3151 12.8933 15.4633 13.1668 15.5659C13.4403 15.6684 13.7253 15.7197 14.0216 15.7197C14.4775 15.7197 14.9049 15.6115 15.3037 15.3949C15.714 15.167 15.9933 14.8706 16.1414 14.5059L18.1074 15.053C17.7769 15.7368 17.2469 16.301 16.5175 16.7454C15.7995 17.1785 14.939 17.3951 13.9361 17.3951ZM16.2611 11.9929C16.2041 11.3205 15.9534 10.7848 15.5089 10.3859C15.0758 9.97566 14.5459 9.77051 13.919 9.77051C13.6113 9.77051 13.3207 9.8275 13.0472 9.94146C12.785 10.044 12.5514 10.1922 12.3462 10.3859C12.1411 10.5797 11.9701 10.8133 11.8334 11.0869C11.708 11.3604 11.6339 11.6624 11.6111 11.9929H16.2611ZM28.3413 17.2241H26.0505V12.1981C26.0505 11.4801 25.9251 10.9558 25.6744 10.6253C25.4237 10.2948 25.0761 10.1295 24.6316 10.1295C24.4036 10.1295 24.17 10.1751 23.9307 10.2663C23.6913 10.3575 23.4634 10.4885 23.2469 10.6595C23.0417 10.819 22.8537 11.0128 22.6827 11.2407C22.5117 11.4687 22.3864 11.7194 22.3066 11.9929V17.2241H20.0158V8.26611H22.0844V9.92437C22.4149 9.35452 22.8935 8.91004 23.5204 8.59093C24.1472 8.27181 24.8538 8.11225 25.6402 8.11225C26.1987 8.11225 26.6545 8.21483 27.0078 8.41997C27.3612 8.62512 27.6347 8.89294 27.8284 9.22346C28.0222 9.55397 28.1532 9.93007 28.2216 10.3518C28.3014 10.7734 28.3413 11.2008 28.3413 11.6339V17.2241ZM30.2819 13.5657V11.4971H35.4618V13.5657H30.2819ZM37.4785 17.2241V8.26611H39.7693V17.2241H37.4785ZM37.4785 7.01815V4.74445H39.7693V7.01815H37.4785ZM45.973 17.3951C45.2436 17.3951 44.5882 17.2697 44.007 17.019C43.4257 16.7682 42.93 16.432 42.5197 16.0103C42.1208 15.5773 41.8131 15.0815 41.5965 14.523C41.38 13.9646 41.2717 13.3776 41.2717 12.7622C41.2717 12.1354 41.38 11.5427 41.5965 10.9843C41.8131 10.4258 42.1208 9.93577 42.5197 9.51408C42.93 9.08099 43.4257 8.73909 44.007 8.48835C44.5882 8.23762 45.2436 8.11225 45.973 8.11225C46.7024 8.11225 47.352 8.23762 47.9218 8.48835C48.5031 8.73909 48.9932 9.08099 49.392 9.51408C49.8023 9.93577 50.1158 10.4258 50.3323 10.9843C50.5488 11.5427 50.6571 12.1354 50.6571 12.7622C50.6571 13.3776 50.5488 13.9646 50.3323 14.523C50.1158 15.0815 49.808 15.5773 49.4091 16.0103C49.0103 16.432 48.5202 16.7682 47.9389 17.019C47.3577 17.2697 46.7024 17.3951 45.973 17.3951ZM43.6309 12.7622C43.6309 13.1611 43.6879 13.5258 43.8018 13.8563C43.9272 14.1754 44.0925 14.4547 44.2976 14.694C44.5142 14.9333 44.7649 15.1214 45.0498 15.2581C45.3347 15.3835 45.6425 15.4462 45.973 15.4462C46.3035 15.4462 46.6112 15.3835 46.8961 15.2581C47.181 15.1214 47.4261 14.9333 47.6312 14.694C47.8478 14.4547 48.013 14.1697 48.127 13.8392C48.2524 13.5087 48.315 13.144 48.315 12.7451C48.315 12.3576 48.2524 11.9986 48.127 11.6681C48.013 11.3376 47.8478 11.0527 47.6312 10.8133C47.4261 10.574 47.181 10.3916 46.8961 10.2663C46.6112 10.1295 46.3035 10.0611 45.973 10.0611C45.6425 10.0611 45.3347 10.1295 45.0498 10.2663C44.7649 10.403 44.5142 10.5911 44.2976 10.8304C44.0925 11.0698 43.9272 11.3547 43.8018 11.6852C43.6879 12.0157 43.6309 12.3747 43.6309 12.7622Z" fill="#CCA351"/>
</svg>
