<svg width="50" height="50" viewBox="0 0 50 50" fill="none" xmlns="http://www.w3.org/2000/svg">
<rect width="50" height="50" rx="10" fill="#CCA351"/>
<path d="M34.5156 20.125C34.5156 20.3594 34.5156 20.5469 34.5156 20.7812C34.5156 27.2969 29.5938 34.75 20.5469 34.75C17.7344 34.75 15.1562 33.9531 13 32.5469C13.375 32.5938 13.75 32.6406 14.1719 32.6406C16.4688 32.6406 18.5781 31.8438 20.2656 30.5312C18.1094 30.4844 16.2812 29.0781 15.6719 27.1094C16 27.1562 16.2812 27.2031 16.6094 27.2031C17.0312 27.2031 17.5 27.1094 17.875 27.0156C15.625 26.5469 13.9375 24.5781 13.9375 22.1875V22.1406C14.5938 22.5156 15.3906 22.7031 16.1875 22.75C14.8281 21.8594 13.9844 20.3594 13.9844 18.6719C13.9844 17.7344 14.2188 16.8906 14.6406 16.1875C17.0781 19.1406 20.7344 21.1094 24.8125 21.3438C24.7188 20.9688 24.6719 20.5938 24.6719 20.2188C24.6719 17.5 26.875 15.2969 29.5938 15.2969C31 15.2969 32.2656 15.8594 33.2031 16.8438C34.2812 16.6094 35.3594 16.1875 36.2969 15.625C35.9219 16.7969 35.1719 17.7344 34.1406 18.3438C35.125 18.25 36.1094 17.9688 36.9531 17.5938C36.2969 18.5781 35.4531 19.4219 34.5156 20.125Z" fill="black"/>
</svg>
